<svg xmlns="http://www.w3.org/2000/svg" xmlns:xlink="http://www.w3.org/1999/xlink" viewBox="0 0 148.001 48" overflow="visible"><g><path d="M 0 48 L 0 0 L 148 0 L 148 48 Z" fill="transparent"></path><path d="M 45.439 36.451 C 43.133 36.451 42.644 35.127 42.644 33.711 L 42.644 28.633 L 43.829 28.633 L 43.829 33.62 C 43.829 34.648 44.155 35.423 45.515 35.423 C 46.711 35.423 47.255 34.899 47.255 33.461 L 47.255 28.633 L 48.419 28.633 L 48.419 33.369 C 48.419 35.423 47.363 36.451 45.439 36.451 Z" fill="rgb(149,149,149)"></path><path d="M 53.701 36.336 L 53.701 32.955 C 53.701 32.299 53.521 31.919 52.919 31.919 C 52.127 31.919 51.547 32.754 51.547 33.8 L 51.547 36.336 L 50.417 36.336 L 50.417 31.084 L 51.494 31.084 C 51.494 31.359 51.473 31.813 51.42 32.109 L 51.431 32.12 C 51.737 31.444 52.37 30.979 53.257 30.979 C 54.45 30.979 54.82 31.729 54.82 32.659 L 54.82 36.336 Z" fill="rgb(149,149,149)"></path><path d="M 57.354 30.303 C 56.952 30.303 56.625 29.986 56.625 29.595 C 56.625 29.204 56.952 28.887 57.354 28.887 C 57.744 28.887 58.072 29.194 58.072 29.595 C 58.072 29.986 57.745 30.303 57.354 30.303 Z M 56.784 36.337 L 56.784 31.085 L 57.914 31.085 L 57.914 36.337 Z" fill="rgb(149,149,149)"></path><path d="M 62.232 36.336 L 61.081 36.336 L 59.117 31.084 L 60.363 31.084 L 61.345 33.864 C 61.472 34.223 61.588 34.593 61.683 34.941 L 61.694 34.941 C 61.778 34.613 61.884 34.243 62 33.905 L 63.003 31.084 L 64.217 31.084 Z" fill="rgb(149,149,149)"></path><path d="M 69.507 33.779 L 66.159 33.779 C 66.128 34.994 66.666 35.544 67.712 35.544 C 68.25 35.544 68.81 35.417 69.243 35.206 L 69.348 36.104 C 68.82 36.326 68.176 36.442 67.532 36.442 C 65.896 36.442 64.998 35.597 64.998 33.747 C 64.998 32.162 65.864 30.979 67.395 30.979 C 68.894 30.979 69.538 32.004 69.538 33.251 C 69.538 33.399 69.528 33.578 69.507 33.779 Z M 67.353 31.813 C 66.719 31.813 66.276 32.278 66.181 32.986 L 68.409 32.986 C 68.43 32.268 68.018 31.813 67.353 31.813 Z" fill="rgb(149,149,149)"></path><path d="M 73.815 32.09 C 72.769 31.899 72.263 32.628 72.263 34.203 L 72.263 36.337 L 71.133 36.337 L 71.133 31.086 L 72.21 31.086 C 72.21 31.381 72.178 31.846 72.104 32.248 L 72.125 32.248 C 72.358 31.54 72.886 30.885 73.868 30.98 Z" fill="rgb(149,149,149)"></path><path d="M 76.064 36.442 C 75.673 36.442 75.283 36.4 74.955 36.337 L 74.987 35.375 C 75.314 35.47 75.726 35.544 76.127 35.544 C 76.74 35.544 77.162 35.28 77.162 34.846 C 77.162 33.79 74.86 34.424 74.86 32.606 C 74.86 31.697 75.6 30.979 77.025 30.979 C 77.331 30.979 77.69 31.021 78.007 31.074 L 77.975 31.993 C 77.659 31.898 77.289 31.845 76.951 31.845 C 76.328 31.845 76.022 32.099 76.022 32.5 C 76.022 33.515 78.345 32.997 78.345 34.741 C 78.345 35.724 77.468 36.442 76.064 36.442 Z" fill="rgb(149,149,149)"></path><path d="M 80.531 30.303 C 80.13 30.303 79.802 29.986 79.802 29.595 C 79.802 29.204 80.129 28.887 80.531 28.887 C 80.921 28.887 81.248 29.194 81.248 29.595 C 81.248 29.986 80.921 30.303 80.531 30.303 Z M 79.96 36.337 L 79.96 31.085 L 81.09 31.085 L 81.09 36.337 Z" fill="rgb(149,149,149)"></path><path d="M 84.944 36.429 C 83.825 36.429 83.487 36.005 83.487 34.855 L 83.487 32.049 L 82.484 32.049 L 82.484 31.19 L 83.487 31.19 L 83.487 29.554 L 84.606 29.254 L 84.606 31.19 L 85.99 31.19 L 85.99 32.049 L 84.617 32.049 L 84.617 34.514 C 84.617 35.279 84.775 35.486 85.303 35.486 C 85.535 35.486 85.789 35.456 85.989 35.404 L 85.989 36.315 C 85.683 36.377 85.293 36.429 84.944 36.429 Z" fill="rgb(149,149,149)"></path><path d="M 90.318 36.336 C 90.318 35.998 90.329 35.649 90.371 35.364 L 90.361 35.354 C 90.108 35.977 89.453 36.442 88.619 36.442 C 87.722 36.442 87.151 35.935 87.151 35.1 C 87.151 33.896 88.355 33.198 90.245 33.198 L 90.245 32.86 C 90.245 32.205 89.97 31.866 89.147 31.866 C 88.661 31.866 88.028 32.014 87.584 32.289 L 87.478 31.327 C 87.996 31.127 88.65 30.978 89.326 30.978 C 90.931 30.978 91.375 31.676 91.375 32.754 L 91.375 34.899 C 91.375 35.353 91.385 35.892 91.406 36.336 Z M 88.376 30.091 C 88.017 30.091 87.743 29.806 87.743 29.447 C 87.743 29.098 88.017 28.813 88.376 28.813 C 88.735 28.813 89.02 29.098 89.02 29.447 C 89.02 29.806 88.735 30.091 88.376 30.091 Z M 90.245 33.959 C 88.598 33.959 88.239 34.455 88.239 34.91 C 88.239 35.301 88.514 35.554 88.957 35.554 C 89.728 35.554 90.245 34.815 90.245 34.065 Z M 90.456 30.091 C 90.097 30.091 89.811 29.806 89.811 29.447 C 89.811 29.098 90.097 28.813 90.456 28.813 C 90.804 28.813 91.089 29.098 91.089 29.447 C 91.089 29.806 90.804 30.091 90.456 30.091 Z" fill="rgb(149,149,149)"></path><path d="M 95.039 36.429 C 93.919 36.429 93.582 36.005 93.582 34.855 L 93.582 32.049 L 92.579 32.049 L 92.579 31.19 L 93.582 31.19 L 93.582 29.554 L 94.701 29.254 L 94.701 31.19 L 96.084 31.19 L 96.084 32.049 L 94.711 32.049 L 94.711 34.514 C 94.711 35.279 94.87 35.486 95.398 35.486 C 95.63 35.486 95.884 35.456 96.084 35.404 L 96.084 36.315 C 95.778 36.377 95.387 36.429 95.039 36.429 Z" fill="rgb(149,149,149)"></path><path d="M 106.708 36.337 L 106.708 32.878 L 103.239 32.878 L 103.239 36.337 L 102.053 36.337 L 102.053 28.633 L 103.239 28.633 L 103.239 31.817 L 106.708 31.817 L 106.708 28.633 L 107.882 28.633 L 107.882 36.337 Z" fill="rgb(149,149,149)"></path><path d="M 113.124 36.336 C 113.124 35.998 113.134 35.649 113.177 35.364 L 113.166 35.354 C 112.913 35.977 112.258 36.442 111.424 36.442 C 110.526 36.442 109.956 35.935 109.956 35.1 C 109.956 33.896 111.159 33.198 113.05 33.198 L 113.05 32.86 C 113.05 32.205 112.775 31.866 111.952 31.866 C 111.466 31.866 110.832 32.014 110.389 32.289 L 110.284 31.328 C 110.801 31.127 111.455 30.979 112.131 30.979 C 113.736 30.979 114.18 31.676 114.18 32.754 L 114.18 34.899 C 114.18 35.354 114.19 35.892 114.212 36.336 Z M 113.05 33.959 C 111.402 33.959 111.044 34.455 111.044 34.91 C 111.044 35.301 111.319 35.554 111.762 35.554 C 112.532 35.554 113.05 34.815 113.05 34.065 Z" fill="rgb(149,149,149)"></path><path d="M 122.723 36.336 L 122.723 32.986 C 122.723 32.331 122.564 31.919 121.963 31.919 C 121.286 31.919 120.611 32.669 120.611 33.821 L 120.611 36.336 L 119.502 36.336 L 119.502 32.976 C 119.502 32.384 119.375 31.919 118.742 31.919 C 118.024 31.919 117.4 32.722 117.4 33.821 L 117.4 36.336 L 116.271 36.336 L 116.271 31.084 L 117.348 31.084 C 117.348 31.359 117.326 31.803 117.274 32.109 L 117.295 32.12 C 117.602 31.422 118.256 30.979 119.069 30.979 C 120.103 30.979 120.442 31.645 120.526 32.109 C 120.748 31.602 121.328 30.979 122.279 30.979 C 123.282 30.979 123.841 31.518 123.841 32.712 L 123.841 36.336 Z" fill="rgb(149,149,149)"></path><path d="M 127.674 36.421 C 126.934 36.421 126.376 36.347 125.805 36.199 L 125.805 28.623 L 126.934 28.623 L 126.934 31.043 C 126.934 31.349 126.903 31.772 126.839 32.046 L 126.861 32.046 C 127.136 31.392 127.759 30.979 128.529 30.979 C 129.776 30.979 130.462 31.867 130.462 33.452 C 130.462 35.27 129.416 36.421 127.674 36.421 Z M 128.234 31.92 C 127.389 31.92 126.934 32.903 126.934 33.79 L 126.934 35.418 C 127.167 35.492 127.431 35.523 127.759 35.523 C 128.656 35.523 129.269 34.974 129.269 33.558 C 129.268 32.501 128.941 31.92 128.234 31.92 Z" fill="rgb(149,149,149)"></path><path d="M 135.551 36.338 C 135.551 36.063 135.573 35.609 135.625 35.313 L 135.614 35.302 C 135.309 35.978 134.675 36.443 133.788 36.443 C 132.595 36.443 132.225 35.693 132.225 34.763 L 132.225 31.086 L 133.344 31.086 L 133.344 34.467 C 133.344 35.123 133.524 35.503 134.126 35.503 C 134.918 35.503 135.499 34.668 135.499 33.622 L 135.499 31.086 L 136.628 31.086 L 136.628 36.338 Z" fill="rgb(149,149,149)"></path><path d="M 141.592 32.09 C 140.547 31.899 140.039 32.628 140.039 34.203 L 140.039 36.337 L 138.909 36.337 L 138.909 31.086 L 139.987 31.086 C 139.987 31.381 139.955 31.846 139.881 32.248 L 139.902 32.248 C 140.134 31.54 140.662 30.885 141.644 30.98 Z" fill="rgb(149,149,149)"></path><path d="M 145.096 39.041 C 143.724 39.041 142.869 38.513 142.869 37.498 C 142.869 36.907 143.259 36.41 143.713 36.177 C 143.396 36.019 143.196 35.744 143.196 35.395 C 143.196 35.015 143.428 34.656 143.798 34.497 C 143.281 34.212 143.017 33.673 143.017 33.018 C 143.017 31.908 143.861 30.979 145.361 30.979 C 145.678 30.979 145.941 31.021 146.227 31.084 L 148.001 31.084 L 148.001 31.972 L 147.198 31.972 C 147.42 32.152 147.557 32.468 147.557 32.849 C 147.557 33.99 146.765 34.793 145.287 34.793 C 145.087 34.793 144.843 34.772 144.685 34.74 C 144.474 34.825 144.379 34.983 144.379 35.131 C 144.379 35.395 144.611 35.501 145.245 35.501 L 146.142 35.501 C 147.282 35.501 147.926 36.04 147.926 37.022 C 147.926 38.143 146.786 39.041 145.096 39.041 Z M 145.836 36.42 L 144.854 36.42 C 144.759 36.42 144.653 36.42 144.569 36.41 C 144.209 36.61 143.988 36.928 143.988 37.287 C 143.988 37.847 144.516 38.164 145.276 38.164 C 146.258 38.164 146.807 37.741 146.807 37.17 C 146.807 36.716 146.501 36.42 145.836 36.42 Z M 145.308 31.813 C 144.558 31.813 144.114 32.267 144.114 32.912 C 144.114 33.599 144.537 34.001 145.297 34.001 C 146.004 34.001 146.469 33.61 146.469 32.923 C 146.469 32.225 146.036 31.813 145.308 31.813 Z" fill="rgb(149,149,149)"></path><path d="M 0.157 0 L 36.347 0 L 36.347 36.216 L 0.157 36.216 Z" fill="rgb(149,149,149)"></path><path d="M 23.422 21.467 L 23.939 21.467 L 23.681 21.019 L 23.939 20.571 L 23.422 20.571 L 23.164 20.123 L 22.905 20.571 L 22.389 20.571 L 22.647 21.019 L 22.389 21.467 L 22.906 21.467 L 23.164 21.915 Z" fill="rgb(255,255,255)"></path><path d="M 31.513 21.467 L 32.031 21.467 L 31.772 21.019 L 32.031 20.571 L 31.513 20.571 L 31.255 20.123 L 30.996 20.571 L 30.48 20.571 L 30.738 21.019 L 30.48 21.467 L 30.996 21.467 L 31.255 21.915 Z" fill="rgb(255,255,255)"></path><path d="M 25.788 21.674 L 25.788 21.77 L 25.223 21.77 L 25.223 22.432 L 25.86 22.432 L 25.86 26.566 L 24.39 26.566 L 24.39 22.524 L 21.939 22.524 L 21.939 26.566 L 21.138 26.566 L 21.138 27.252 L 33.282 27.252 L 33.282 26.566 L 32.48 26.566 L 32.48 22.524 L 30.029 22.524 L 30.029 26.566 L 28.559 26.566 L 28.559 22.431 L 29.197 22.431 L 29.197 21.77 L 28.631 21.77 C 28.595 21.059 28.242 20.451 27.5 20.286 L 27.5 19.572 L 28.031 19.572 L 28.031 19.075 L 27.5 19.075 L 27.5 18.469 L 26.919 18.469 L 26.919 19.075 L 26.389 19.075 L 26.389 19.572 L 26.919 19.572 L 26.919 20.288 C 26.264 20.441 25.788 20.984 25.788 21.674 Z" fill="rgb(255,255,255)"></path><path d="M 27.209 30.088 C 26.314 30.088 25.589 30.814 25.589 31.71 L 25.56 34.426 L 20.464 34.426 C 21.221 32.322 21.724 30.205 21.88 27.961 L 27.209 27.961 L 32.539 27.961 C 32.695 30.205 33.198 32.322 33.955 34.426 L 28.859 34.426 L 28.83 31.71 C 28.83 30.814 28.104 30.088 27.209 30.088 Z" fill="rgb(255,255,255)"></path><path d="M 15.913 11.826 L 14.461 11.826 L 14.461 7.75 L 10.219 7.75 L 10.219 8.692 C 10.219 10.736 9.01 11.961 6.65 11.961 C 4.226 11.961 3.081 10.832 3.081 8.732 L 3.081 2.746 L 4.546 2.746 L 4.546 8.436 C 4.546 9.899 5.056 10.75 6.663 10.75 C 8.246 10.75 8.78 9.899 8.78 8.436 L 8.78 2.746 L 10.219 2.746 L 10.219 6.5 L 14.461 6.5 L 14.461 2.746 L 15.913 2.746 L 15.913 6.5 L 20.183 6.5 L 20.183 2.746 L 21.635 2.746 L 21.635 11.826 L 20.183 11.826 L 20.183 7.751 L 15.913 7.751 Z" fill="rgb(255,255,255)"></path><path d="M 1.283 47.459 C 0.805 47.459 0.389 47.439 0 47.425 L 0 42.829 C 0.362 42.816 0.921 42.795 1.488 42.795 C 2.914 42.795 3.822 43.43 3.822 45.049 C 3.822 46.633 2.785 47.459 1.283 47.459 Z M 1.426 43.539 C 1.222 43.539 1.031 43.547 0.887 43.56 L 0.887 46.667 C 1.01 46.688 1.194 46.702 1.372 46.702 C 2.238 46.702 2.866 46.21 2.866 45.117 C 2.866 44.127 2.477 43.539 1.426 43.539 Z" fill="rgb(149,149,149)"></path><path d="M 4.621 47.432 L 4.621 42.822 L 7.126 42.822 L 7.126 43.567 L 5.508 43.567 L 5.508 44.701 L 7.044 44.701 L 7.044 45.425 L 5.508 45.425 L 5.508 46.675 L 7.126 46.675 L 7.126 47.433 L 4.621 47.433 Z" fill="rgb(149,149,149)"></path><path d="M 10.259 47.432 L 8.976 45.527 L 8.942 45.527 L 8.942 47.432 L 8.055 47.432 L 8.055 42.822 C 8.416 42.802 8.847 42.795 9.379 42.795 C 10.395 42.795 11.051 43.15 11.051 44.092 C 11.051 44.776 10.573 45.267 9.877 45.376 C 10.007 45.547 10.136 45.725 10.252 45.882 L 11.358 47.432 Z M 9.29 43.519 C 9.16 43.519 9.03 43.526 8.942 43.54 L 8.942 44.871 C 9.003 44.878 9.126 44.885 9.262 44.885 C 9.795 44.885 10.122 44.612 10.122 44.181 C 10.122 43.738 9.849 43.519 9.29 43.519 Z" fill="rgb(149,149,149)"></path><path d="M 15.453 43.593 L 15.453 44.775 L 16.933 44.775 L 16.933 45.502 L 15.453 45.502 L 15.453 47.432 L 14.57 47.432 L 14.57 42.846 L 17.021 42.846 L 17.021 43.593 Z" fill="rgb(149,149,149)"></path><path d="M 19.641 47.508 C 18.242 47.508 17.557 46.618 17.557 45.197 C 17.557 43.682 18.568 42.772 19.797 42.772 C 21.02 42.772 21.882 43.505 21.882 45.075 C 21.882 46.591 20.884 47.508 19.641 47.508 Z M 19.716 43.567 C 19.084 43.567 18.5 44.069 18.5 45.102 C 18.5 46.074 18.88 46.706 19.702 46.706 C 20.299 46.706 20.938 46.243 20.938 45.143 C 20.938 44.124 20.503 43.567 19.716 43.567 Z" fill="rgb(149,149,149)"></path><path d="M 24.875 47.434 L 23.598 45.538 L 23.564 45.538 L 23.564 47.434 L 22.682 47.434 L 22.682 42.847 C 23.042 42.827 23.469 42.82 23.999 42.82 C 25.011 42.82 25.662 43.174 25.662 44.111 C 25.662 44.791 25.187 45.28 24.494 45.389 C 24.623 45.559 24.752 45.736 24.868 45.892 L 25.968 47.434 L 24.875 47.434 Z M 23.911 43.54 C 23.782 43.54 23.653 43.547 23.565 43.561 L 23.565 44.886 C 23.626 44.893 23.748 44.9 23.884 44.9 C 24.413 44.9 24.739 44.628 24.739 44.2 C 24.739 43.758 24.468 43.54 23.911 43.54 Z" fill="rgb(149,149,149)"></path><path d="M 27.468 47.508 C 27.142 47.508 26.816 47.474 26.53 47.399 L 26.585 46.577 C 26.843 46.665 27.209 46.74 27.542 46.74 C 27.99 46.74 28.337 46.557 28.337 46.135 C 28.337 45.258 26.415 45.659 26.415 44.151 C 26.415 43.335 27.06 42.772 28.16 42.772 C 28.418 42.772 28.717 42.806 28.988 42.853 L 28.941 43.628 C 28.683 43.553 28.398 43.505 28.119 43.505 C 27.61 43.505 27.352 43.736 27.352 44.063 C 27.352 44.885 29.28 44.579 29.28 46.013 C 29.28 46.876 28.595 47.508 27.468 47.508 Z" fill="rgb(149,149,149)"></path><path d="M 32.036 47.495 C 30.433 47.495 29.917 46.428 29.917 45.286 C 29.917 43.832 30.678 42.813 32.212 42.813 C 32.538 42.813 32.884 42.853 33.183 42.935 L 33.088 43.737 C 32.789 43.648 32.477 43.601 32.164 43.601 C 31.309 43.601 30.888 44.247 30.888 45.136 C 30.888 46.135 31.302 46.692 32.226 46.692 C 32.504 46.692 32.878 46.611 33.115 46.502 L 33.217 47.291 C 32.878 47.413 32.463 47.495 32.036 47.495 Z" fill="rgb(149,149,149)"></path><path d="M 36.95 47.432 L 36.95 45.441 L 35.009 45.441 L 35.009 47.432 L 34.126 47.432 L 34.126 42.846 L 35.009 42.846 L 35.009 44.68 L 36.95 44.68 L 36.95 42.846 L 37.833 42.846 L 37.833 47.432 Z" fill="rgb(149,149,149)"></path><path d="M 40.778 47.507 C 39.332 47.507 39.006 46.718 39.006 45.842 L 39.006 42.846 L 39.889 42.846 L 39.889 45.788 C 39.889 46.365 40.079 46.773 40.839 46.773 C 41.518 46.773 41.804 46.487 41.804 45.706 L 41.804 42.846 L 42.68 42.846 L 42.68 45.652 C 42.679 46.909 41.986 47.507 40.778 47.507 Z" fill="rgb(149,149,149)"></path><path d="M 46.48 47.432 L 45.136 45.115 C 44.932 44.768 44.776 44.429 44.64 44.13 C 44.667 44.524 44.681 45.244 44.681 45.795 L 44.681 47.432 L 43.825 47.432 L 43.825 42.846 L 44.973 42.846 L 46.249 45.034 C 46.46 45.387 46.643 45.767 46.813 46.114 C 46.779 45.652 46.765 44.836 46.765 44.273 L 46.765 42.846 L 47.621 42.846 L 47.621 47.432 Z" fill="rgb(149,149,149)"></path><path d="M 52.169 43.799 C 51.803 43.656 51.381 43.568 50.954 43.568 C 50.05 43.568 49.399 44.139 49.399 45.164 C 49.399 46.136 49.928 46.707 50.859 46.707 C 51.076 46.707 51.266 46.68 51.442 46.625 L 51.442 45.029 L 52.325 45.029 L 52.325 47.217 C 51.87 47.4 51.307 47.502 50.757 47.502 C 49.304 47.502 48.441 46.646 48.441 45.246 C 48.441 43.805 49.419 42.779 51.008 42.779 C 51.463 42.779 51.911 42.861 52.305 42.976 Z" fill="rgb(149,149,149)"></path><path d="M 57.348 48 L 57.348 42.674 L 57.976 42.674 L 57.976 48 Z" fill="rgb(149,149,149)"></path><path d="M 64.206 47.459 C 63.731 47.459 63.317 47.439 62.93 47.425 L 62.93 42.852 C 63.29 42.839 63.846 42.818 64.41 42.818 C 65.829 42.818 66.732 43.45 66.732 45.06 C 66.732 46.638 65.7 47.459 64.206 47.459 Z M 64.349 43.559 C 64.145 43.559 63.955 43.566 63.812 43.58 L 63.812 46.671 C 63.935 46.692 64.118 46.705 64.294 46.705 C 65.157 46.705 65.781 46.216 65.781 45.129 C 65.782 44.143 65.394 43.559 64.349 43.559 Z" fill="rgb(149,149,149)"></path><path d="M 67.525 47.432 L 67.525 42.846 L 70.017 42.846 L 70.017 43.586 L 68.408 43.586 L 68.408 44.714 L 69.936 44.714 L 69.936 45.434 L 68.408 45.434 L 68.408 46.678 L 70.017 46.678 L 70.017 47.432 Z" fill="rgb(149,149,149)"></path><path d="M 73.133 47.434 L 71.856 45.538 L 71.822 45.538 L 71.822 47.434 L 70.939 47.434 L 70.939 42.847 C 71.3 42.827 71.727 42.82 72.257 42.82 C 73.269 42.82 73.92 43.174 73.92 44.111 C 73.92 44.791 73.445 45.28 72.752 45.389 C 72.881 45.559 73.01 45.736 73.126 45.892 L 74.225 47.434 L 73.133 47.434 Z M 72.168 43.54 C 72.039 43.54 71.91 43.547 71.822 43.561 L 71.822 44.886 C 71.883 44.893 72.005 44.9 72.141 44.9 C 72.671 44.9 72.997 44.628 72.997 44.2 C 72.997 43.758 72.725 43.54 72.168 43.54 Z" fill="rgb(149,149,149)"></path><path d="M 77.422 47.432 L 77.422 42.846 L 78.304 42.846 L 78.304 46.658 L 79.791 46.658 L 79.791 47.432 L 77.422 47.432 Z" fill="rgb(149,149,149)"></path><path d="M 80.436 47.432 L 80.436 42.846 L 82.927 42.846 L 82.927 43.586 L 81.318 43.586 L 81.318 44.714 L 82.846 44.714 L 82.846 45.434 L 81.318 45.434 L 81.318 46.678 L 82.927 46.678 L 82.927 47.432 Z" fill="rgb(149,149,149)"></path><path d="M 86.708 47.432 L 86.708 45.441 L 84.766 45.441 L 84.766 47.432 L 83.884 47.432 L 83.884 42.846 L 84.766 42.846 L 84.766 44.68 L 86.708 44.68 L 86.708 42.846 L 87.591 42.846 L 87.591 47.432 Z" fill="rgb(149,149,149)"></path><path d="M 90.97 47.434 L 89.694 45.538 L 89.66 45.538 L 89.66 47.434 L 88.777 47.434 L 88.777 42.847 C 89.137 42.827 89.565 42.82 90.094 42.82 C 91.106 42.82 91.758 43.174 91.758 44.111 C 91.758 44.791 91.282 45.28 90.59 45.389 C 90.719 45.559 90.848 45.736 90.963 45.892 L 92.063 47.434 L 90.97 47.434 Z M 90.006 43.54 C 89.877 43.54 89.748 43.547 89.66 43.561 L 89.66 44.886 C 89.721 44.893 89.843 44.9 89.979 44.9 C 90.509 44.9 90.835 44.628 90.835 44.2 C 90.835 43.758 90.563 43.54 90.006 43.54 Z" fill="rgb(149,149,149)"></path><path d="M 92.776 47.432 L 92.776 42.846 L 95.268 42.846 L 95.268 43.586 L 93.658 43.586 L 93.658 44.714 L 95.186 44.714 L 95.186 45.434 L 93.658 45.434 L 93.658 46.678 L 95.268 46.678 L 95.268 47.432 Z" fill="rgb(149,149,149)"></path><path d="M 100.216 48 L 100.216 42.674 L 100.843 42.674 L 100.843 48 Z" fill="rgb(149,149,149)"></path><path d="M 106.946 47.459 C 106.471 47.459 106.058 47.439 105.67 47.425 L 105.67 42.852 C 106.03 42.839 106.587 42.818 107.15 42.818 C 108.569 42.818 109.473 43.45 109.473 45.06 C 109.473 46.638 108.44 47.459 106.946 47.459 Z M 107.089 43.559 C 106.885 43.559 106.695 43.566 106.552 43.58 L 106.552 46.671 C 106.675 46.692 106.858 46.705 107.035 46.705 C 107.897 46.705 108.522 46.216 108.522 45.129 C 108.522 44.143 108.134 43.559 107.089 43.559 Z" fill="rgb(149,149,149)"></path><path d="M 110.265 47.432 L 110.265 42.846 L 112.756 42.846 L 112.756 43.586 L 111.147 43.586 L 111.147 44.714 L 112.675 44.714 L 112.675 45.434 L 111.147 45.434 L 111.147 46.678 L 112.756 46.678 L 112.756 47.432 Z" fill="rgb(149,149,149)"></path><path d="M 115.873 47.434 L 114.597 45.538 L 114.562 45.538 L 114.562 47.434 L 113.68 47.434 L 113.68 42.847 C 114.04 42.827 114.467 42.82 114.997 42.82 C 116.009 42.82 116.66 43.174 116.66 44.111 C 116.66 44.791 116.185 45.28 115.492 45.389 C 115.622 45.559 115.751 45.736 115.865 45.892 L 116.966 47.434 L 115.873 47.434 Z M 114.909 43.54 C 114.779 43.54 114.65 43.547 114.562 43.561 L 114.562 44.886 C 114.623 44.893 114.745 44.9 114.882 44.9 C 115.411 44.9 115.737 44.628 115.737 44.2 C 115.737 43.758 115.466 43.54 114.909 43.54 Z" fill="rgb(149,149,149)"></path><path d="M 121.5 47.446 C 121.221 47.446 120.739 47.432 120.162 47.432 L 120.162 42.852 C 120.549 42.832 121.147 42.818 121.71 42.818 C 122.702 42.818 123.252 43.219 123.252 43.953 C 123.252 44.408 122.959 44.809 122.525 44.979 L 122.525 44.993 C 123.068 45.108 123.339 45.557 123.339 46.019 C 123.34 46.685 122.885 47.446 121.5 47.446 Z M 121.561 43.532 C 121.378 43.532 121.202 43.539 121.045 43.546 L 121.045 44.741 C 121.154 44.748 121.262 44.748 121.405 44.748 C 122.01 44.748 122.322 44.504 122.322 44.096 C 122.322 43.756 122.118 43.532 121.561 43.532 Z M 121.432 45.408 C 121.364 45.408 121.141 45.408 121.045 45.414 L 121.045 46.699 C 121.154 46.712 121.323 46.726 121.527 46.726 C 122.105 46.726 122.396 46.454 122.396 46.039 C 122.396 45.591 122.01 45.408 121.432 45.408 Z" fill="rgb(149,149,149)"></path><path d="M 124.255 47.432 L 124.255 42.846 L 125.137 42.846 L 125.137 47.432 Z" fill="rgb(149,149,149)"></path><path d="M 126.318 47.432 L 126.318 42.846 L 127.201 42.846 L 127.201 46.658 L 128.688 46.658 L 128.688 47.432 L 126.318 47.432 Z" fill="rgb(149,149,149)"></path><path d="M 130.609 47.459 C 130.133 47.459 129.719 47.439 129.332 47.425 L 129.332 42.852 C 129.691 42.839 130.248 42.818 130.812 42.818 C 132.231 42.818 133.134 43.45 133.134 45.06 C 133.134 46.638 132.102 47.459 130.609 47.459 Z M 130.751 43.559 C 130.547 43.559 130.357 43.566 130.214 43.58 L 130.214 46.671 C 130.337 46.692 130.52 46.705 130.697 46.705 C 131.558 46.705 132.183 46.216 132.183 45.129 C 132.183 44.143 131.796 43.559 130.751 43.559 Z" fill="rgb(149,149,149)"></path><path d="M 135.734 47.507 C 134.287 47.507 133.962 46.718 133.962 45.842 L 133.962 42.846 L 134.844 42.846 L 134.844 45.788 C 134.844 46.365 135.034 46.773 135.795 46.773 C 136.473 46.773 136.759 46.487 136.759 45.706 L 136.759 42.846 L 137.635 42.846 L 137.635 45.652 C 137.635 46.909 136.943 47.507 135.734 47.507 Z" fill="rgb(149,149,149)"></path><path d="M 141.435 47.432 L 140.091 45.115 C 139.887 44.768 139.731 44.429 139.595 44.13 C 139.622 44.524 139.636 45.244 139.636 45.795 L 139.636 47.432 L 138.78 47.432 L 138.78 42.846 L 139.928 42.846 L 141.204 45.034 C 141.415 45.387 141.598 45.767 141.768 46.114 C 141.734 45.652 141.721 44.836 141.721 44.273 L 141.721 42.846 L 142.576 42.846 L 142.576 47.432 Z" fill="rgb(149,149,149)"></path><path d="M 147.123 43.799 C 146.756 43.656 146.336 43.568 145.908 43.568 C 145.005 43.568 144.353 44.139 144.353 45.164 C 144.353 46.136 144.882 46.707 145.813 46.707 C 146.03 46.707 146.22 46.68 146.397 46.625 L 146.397 45.029 L 147.279 45.029 L 147.279 47.217 C 146.825 47.4 146.261 47.502 145.711 47.502 C 144.258 47.502 143.396 46.646 143.396 45.246 C 143.396 43.805 144.374 42.779 145.962 42.779 C 146.417 42.779 146.866 42.861 147.259 42.976 Z" fill="rgb(149,149,149)"></path></g></svg>