<svg xmlns="http://www.w3.org/2000/svg" xmlns:xlink="http://www.w3.org/1999/xlink" viewBox="0 0 159 48"><g><path d="M 0 48 L 0 0 L 159 0 L 159 48 Z" fill="transparent"></path><path d="M 99.082 44.901 L 99.488 44.651 L 99.454 43.624 L 99.42 42.597 L 98.987 42.386 C 98.096 41.952 97.408 42.655 97.48 43.927 C 97.547 45.108 98.15 45.475 99.082 44.901 Z M 96.99 47.866 C 96.61 47.757 96.591 47.728 96.656 47.328 C 96.695 47.095 96.746 46.883 96.772 46.858 C 96.797 46.833 97.048 46.893 97.329 46.992 C 98.154 47.282 98.724 47.229 99.13 46.824 C 99.366 46.589 99.479 46.357 99.479 46.108 L 99.479 45.739 L 99.127 45.92 C 98.616 46.184 97.598 46.154 97.117 45.861 C 95.931 45.141 95.975 42.548 97.186 41.746 C 97.731 41.386 98.377 41.3 98.982 41.507 C 99.257 41.602 99.511 41.632 99.547 41.574 C 99.583 41.516 99.855 41.468 100.151 41.468 L 100.689 41.468 L 100.65 44.052 C 100.606 47.032 100.542 47.26 99.6 47.736 C 99.023 48.027 97.77 48.09 96.99 47.866 Z" fill="rgb(149,149,149)"></path><path d="M 144.746 21.565 L 144.746 20.615 L 143.792 20.615 L 142.838 20.615 L 142.802 21.435 C 142.751 22.607 142.737 22.591 143.82 22.551 L 144.746 22.516 Z M 149.908 31.032 C 149.926 29.9 149.986 28.991 150.041 29.012 C 150.096 29.033 150.988 29.975 152.022 31.104 L 153.903 33.158 L 154.989 33.124 C 155.841 33.098 156.082 33.052 156.108 32.912 C 156.127 32.814 155.195 31.701 154.038 30.44 L 151.934 28.146 L 152.169 27.885 C 153.926 25.936 155.433 24.083 155.377 23.938 C 155.326 23.805 155.087 23.763 154.375 23.763 L 153.441 23.763 L 151.718 25.744 L 149.994 27.724 L 149.935 23.754 L 149.875 19.783 L 148.921 19.783 L 147.967 19.783 L 147.936 26.305 C 147.913 31.132 147.941 32.869 148.044 32.993 C 148.145 33.114 148.414 33.15 149.029 33.125 L 149.875 33.09 Z M 144.746 28.456 L 144.746 23.823 L 143.792 23.823 L 142.838 23.823 L 142.806 28.337 C 142.789 30.82 142.802 32.921 142.834 33.006 C 142.877 33.118 143.145 33.15 143.82 33.125 L 144.746 33.09 Z M 110.437 32.991 C 110.527 32.883 110.579 31.498 110.601 28.661 L 110.632 24.491 L 112.014 28.375 L 113.395 32.259 L 114.399 32.291 L 115.403 32.324 L 116.859 28.37 L 118.315 24.417 L 118.32 28.641 C 118.324 31.761 118.363 32.902 118.469 33.007 C 118.673 33.21 120.167 33.195 120.34 32.988 C 120.437 32.871 120.466 31.13 120.444 26.72 L 120.413 20.615 L 119.161 20.582 L 117.908 20.55 L 116.423 24.622 C 115.607 26.862 114.863 28.88 114.77 29.108 L 114.601 29.522 L 113.185 25.544 C 112.406 23.356 111.683 21.338 111.578 21.06 L 111.388 20.556 L 110.039 20.556 C 108.918 20.556 108.677 20.587 108.617 20.743 C 108.577 20.847 108.545 23.616 108.545 26.898 C 108.545 31.38 108.58 32.9 108.688 33.007 C 108.888 33.206 110.268 33.193 110.437 32.991 Z M 138.066 33.061 C 138.828 32.795 139.691 31.958 139.889 31.294 C 140.395 29.598 139.588 28.4 137.291 27.437 C 135.762 26.795 135.374 26.355 135.786 25.728 C 136.112 25.233 136.749 25.125 138.005 25.354 C 138.603 25.463 139.143 25.521 139.205 25.483 C 139.268 25.444 139.319 25.072 139.319 24.656 L 139.319 23.899 L 138.642 23.759 C 137.676 23.559 135.673 23.658 135.144 23.932 C 134.169 24.436 133.702 25.185 133.697 26.252 C 133.693 27.069 133.987 27.731 134.572 28.221 C 134.788 28.403 135.571 28.84 136.312 29.194 C 137.435 29.729 137.69 29.901 137.847 30.229 C 138.01 30.568 138.013 30.669 137.872 30.965 C 137.78 31.157 137.502 31.408 137.239 31.536 C 136.82 31.74 136.685 31.75 135.985 31.631 C 135.554 31.557 134.922 31.381 134.58 31.24 C 133.697 30.874 133.593 30.949 133.593 31.953 L 133.593 32.784 L 134.041 32.9 C 134.287 32.964 134.676 33.068 134.905 33.132 C 135.631 33.332 137.404 33.293 138.066 33.061 Z M 127.384 33.024 C 127.675 32.892 128.142 32.598 128.421 32.37 L 128.928 31.956 L 128.965 32.523 L 129.001 33.09 L 129.922 33.125 C 130.796 33.158 130.846 33.146 130.909 32.887 C 130.946 32.737 130.961 30.637 130.943 28.219 L 130.91 23.823 L 129.955 23.823 L 129.001 23.823 L 128.941 26.793 L 128.882 29.763 L 128.533 30.217 C 127.613 31.416 125.997 31.886 125.482 31.104 C 125.337 30.884 125.292 30.17 125.244 27.328 L 125.184 23.823 L 124.23 23.823 L 123.276 23.823 L 123.276 27.625 C 123.276 31.29 123.285 31.444 123.532 31.902 C 124.06 32.879 124.754 33.258 126.019 33.261 C 126.605 33.262 127.012 33.192 127.384 33.024 Z M 59.998 40.694 L 59.998 34.813 L 82.422 34.813 L 104.847 34.813 L 104.847 26.377 L 104.847 17.942 L 52.423 17.942 L 0 17.942 L 0 9.506 L 0 1.07 L 0.477 1.07 L 0.954 1.07 L 0.954 9.031 L 0.954 16.991 L 79.977 16.991 L 159 16.991 L 159 26.377 L 159 35.763 L 109.976 35.763 L 60.952 35.763 L 60.952 41.169 L 60.952 46.575 L 60.475 46.575 L 59.998 46.575 Z" fill="rgb(149,149,149)"></path><path d="M 77.055 43.125 C 77.055 42.839 76.687 42.325 76.436 42.259 C 76.097 42.171 75.65 42.452 75.499 42.848 C 75.436 43.012 75.385 43.17 75.385 43.198 C 75.385 43.227 75.761 43.25 76.22 43.25 C 76.723 43.25 77.055 43.201 77.055 43.125 Z M 75.405 46.093 C 74.64 45.703 74.268 45.071 74.211 44.059 C 74.155 43.072 74.398 42.329 74.922 41.89 C 75.872 41.094 77.372 41.289 77.876 42.274 C 78.002 42.518 78.142 43.025 78.189 43.4 L 78.275 44.082 L 76.815 44.082 L 75.355 44.082 L 75.429 44.468 C 75.47 44.681 75.671 45.006 75.879 45.194 C 76.218 45.502 76.312 45.528 76.863 45.468 C 77.198 45.431 77.62 45.365 77.8 45.322 C 78.111 45.246 78.128 45.264 78.128 45.659 C 78.128 46.167 78.015 46.222 76.816 46.299 C 76.057 46.347 75.844 46.316 75.405 46.093 Z" fill="rgb(149,149,149)"></path><path d="M 84.682 45.391 C 84.971 45.237 85.285 44.428 85.285 43.837 C 85.285 43.178 85.001 42.559 84.636 42.42 C 84.28 42.285 84.052 42.35 83.526 42.738 C 83.142 43.021 83.138 43.034 83.138 44.016 C 83.138 45.005 83.139 45.009 83.526 45.255 C 83.948 45.525 84.344 45.571 84.682 45.391 Z M 82.064 42.893 L 82.064 39.447 L 82.601 39.447 L 83.138 39.447 L 83.138 40.698 L 83.138 41.949 L 83.466 41.709 C 83.994 41.323 84.769 41.282 85.402 41.608 C 86.098 41.967 86.377 42.465 86.45 43.481 C 86.547 44.831 86.045 45.867 85.128 46.212 C 84.652 46.391 83.9 46.368 83.501 46.163 C 83.202 46.009 83.153 46.009 83.094 46.163 C 83.05 46.278 82.859 46.338 82.545 46.338 L 82.064 46.338 Z" fill="rgb(149,149,149)"></path><path d="M 88.147 46.193 C 87.556 45.885 87.432 45.391 87.432 43.338 L 87.432 41.467 L 88.028 41.467 L 88.624 41.467 L 88.624 43.285 C 88.624 44.54 88.669 45.147 88.768 45.245 C 89.024 45.501 89.449 45.396 89.936 44.958 L 90.414 44.528 L 90.414 42.998 L 90.414 41.467 L 90.95 41.467 L 91.487 41.467 L 91.487 43.843 L 91.487 46.219 L 90.95 46.219 C 90.49 46.219 90.414 46.185 90.414 45.978 C 90.414 45.74 90.409 45.74 90.059 45.998 C 89.629 46.315 88.587 46.422 88.147 46.193 Z" fill="rgb(149,149,149)"></path><path d="M 66.109 43.042 L 66.141 39.864 L 68.019 39.831 L 69.898 39.799 L 69.898 40.218 L 69.898 40.636 L 68.646 40.636 L 67.393 40.636 L 67.393 41.582 L 67.393 42.528 L 68.437 42.563 L 69.481 42.597 L 69.481 43.013 L 69.481 43.429 L 68.437 43.463 L 67.393 43.497 L 67.393 44.859 L 67.393 46.221 L 66.735 46.221 L 66.077 46.221 Z" fill="rgb(149,149,149)"></path><path d="M 70.972 43.844 L 70.972 41.468 L 71.508 41.468 C 71.972 41.468 72.045 41.502 72.045 41.714 L 72.045 41.961 L 72.349 41.723 C 72.712 41.438 73.258 41.302 73.6 41.41 C 73.801 41.474 73.841 41.57 73.811 41.924 C 73.78 42.295 73.731 42.361 73.477 42.372 C 73.313 42.379 73.091 42.393 72.984 42.402 C 72.877 42.411 72.622 42.589 72.417 42.798 L 72.045 43.177 L 72.045 44.699 L 72.045 46.221 L 71.508 46.221 L 70.972 46.221 Z" fill="rgb(149,149,149)"></path><path d="M 79.44 43.843 L 79.44 41.467 L 79.977 41.467 L 80.514 41.467 L 80.514 43.843 L 80.514 46.219 L 79.977 46.219 L 79.44 46.219 Z" fill="rgb(149,149,149)"></path><path d="M 93.038 43.844 L 93.038 41.468 L 93.575 41.468 C 94.038 41.468 94.112 41.502 94.112 41.714 L 94.112 41.961 L 94.415 41.723 C 94.778 41.438 95.324 41.302 95.666 41.41 C 95.868 41.474 95.907 41.57 95.878 41.924 C 95.847 42.295 95.797 42.361 95.543 42.372 C 95.379 42.379 95.157 42.393 95.05 42.402 C 94.943 42.411 94.688 42.589 94.484 42.798 L 94.112 43.177 L 94.112 44.699 L 94.112 46.221 L 93.575 46.221 L 93.038 46.221 Z" fill="rgb(149,149,149)"></path><path d="M 79.44 40.339 L 79.44 39.805 L 79.977 39.805 L 80.514 39.805 L 80.514 40.339 L 80.514 40.874 L 79.977 40.874 L 79.44 40.874 Z" fill="rgb(149,149,149)"></path><path d="M 85.822 33.072 C 85.296 32.796 84.936 32.438 84.647 31.903 C 84.4 31.445 84.391 31.292 84.391 27.626 L 84.391 23.824 L 85.345 23.824 L 86.299 23.824 L 86.359 27.291 C 86.415 30.578 86.431 30.775 86.669 31.093 C 86.86 31.349 87.035 31.437 87.406 31.464 C 88.042 31.512 88.639 31.2 89.4 30.424 L 89.997 29.816 L 90.056 26.82 L 90.116 23.824 L 91.07 23.824 L 92.025 23.824 L 92.025 28.458 L 92.025 33.092 L 91.07 33.092 L 90.116 33.092 L 90.079 32.521 L 90.043 31.95 L 89.61 32.328 C 88.862 32.983 88.09 33.268 87.074 33.264 C 86.495 33.261 86.054 33.194 85.822 33.072 Z" fill="rgb(149,149,149)"></path><path d="M 78.446 33.071 C 78.403 33.027 78.367 31.292 78.367 29.215 L 78.367 25.439 L 77.74 25.404 L 77.114 25.368 L 77.114 24.595 L 77.114 23.823 L 77.727 23.788 L 78.339 23.752 L 78.39 22.599 C 78.444 21.368 78.659 20.758 79.222 20.235 C 79.897 19.608 81.223 19.37 82.601 19.629 L 83.436 19.785 L 83.472 20.478 C 83.521 21.42 83.414 21.526 82.626 21.317 C 81.744 21.084 81.073 21.105 80.736 21.377 C 80.484 21.58 80.45 21.719 80.413 22.679 L 80.371 23.754 L 81.427 23.788 L 82.482 23.823 L 82.482 24.595 L 82.482 25.368 L 81.438 25.402 L 80.394 25.436 L 80.394 29.15 C 80.394 31.881 80.356 32.902 80.251 33.007 C 80.101 33.157 78.587 33.21 78.446 33.071 Z" fill="rgb(149,149,149)"></path><path d="M 95.123 33.007 C 95.09 32.922 95.077 30.822 95.095 28.339 L 95.126 23.824 L 96.08 23.824 L 97.034 23.824 L 97.071 24.337 L 97.109 24.849 L 97.591 24.414 C 98.323 23.756 98.825 23.596 100.051 23.634 L 100.444 23.646 L 100.409 24.567 L 100.374 25.488 L 99.761 25.451 C 98.803 25.393 98.053 25.784 97.41 26.676 C 97.168 27.012 97.15 27.201 97.094 30.062 L 97.034 33.092 L 96.108 33.126 C 95.434 33.152 95.166 33.119 95.123 33.007 Z" fill="rgb(149,149,149)"></path><path d="M 85.792 22.499 C 85.693 22.458 85.643 22.16 85.643 21.617 C 85.643 20.678 85.704 20.628 86.784 20.697 L 87.372 20.734 L 87.372 21.625 L 87.372 22.516 L 86.656 22.539 C 86.263 22.551 85.874 22.534 85.792 22.499 Z" fill="rgb(149,149,149)"></path><path d="M 89.006 22.434 C 88.928 22.356 88.863 21.992 88.863 21.626 C 88.863 21.26 88.928 20.897 89.006 20.818 C 89.085 20.74 89.45 20.676 89.817 20.676 C 90.185 20.676 90.55 20.74 90.629 20.818 C 90.707 20.897 90.772 21.26 90.772 21.626 C 90.772 21.992 90.707 22.356 90.629 22.434 C 90.443 22.619 89.192 22.619 89.006 22.434 Z" fill="rgb(149,149,149)"></path><path d="M 24.214 11.706 C 25.041 11.28 25.459 10.283 25.459 8.736 C 25.459 7.569 25.296 6.925 24.849 6.33 C 24.454 5.803 23.986 5.587 23.236 5.587 C 21.692 5.588 20.982 6.58 20.982 8.736 C 20.982 10.339 21.343 11.219 22.184 11.664 C 22.693 11.934 23.73 11.955 24.214 11.706 Z M 22.037 13.537 C 20.961 13.285 19.766 12.379 19.287 11.452 C 18.914 10.732 18.719 9.795 18.722 8.736 C 18.726 6.934 19.164 5.834 20.275 4.84 C 22.08 3.223 25.416 3.573 26.824 5.526 C 27.469 6.42 27.703 7.254 27.708 8.676 C 27.715 10.693 27.111 12.03 25.792 12.921 C 24.834 13.567 23.263 13.825 22.037 13.537 Z" fill="rgb(149,149,149)"></path><path d="M 32.211 13.418 C 31.573 13.21 31.307 13.033 30.65 12.377 C 29.505 11.235 29.288 10.636 29.285 8.617 C 29.283 7.16 29.303 7.03 29.63 6.325 C 30.069 5.377 30.987 4.515 31.938 4.158 C 32.8 3.834 34.187 3.732 35.257 3.913 C 36.576 4.136 36.5 4.071 36.5 4.977 C 36.5 5.417 36.442 5.834 36.372 5.905 C 36.281 5.995 36.037 5.968 35.526 5.81 C 34.019 5.342 32.749 5.609 32.144 6.52 C 31.721 7.157 31.603 7.64 31.6 8.759 C 31.593 11.332 33.248 12.453 35.689 11.529 C 36.538 11.208 36.619 11.274 36.619 12.293 L 36.619 13.152 L 35.754 13.363 C 34.384 13.696 33.126 13.715 32.211 13.418 Z" fill="rgb(149,149,149)"></path><path d="M 50.421 13.473 C 48.977 13.165 49.024 13.207 49.024 12.196 C 49.024 11.553 49.068 11.298 49.19 11.252 C 49.281 11.217 49.697 11.326 50.114 11.495 C 50.579 11.683 51.197 11.823 51.711 11.857 C 52.49 11.908 52.578 11.888 52.934 11.59 C 53.221 11.35 53.318 11.171 53.318 10.884 C 53.318 10.36 53.013 10.107 51.588 9.451 C 50.922 9.144 50.191 8.707 49.934 8.462 C 48.999 7.572 48.782 6.472 49.326 5.386 C 49.998 4.042 51.594 3.554 53.974 3.963 L 54.809 4.106 L 54.843 4.887 C 54.889 5.897 54.796 5.979 53.853 5.758 C 52.612 5.467 51.549 5.562 51.262 5.991 C 51.214 6.062 51.173 6.266 51.172 6.442 C 51.17 6.836 51.669 7.242 52.602 7.605 C 54.647 8.401 55.465 9.283 55.465 10.695 C 55.465 11.643 55.268 12.074 54.534 12.731 C 53.542 13.619 52.22 13.858 50.421 13.473 Z" fill="rgb(149,149,149)"></path><path d="M 60.481 13.418 C 59.842 13.21 59.576 13.033 58.919 12.377 C 57.775 11.235 57.557 10.636 57.555 8.617 C 57.553 7.16 57.572 7.03 57.899 6.325 C 58.339 5.377 59.256 4.515 60.207 4.158 C 61.069 3.834 62.456 3.732 63.527 3.913 C 64.846 4.136 64.769 4.071 64.769 4.977 C 64.769 5.417 64.712 5.834 64.641 5.905 C 64.55 5.995 64.306 5.968 63.796 5.81 C 62.178 5.308 60.979 5.615 60.303 6.704 C 59.977 7.23 59.939 7.396 59.898 8.493 C 59.859 9.542 59.888 9.783 60.12 10.319 C 60.752 11.784 62.134 12.22 63.959 11.529 C 64.808 11.208 64.888 11.274 64.888 12.293 L 64.888 13.152 L 64.024 13.363 C 62.653 13.696 61.395 13.715 60.481 13.418 Z" fill="rgb(149,149,149)"></path><path d="M 79.276 13.498 C 78.668 13.273 78.039 12.665 77.729 12.002 C 77.496 11.505 77.476 11.22 77.434 7.926 C 77.381 3.76 77.337 3.922 78.535 3.925 C 78.934 3.926 79.342 3.977 79.441 4.039 C 79.591 4.134 79.629 4.723 79.679 7.731 L 79.739 11.311 L 80.02 11.538 C 80.606 12.009 81.515 11.737 82.444 10.812 L 83.138 10.12 L 83.138 7.208 C 83.138 3.802 83.097 3.923 84.261 3.923 C 85.473 3.923 85.404 3.633 85.404 8.75 C 85.404 12.008 85.368 13.18 85.261 13.285 C 85.071 13.475 83.471 13.475 83.281 13.285 C 83.203 13.207 83.138 12.961 83.138 12.738 L 83.138 12.334 L 82.697 12.72 C 81.782 13.52 80.266 13.865 79.276 13.498 Z" fill="rgb(149,149,149)"></path><path d="M 98.287 7.362 C 98.287 7.293 98.227 6.998 98.153 6.707 C 97.96 5.943 97.493 5.586 96.683 5.586 C 95.925 5.586 95.502 5.867 95.173 6.587 C 94.756 7.502 94.733 7.487 96.617 7.487 C 97.711 7.487 98.287 7.444 98.287 7.362 Z M 96.438 13.593 C 95.078 13.244 94.392 12.823 93.642 11.879 C 92.354 10.255 92.332 7.157 93.598 5.505 C 94.17 4.759 94.408 4.561 95.163 4.201 C 96.011 3.797 96.975 3.718 97.878 3.98 C 98.432 4.14 98.717 4.317 99.195 4.796 C 100.021 5.626 100.327 6.448 100.405 8.052 L 100.465 9.27 L 97.659 9.27 L 94.853 9.27 L 94.966 9.774 C 95.167 10.668 95.592 11.237 96.324 11.594 C 96.928 11.889 97.069 11.911 97.964 11.851 C 98.502 11.815 99.18 11.7 99.47 11.595 C 100.313 11.29 100.451 11.399 100.409 12.334 L 100.374 13.121 L 99.539 13.339 C 98.7 13.558 96.883 13.707 96.438 13.593 Z" fill="rgb(149,149,149)"></path><path d="M 6.823 13.284 C 6.616 13.079 6.616 1.062 6.823 0.857 C 7.013 0.667 8.613 0.667 8.803 0.857 C 8.905 0.958 8.946 1.693 8.946 3.411 L 8.946 5.823 L 11.57 5.823 L 14.194 5.823 L 14.194 3.391 C 14.194 1.109 14.208 0.952 14.425 0.837 C 14.771 0.652 16.165 0.681 16.328 0.876 C 16.425 0.993 16.454 2.749 16.432 7.203 L 16.401 13.367 L 15.465 13.402 C 14.878 13.424 14.467 13.386 14.362 13.299 C 14.227 13.187 14.194 12.632 14.194 10.442 L 14.194 7.724 L 11.57 7.724 L 8.946 7.724 L 8.946 10.503 C 8.946 12.928 8.922 13.292 8.757 13.355 C 8.417 13.485 6.971 13.432 6.823 13.284 Z" fill="rgb(149,149,149)"></path><path d="M 38.79 13.285 C 38.583 13.079 38.583 0.35 38.79 0.145 C 38.938 -0.003 40.383 -0.056 40.724 0.074 C 40.888 0.137 40.913 0.476 40.913 2.641 L 40.913 5.136 L 41.354 4.75 C 42.078 4.117 42.758 3.869 43.776 3.866 C 44.51 3.864 44.762 3.916 45.182 4.156 C 45.747 4.478 46.358 5.297 46.462 5.871 C 46.498 6.074 46.513 7.844 46.494 9.804 L 46.459 13.368 L 45.553 13.403 C 44.907 13.427 44.609 13.391 44.515 13.278 C 44.426 13.172 44.371 11.967 44.347 9.639 L 44.312 6.159 L 44.031 5.932 C 43.453 5.466 42.555 5.73 41.614 6.641 L 40.913 7.321 L 40.913 10.232 C 40.913 12.337 40.873 13.182 40.77 13.285 C 40.685 13.369 40.279 13.428 39.78 13.428 C 39.28 13.428 38.874 13.369 38.79 13.285 Z" fill="rgb(149,149,149)"></path><path d="M 67.059 13.284 C 66.853 13.079 66.853 0.35 67.059 0.144 C 67.249 -0.045 68.849 -0.045 69.039 0.144 C 69.141 0.245 69.182 0.984 69.182 2.711 L 69.182 5.135 L 69.624 4.749 C 70.347 4.116 71.027 3.868 72.045 3.865 C 72.777 3.863 73.032 3.915 73.445 4.151 C 73.957 4.443 74.415 4.996 74.684 5.645 C 74.897 6.16 74.989 13.008 74.786 13.252 C 74.594 13.483 72.969 13.499 72.781 13.273 C 72.697 13.172 72.64 11.902 72.617 9.638 L 72.582 6.158 L 72.3 5.931 C 71.723 5.466 70.824 5.73 69.884 6.64 L 69.182 7.32 L 69.182 10.231 C 69.182 12.337 69.143 13.181 69.039 13.284 C 68.955 13.369 68.549 13.427 68.049 13.427 C 67.549 13.427 67.144 13.369 67.059 13.284 Z" fill="rgb(149,149,149)"></path><path d="M 88.41 13.284 C 88.203 13.079 88.203 0.35 88.41 0.144 C 88.6 -0.045 90.2 -0.045 90.39 0.144 C 90.596 0.35 90.596 13.079 90.39 13.284 C 90.305 13.369 89.899 13.427 89.4 13.427 C 88.9 13.427 88.494 13.369 88.41 13.284 Z" fill="rgb(149,149,149)"></path></g></svg>