<svg xmlns="http://www.w3.org/2000/svg" xmlns:xlink="http://www.w3.org/1999/xlink" viewBox="0 0 137 48" overflow="visible"><g><path d="M 0 48 L 0 0 L 137 0 L 137 48 Z" fill="transparent"></path><path d="M 42.671 37.469 L 42.644 37.508 C 42.301 37.498 41.95 37.498 41.606 37.498 C 41.59 38.043 41.595 38.589 41.595 39.133 C 41.595 39.744 41.603 40.351 41.634 40.958 L 41.603 40.997 C 41.388 40.997 41.169 41.002 40.954 41.014 L 40.928 40.975 C 40.961 40.186 40.961 39.399 40.961 38.614 C 40.961 38.241 40.954 37.861 40.942 37.491 C 40.594 37.502 40.245 37.508 39.897 37.518 L 39.861 37.482 C 39.874 37.34 39.88 37.204 39.88 37.063 L 39.911 37.024 C 40.832 37.024 41.753 37.024 42.67 37.008 L 42.699 37.047 C 42.68 37.187 42.677 37.328 42.671 37.469 Z" fill="rgb(149,149,149)"></path><path d="M 48.358 40.997 C 48.145 40.997 47.937 41.002 47.722 41.012 L 47.688 40.972 C 47.706 40.484 47.716 39.987 47.716 39.499 L 47.716 39.09 C 47.542 39.079 47.362 39.079 47.187 39.079 C 46.748 39.079 46.316 39.079 45.876 39.095 L 45.876 39.584 C 45.876 40.038 45.897 40.499 45.922 40.957 L 45.887 40.997 C 45.672 40.997 45.464 41.002 45.252 41.013 L 45.217 40.972 C 45.239 40.495 45.252 40.012 45.252 39.534 C 45.252 38.719 45.267 37.873 45.21 37.064 L 45.245 37.023 C 45.452 37.018 45.666 37.014 45.876 37.006 L 45.903 37.046 C 45.887 37.514 45.881 37.973 45.881 38.442 L 45.881 38.611 C 46.106 38.622 46.327 38.622 46.551 38.622 L 46.888 38.622 C 47.171 38.622 47.447 38.617 47.722 38.611 C 47.701 38.093 47.713 37.581 47.679 37.064 L 47.713 37.023 C 47.919 37.018 48.123 37.018 48.331 37.006 L 48.364 37.046 C 48.349 37.62 48.336 38.196 48.336 38.767 L 48.336 39.342 C 48.336 39.882 48.349 40.423 48.393 40.957 Z" fill="rgb(149,149,149)"></path><path d="M 53.722 40.957 L 53.685 40.997 C 52.902 40.997 52.125 41.002 51.344 41.013 L 51.314 40.972 C 51.347 40.159 51.344 39.342 51.344 38.533 C 51.344 38.041 51.337 37.553 51.301 37.064 L 51.344 37.023 C 52.132 37.018 52.917 37.014 53.707 37.006 L 53.736 37.046 C 53.719 37.193 53.707 37.339 53.703 37.486 L 53.663 37.525 C 53.099 37.507 52.542 37.496 51.978 37.496 C 51.972 37.896 51.969 38.293 51.969 38.694 L 52.554 38.694 C 52.885 38.694 53.223 38.688 53.557 38.677 L 53.588 38.719 C 53.572 38.864 53.56 39.01 53.557 39.157 L 53.522 39.194 C 53.112 39.184 52.702 39.178 52.284 39.178 L 51.969 39.178 C 51.962 39.443 51.955 39.708 51.955 39.971 C 51.955 40.159 51.962 40.337 51.962 40.523 L 52.271 40.523 C 52.755 40.523 53.24 40.512 53.719 40.495 L 53.746 40.535 C 53.737 40.675 53.729 40.816 53.722 40.957 Z" fill="rgb(149,149,149)"></path><path d="M 60.271 41.082 C 59.914 41.082 59.482 41.002 59.167 40.833 L 59.151 40.794 C 59.167 40.618 59.178 40.451 59.19 40.275 L 59.253 40.254 C 59.549 40.484 59.854 40.579 60.232 40.579 C 60.642 40.579 61.063 40.416 61.063 39.944 C 61.063 39.079 59.151 39.336 59.151 38.025 C 59.151 37.252 59.826 36.938 60.512 36.938 C 60.869 36.938 61.188 37.002 61.52 37.124 L 61.555 37.164 C 61.53 37.327 61.52 37.496 61.508 37.659 L 61.457 37.687 C 61.155 37.517 60.878 37.424 60.527 37.424 C 60.186 37.424 59.77 37.564 59.77 37.974 C 59.77 38.797 61.73 38.532 61.73 39.881 C 61.73 40.709 61.001 41.082 60.271 41.082 Z" fill="rgb(149,149,149)"></path><path d="M 66.863 37.469 L 66.835 37.508 C 66.492 37.498 66.142 37.498 65.798 37.498 C 65.782 38.043 65.788 38.589 65.788 39.133 C 65.788 39.744 65.792 40.351 65.828 40.958 L 65.792 40.997 C 65.58 40.997 65.359 41.002 65.143 41.014 L 65.121 40.975 C 65.153 40.186 65.153 39.399 65.153 38.614 C 65.153 38.241 65.143 37.861 65.134 37.491 C 64.786 37.502 64.436 37.508 64.087 37.518 L 64.054 37.482 C 64.066 37.34 64.069 37.204 64.069 37.063 L 64.104 37.024 C 65.023 37.024 65.945 37.024 66.863 37.008 L 66.891 37.047 C 66.872 37.187 66.869 37.328 66.863 37.469 Z" fill="rgb(149,149,149)"></path><path d="M 72.086 40.992 C 71.867 40.992 71.654 41.002 71.435 41.009 L 71.394 40.969 C 71.288 40.576 71.175 40.182 71.063 39.787 C 70.824 39.782 70.593 39.775 70.358 39.775 C 70.128 39.775 69.891 39.782 69.66 39.787 C 69.544 40.171 69.434 40.559 69.329 40.947 L 69.29 40.986 C 69.099 40.992 68.898 40.992 68.707 41.002 L 68.686 40.965 C 68.934 40.231 69.189 39.501 69.44 38.769 C 69.64 38.203 69.834 37.643 69.999 37.065 L 70.041 37.024 C 70.314 37.019 70.577 37.019 70.846 37.008 L 70.885 37.047 C 71.271 38.354 71.694 39.646 72.108 40.947 Z M 70.392 37.434 L 69.804 39.331 C 69.985 39.331 70.179 39.338 70.364 39.338 C 70.556 39.338 70.741 39.331 70.934 39.331 Z" fill="rgb(149,149,149)"></path><path d="M 76.736 37.469 L 76.711 37.508 C 76.368 37.498 76.017 37.498 75.672 37.498 C 75.655 38.043 75.662 38.589 75.662 39.133 C 75.662 39.744 75.668 40.351 75.701 40.958 L 75.668 40.997 C 75.455 40.997 75.234 41.002 75.021 41.014 L 74.993 40.975 C 75.024 40.186 75.024 39.399 75.024 38.614 C 75.024 38.241 75.021 37.861 75.012 37.491 C 74.661 37.502 74.312 37.508 73.963 37.518 L 73.929 37.482 C 73.941 37.34 73.944 37.204 73.944 37.063 L 73.977 37.024 C 74.896 37.024 75.82 37.024 76.736 37.008 L 76.766 37.047 C 76.75 37.187 76.747 37.328 76.736 37.469 Z" fill="rgb(149,149,149)"></path><path d="M 81.693 40.957 L 81.654 40.997 C 80.87 40.997 80.091 41.002 79.311 41.013 L 79.283 40.972 C 79.314 40.159 79.311 39.342 79.311 38.533 C 79.311 38.041 79.305 37.553 79.27 37.064 L 79.311 37.023 C 80.101 37.018 80.887 37.014 81.676 37.006 L 81.704 37.046 C 81.685 37.193 81.676 37.339 81.671 37.486 L 81.632 37.525 C 81.068 37.507 80.511 37.496 79.947 37.496 C 79.941 37.896 79.936 38.293 79.936 38.694 L 80.52 38.694 C 80.856 38.694 81.19 38.688 81.522 38.677 L 81.557 38.719 C 81.541 38.864 81.528 39.01 81.522 39.157 L 81.49 39.194 C 81.079 39.184 80.668 39.178 80.251 39.178 L 79.936 39.178 C 79.93 39.443 79.925 39.708 79.925 39.971 C 79.925 40.159 79.93 40.337 79.93 40.523 L 80.242 40.523 C 80.724 40.523 81.209 40.512 81.685 40.495 L 81.717 40.535 C 81.704 40.675 81.698 40.816 81.693 40.957 Z" fill="rgb(149,149,149)"></path><path d="M 90.31 38.015 L 90.31 38.755 C 90.31 39.031 90.319 39.302 90.319 39.577 C 90.319 40.557 89.865 41.082 88.841 41.082 C 88.177 41.082 87.546 40.838 87.354 40.146 C 87.3 39.944 87.3 39.731 87.3 39.523 C 87.3 38.7 87.31 37.879 87.282 37.064 L 87.313 37.023 C 87.531 37.018 87.736 37.018 87.951 37.006 L 87.98 37.046 C 87.951 37.76 87.958 38.477 87.958 39.191 C 87.958 39.612 87.908 40.213 88.328 40.469 C 88.493 40.562 88.682 40.608 88.87 40.608 C 89.094 40.608 89.327 40.551 89.494 40.407 C 89.831 40.107 89.787 39.589 89.787 39.178 C 89.787 38.477 89.787 37.768 89.747 37.064 L 89.778 37.023 C 89.95 37.018 90.122 37.018 90.293 37.006 L 90.326 37.046 C 90.316 37.367 90.31 37.692 90.31 38.015 Z" fill="rgb(149,149,149)"></path><path d="M 96.402 40.998 C 96.172 40.998 95.942 41.002 95.709 41.013 L 95.665 40.973 C 95.337 40.377 94.996 39.793 94.662 39.201 L 93.773 37.615 L 93.829 39.544 C 93.838 40.018 93.854 40.485 93.878 40.957 L 93.851 40.998 C 93.671 40.998 93.485 41.002 93.303 41.013 L 93.27 40.973 C 93.303 40.23 93.3 39.487 93.3 38.744 C 93.3 38.197 93.303 37.609 93.269 37.064 L 93.293 37.023 C 93.535 37.018 93.776 37.018 94.019 37.006 L 94.083 37.046 C 94.679 38.146 95.304 39.234 95.924 40.328 C 95.893 39.24 95.884 38.146 95.827 37.064 L 95.861 37.023 C 96.04 37.023 96.217 37.018 96.394 37.006 L 96.431 37.046 C 96.431 37.873 96.411 38.694 96.411 39.517 C 96.411 40.001 96.417 40.48 96.431 40.957 Z" fill="rgb(149,149,149)"></path><path d="M 100.037 40.998 C 99.824 40.998 99.617 41.002 99.407 41.013 L 99.373 40.973 C 99.396 40.587 99.404 40.199 99.404 39.809 L 99.404 39.184 C 99.404 38.477 99.395 37.772 99.359 37.064 L 99.394 37.024 C 99.601 37.019 99.808 37.019 100.016 37.002 L 100.049 37.047 C 100.04 37.642 100.023 38.239 100.023 38.836 C 100.023 39.545 100.037 40.25 100.073 40.958 Z" fill="rgb(149,149,149)"></path><path d="M 105.27 39.004 C 105.066 39.657 104.842 40.298 104.656 40.959 L 104.622 40.998 C 104.353 40.998 104.077 41.002 103.808 41.012 L 103.767 40.974 C 103.715 40.81 103.679 40.643 103.626 40.478 C 103.541 40.181 103.451 39.89 103.361 39.59 C 103.109 38.744 102.849 37.903 102.585 37.062 L 102.618 37.023 C 102.835 37.018 103.052 37.018 103.266 37.006 L 103.305 37.046 C 103.611 38.233 103.943 39.414 104.271 40.599 L 104.769 38.831 C 104.942 38.245 105.086 37.649 105.252 37.062 L 105.286 37.023 C 105.474 37.018 105.668 37.018 105.85 37.006 L 105.878 37.046 C 105.658 37.694 105.48 38.353 105.27 39.004 Z" fill="rgb(149,149,149)"></path><path d="M 110.811 40.957 L 110.772 40.997 C 109.987 40.997 109.212 41.002 108.429 41.013 L 108.399 40.972 C 108.432 40.159 108.429 39.342 108.429 38.533 C 108.429 38.041 108.426 37.553 108.39 37.064 L 108.429 37.023 C 109.218 37.018 110.005 37.014 110.794 37.006 L 110.822 37.046 C 110.805 37.193 110.794 37.339 110.789 37.486 L 110.748 37.525 C 110.183 37.507 109.629 37.496 109.065 37.496 C 109.061 37.896 109.054 38.293 109.054 38.694 L 109.638 38.694 C 109.973 38.694 110.312 38.688 110.641 38.677 L 110.675 38.719 C 110.659 38.864 110.646 39.01 110.641 39.157 L 110.608 39.194 C 110.196 39.184 109.786 39.178 109.369 39.178 L 109.054 39.178 C 109.05 39.443 109.04 39.708 109.04 39.971 C 109.04 40.159 109.05 40.337 109.05 40.523 L 109.36 40.523 C 109.842 40.523 110.327 40.512 110.805 40.495 L 110.831 40.535 C 110.822 40.675 110.816 40.816 110.811 40.957 Z" fill="rgb(149,149,149)"></path><path d="M 116.481 41.002 C 116.249 41.002 116.021 41.008 115.79 41.024 L 115.748 41.002 C 115.566 40.683 115.366 40.383 115.163 40.079 C 114.989 39.815 114.824 39.557 114.638 39.304 C 114.503 39.304 114.364 39.308 114.229 39.308 C 114.229 39.86 114.245 40.406 114.273 40.957 L 114.239 40.998 C 114.029 40.998 113.828 41.002 113.618 41.013 L 113.587 40.974 C 113.603 40.423 113.609 39.877 113.609 39.325 C 113.609 38.572 113.599 37.818 113.552 37.064 L 113.587 37.023 C 113.821 37.023 114.055 37.014 114.288 37.014 L 114.633 37.014 C 115.406 37.014 116.227 37.13 116.227 38.097 C 116.227 38.695 115.816 39.062 115.268 39.208 C 115.679 39.788 116.073 40.378 116.51 40.947 Z M 115.432 37.693 C 115.219 37.464 114.875 37.469 114.583 37.469 C 114.466 37.469 114.339 37.474 114.223 37.48 C 114.217 37.622 114.217 37.772 114.217 37.913 L 114.217 38.397 C 114.217 38.549 114.217 38.695 114.223 38.847 C 114.308 38.847 114.386 38.853 114.47 38.853 C 114.943 38.853 115.601 38.77 115.601 38.146 C 115.601 37.983 115.548 37.818 115.432 37.693 Z" fill="rgb(149,149,149)"></path><path d="M 120.026 41.082 C 119.672 41.082 119.24 41.002 118.924 40.833 L 118.905 40.794 C 118.924 40.618 118.935 40.451 118.944 40.275 L 119.008 40.254 C 119.306 40.484 119.611 40.579 119.989 40.579 C 120.401 40.579 120.822 40.416 120.822 39.944 C 120.822 39.079 118.905 39.336 118.905 38.025 C 118.905 37.252 119.585 36.938 120.269 36.938 C 120.624 36.938 120.946 37.002 121.276 37.124 L 121.31 37.164 C 121.288 37.327 121.276 37.496 121.268 37.659 L 121.216 37.687 C 120.909 37.517 120.637 37.424 120.289 37.424 C 119.943 37.424 119.526 37.564 119.526 37.974 C 119.526 38.797 121.485 38.532 121.485 39.881 C 121.486 40.709 120.759 41.082 120.026 41.082 Z" fill="rgb(149,149,149)"></path><path d="M 124.906 40.998 C 124.696 40.998 124.486 41.002 124.281 41.013 L 124.248 40.973 C 124.267 40.587 124.274 40.199 124.274 39.809 L 124.274 39.184 C 124.274 38.477 124.264 37.772 124.229 37.064 L 124.263 37.024 C 124.47 37.019 124.678 37.019 124.886 37.002 L 124.921 37.047 C 124.908 37.642 124.891 38.239 124.891 38.836 C 124.891 39.545 124.905 40.25 124.943 40.958 Z" fill="rgb(149,149,149)"></path><path d="M 130.258 37.469 L 130.233 37.508 C 129.89 37.498 129.539 37.498 129.193 37.498 C 129.177 38.043 129.184 38.589 129.184 39.133 C 129.184 39.744 129.187 40.351 129.223 40.958 L 129.187 40.997 C 128.974 40.997 128.755 41.002 128.542 41.014 L 128.517 40.975 C 128.546 40.186 128.547 39.399 128.547 38.614 C 128.547 38.241 128.542 37.861 128.529 37.491 C 128.182 37.502 127.831 37.508 127.483 37.518 L 127.452 37.482 C 127.458 37.34 127.466 37.204 127.466 37.063 L 127.499 37.024 C 128.418 37.024 129.341 37.024 130.258 37.008 L 130.286 37.047 C 130.267 37.187 130.264 37.328 130.258 37.469 Z" fill="rgb(149,149,149)"></path><path d="M 134.466 39.318 C 134.457 39.459 134.457 39.6 134.457 39.741 C 134.457 40.144 134.457 40.553 134.488 40.958 L 134.457 40.995 C 134.25 40.995 134.043 41.001 133.834 41.007 L 133.805 40.968 C 133.818 40.625 133.821 40.282 133.821 39.936 L 133.821 39.365 C 133.424 38.592 133.016 37.835 132.583 37.082 L 132.612 37.022 C 132.833 37.013 133.046 37.005 133.267 36.984 L 133.306 37.013 C 133.474 37.342 133.627 37.683 133.787 38.014 C 133.918 38.279 134.066 38.537 134.19 38.804 C 134.504 38.232 134.805 37.648 135.084 37.057 L 135.126 37.022 C 135.315 37.022 135.497 37.017 135.682 37.005 L 135.715 37.05 C 135.287 37.8 134.847 38.55 134.466 39.318 Z" fill="rgb(149,149,149)"></path><path d="M 41.979 47.999 C 40.751 47.999 40.154 47.12 40.154 45.962 C 40.154 44.792 40.74 43.857 42.008 43.857 C 43.256 43.857 43.815 44.818 43.815 45.962 C 43.815 47.126 43.218 47.999 41.979 47.999 Z M 41.991 44.325 C 41.084 44.325 40.83 45.168 40.83 45.917 C 40.83 46.659 41.101 47.525 41.991 47.525 C 42.885 47.525 43.144 46.667 43.144 45.917 C 43.143 45.145 42.915 44.325 41.991 44.325 Z" fill="rgb(149,149,149)"></path><path d="M 48.912 44.409 L 48.878 44.45 C 48.349 44.425 47.824 44.425 47.293 44.421 C 47.288 44.841 47.285 45.265 47.285 45.686 C 47.75 45.681 48.214 45.675 48.681 45.659 L 48.709 45.691 C 48.696 45.843 48.685 45.991 48.668 46.144 L 48.634 46.181 C 48.189 46.164 47.739 46.164 47.293 46.16 C 47.293 46.265 47.288 46.366 47.288 46.476 C 47.288 46.94 47.293 47.41 47.328 47.877 L 47.298 47.916 C 47.081 47.916 46.864 47.921 46.648 47.933 L 46.62 47.892 C 46.642 47.343 46.651 46.791 46.651 46.237 L 46.651 45.625 C 46.651 45.079 46.642 44.526 46.62 43.983 L 46.648 43.943 C 47.4 43.943 48.161 43.943 48.915 43.926 L 48.945 43.965 C 48.928 44.11 48.921 44.262 48.912 44.409 Z" fill="rgb(149,149,149)"></path><path d="M 57.297 47.916 C 57.067 47.916 56.835 47.921 56.603 47.933 L 56.559 47.892 C 56.232 47.296 55.889 46.709 55.556 46.121 L 54.668 44.533 L 54.721 46.464 C 54.734 46.936 54.752 47.404 54.774 47.877 L 54.748 47.916 C 54.568 47.916 54.38 47.921 54.201 47.933 L 54.167 47.893 C 54.201 47.151 54.192 46.406 54.192 45.664 C 54.192 45.111 54.201 44.526 54.161 43.983 L 54.189 43.943 C 54.433 43.937 54.674 43.937 54.916 43.926 L 54.978 43.965 C 55.576 45.066 56.2 46.154 56.82 47.243 C 56.792 46.16 56.779 45.067 56.723 43.984 L 56.757 43.943 C 56.939 43.943 57.111 43.937 57.291 43.926 L 57.324 43.965 C 57.324 44.793 57.308 45.614 57.308 46.435 C 57.308 46.921 57.315 47.399 57.324 47.878 Z" fill="rgb(149,149,149)"></path><path d="M 62.676 47.877 L 62.634 47.916 C 61.852 47.916 61.076 47.921 60.293 47.933 L 60.265 47.892 C 60.297 47.079 60.293 46.26 60.293 45.451 C 60.293 44.961 60.287 44.473 60.252 43.983 L 60.293 43.943 C 61.082 43.937 61.868 43.932 62.657 43.926 L 62.685 43.965 C 62.67 44.11 62.657 44.258 62.654 44.404 L 62.614 44.442 C 62.05 44.426 61.492 44.416 60.929 44.416 C 60.922 44.816 60.919 45.213 60.919 45.614 L 61.505 45.614 C 61.835 45.614 62.173 45.608 62.506 45.599 L 62.538 45.637 C 62.523 45.782 62.513 45.928 62.506 46.074 L 62.473 46.114 C 62.059 46.103 61.652 46.096 61.234 46.096 L 60.919 46.096 C 60.913 46.362 60.907 46.627 60.907 46.891 C 60.907 47.079 60.913 47.257 60.913 47.442 L 61.221 47.442 C 61.708 47.442 62.19 47.429 62.67 47.415 L 62.696 47.456 C 62.685 47.595 62.681 47.736 62.676 47.877 Z" fill="rgb(149,149,149)"></path><path d="M 69.5 45.793 C 69.384 46.299 69.259 46.806 69.149 47.313 C 69.112 47.498 69.071 47.688 69.034 47.877 L 68.993 47.917 C 68.72 47.917 68.454 47.921 68.181 47.933 L 68.143 47.892 C 68.08 47.509 68.006 47.134 67.934 46.758 L 67.477 44.331 C 67.236 45.512 66.999 46.692 66.769 47.877 L 66.735 47.917 C 66.464 47.917 66.187 47.921 65.917 47.933 L 65.877 47.892 C 65.748 47.233 65.597 46.576 65.451 45.919 C 65.31 45.27 65.163 44.622 65.006 43.983 L 65.035 43.943 C 65.248 43.937 65.462 43.937 65.677 43.926 L 65.708 43.965 C 65.911 45.153 66.154 46.34 66.378 47.523 C 66.599 46.34 66.829 45.164 67.039 43.983 L 67.072 43.943 C 67.371 43.937 67.67 43.937 67.966 43.926 L 68.002 43.965 C 68.056 44.365 68.13 44.763 68.204 45.164 L 68.648 47.532 L 69.088 45.311 C 69.178 44.866 69.262 44.425 69.328 43.983 L 69.362 43.943 C 69.549 43.937 69.729 43.937 69.913 43.926 L 69.945 43.965 C 69.75 44.567 69.635 45.179 69.5 45.793 Z" fill="rgb(149,149,149)"></path><path d="M 76.405 45.365 C 76.405 45.855 76.417 46.34 76.417 46.828 C 76.417 47.539 76.131 47.952 75.362 47.952 C 75.224 47.952 75.089 47.932 74.948 47.903 L 74.92 47.858 L 74.92 47.424 L 74.951 47.393 C 75.061 47.424 75.161 47.442 75.274 47.442 C 75.532 47.442 75.678 47.324 75.753 47.071 C 75.786 46.958 75.781 46.462 75.781 46.329 L 75.781 45.911 C 75.781 45.27 75.769 44.622 75.744 43.982 L 75.777 43.943 C 75.983 43.943 76.195 43.935 76.405 43.926 L 76.433 43.966 C 76.424 44.432 76.405 44.9 76.405 45.365 Z" fill="rgb(149,149,149)"></path><path d="M 81.744 47.877 L 81.704 47.916 C 80.921 47.916 80.147 47.921 79.361 47.933 L 79.333 47.892 C 79.368 47.079 79.361 46.26 79.361 45.451 C 79.361 44.961 79.358 44.473 79.324 43.983 L 79.361 43.943 C 80.15 43.937 80.94 43.932 81.726 43.926 L 81.755 43.965 C 81.738 44.11 81.726 44.258 81.72 44.404 L 81.682 44.442 C 81.118 44.426 80.561 44.416 80 44.416 C 79.994 44.816 79.988 45.213 79.988 45.614 L 80.573 45.614 C 80.905 45.614 81.243 45.608 81.575 45.599 L 81.608 45.637 C 81.594 45.782 81.582 45.928 81.575 46.074 L 81.541 46.114 C 81.13 46.103 80.72 46.096 80.304 46.096 L 79.988 46.096 C 79.982 46.362 79.975 46.627 79.975 46.891 C 79.975 47.079 79.982 47.257 79.982 47.442 L 80.291 47.442 C 80.777 47.442 81.259 47.429 81.738 47.415 L 81.769 47.456 C 81.755 47.595 81.751 47.736 81.744 47.877 Z" fill="rgb(149,149,149)"></path><path d="M 87.416 47.92 C 87.185 47.92 86.953 47.926 86.721 47.943 L 86.683 47.92 C 86.505 47.6 86.301 47.302 86.094 46.997 C 85.922 46.733 85.76 46.476 85.573 46.221 C 85.436 46.221 85.296 46.224 85.164 46.224 C 85.164 46.779 85.179 47.324 85.208 47.876 L 85.172 47.917 C 84.964 47.917 84.763 47.92 84.554 47.932 L 84.521 47.892 C 84.538 47.342 84.541 46.793 84.541 46.241 C 84.541 45.49 84.532 44.735 84.485 43.983 L 84.521 43.943 C 84.757 43.943 84.988 43.932 85.224 43.932 L 85.569 43.932 C 86.337 43.932 87.159 44.049 87.159 45.016 C 87.159 45.614 86.752 45.981 86.203 46.125 C 86.615 46.705 87.009 47.296 87.441 47.866 Z M 86.367 44.612 C 86.154 44.38 85.81 44.388 85.517 44.388 C 85.399 44.388 85.274 44.393 85.155 44.399 C 85.149 44.543 85.149 44.689 85.149 44.829 L 85.149 45.314 C 85.149 45.466 85.149 45.613 85.155 45.765 C 85.241 45.765 85.321 45.77 85.406 45.77 C 85.879 45.77 86.535 45.685 86.535 45.066 C 86.535 44.903 86.48 44.735 86.367 44.612 Z" fill="rgb(149,149,149)"></path><path d="M 90.961 47.999 C 90.607 47.999 90.172 47.92 89.858 47.753 L 89.84 47.713 C 89.858 47.538 89.869 47.366 89.878 47.194 L 89.942 47.172 C 90.241 47.402 90.547 47.498 90.922 47.498 C 91.334 47.498 91.754 47.335 91.754 46.862 C 91.754 45.994 89.841 46.255 89.841 44.944 C 89.841 44.172 90.514 43.857 91.205 43.857 C 91.56 43.857 91.879 43.919 92.211 44.044 L 92.246 44.083 C 92.224 44.246 92.211 44.415 92.199 44.581 L 92.148 44.604 C 91.845 44.438 91.569 44.341 91.222 44.341 C 90.877 44.341 90.461 44.48 90.461 44.894 C 90.461 45.715 92.421 45.451 92.421 46.801 C 92.421 47.626 91.694 47.999 90.961 47.999 Z" fill="rgb(149,149,149)"></path><path d="M 97.585 47.877 L 97.542 47.916 C 96.759 47.916 95.984 47.921 95.2 47.933 L 95.173 47.892 C 95.207 47.079 95.2 46.26 95.2 45.451 C 95.2 44.961 95.195 44.473 95.161 43.983 L 95.2 43.943 C 95.99 43.937 96.776 43.932 97.566 43.926 L 97.594 43.965 C 97.575 44.11 97.566 44.258 97.558 44.404 L 97.519 44.442 C 96.956 44.426 96.401 44.416 95.837 44.416 C 95.831 44.816 95.825 45.213 95.825 45.614 L 96.41 45.614 C 96.745 45.614 97.079 45.608 97.414 45.599 L 97.447 45.637 C 97.431 45.782 97.42 45.928 97.414 46.074 L 97.381 46.114 C 96.968 46.103 96.559 46.096 96.141 46.096 L 95.825 46.096 C 95.82 46.362 95.814 46.627 95.814 46.891 C 95.814 47.079 95.82 47.257 95.82 47.442 L 96.128 47.442 C 96.613 47.442 97.099 47.429 97.575 47.415 L 97.606 47.456 C 97.594 47.595 97.588 47.736 97.585 47.877 Z" fill="rgb(149,149,149)"></path><path d="M 101.884 46.238 C 101.881 46.38 101.881 46.519 101.881 46.658 C 101.881 47.063 101.881 47.469 101.906 47.874 L 101.881 47.915 C 101.671 47.915 101.461 47.92 101.253 47.924 L 101.223 47.887 C 101.235 47.541 101.24 47.198 101.24 46.855 L 101.24 46.281 C 100.839 45.511 100.437 44.752 100.005 43.998 L 100.032 43.94 C 100.251 43.929 100.465 43.924 100.685 43.9 L 100.724 43.929 C 100.891 44.261 101.045 44.599 101.208 44.93 C 101.336 45.195 101.483 45.453 101.608 45.723 C 101.922 45.151 102.222 44.566 102.504 43.975 L 102.548 43.94 C 102.733 43.94 102.914 43.933 103.099 43.924 L 103.133 43.969 C 102.708 44.718 102.265 45.466 101.884 46.238 Z" fill="rgb(149,149,149)"></path><path d="M 40.558 25.992 L 41.517 25.704 L 41.517 9.591 C 41.517 5.692 41.517 5.532 42.763 5.404 L 43.915 5.308 L 43.915 4.619 L 36.147 4.619 L 36.147 5.308 L 37.298 5.404 C 38.543 5.532 38.543 5.692 38.543 9.591 L 38.543 22.571 C 38.064 23.146 36.084 25.126 32.759 25.126 C 27.806 25.126 27.037 22.091 27.037 17.52 L 27.037 9.591 C 27.037 5.69 27.037 5.532 28.284 5.404 L 29.433 5.308 L 29.433 4.619 L 21.666 4.619 L 21.666 5.308 L 22.819 5.404 C 24.066 5.532 24.066 5.69 24.066 9.591 L 24.066 18.03 C 24.066 22.377 24.607 26.184 31.224 26.184 C 35.477 26.184 38.13 24.171 38.576 24.171 C 39.057 24.17 39.31 24.616 39.76 25.063 Z" fill="rgb(149,149,149)"></path><path d="M 49.122 25.703 L 57.975 25.703 L 57.975 25.015 L 56.826 24.918 C 55.035 24.793 55.035 24.635 55.035 20.732 L 55.035 5.513 L 56.697 5.513 C 61.204 5.513 61.266 5.995 61.972 9.702 L 62.738 9.702 C 62.738 9.573 62.577 5.322 62.448 4.619 L 44.646 4.619 C 44.515 5.322 44.358 9.573 44.358 9.702 L 45.125 9.702 C 45.827 5.995 45.889 5.513 50.399 5.513 L 52.062 5.513 L 52.062 20.732 C 52.062 24.635 52.062 24.793 50.305 24.918 L 49.121 25.015 Z" fill="rgb(149,149,149)"></path><path d="M 82.415 21.498 C 82.415 18.387 82.415 18.227 83.022 18.1 L 84.175 18.005 L 84.175 17.316 L 76.056 17.316 L 76.056 18.005 L 77.207 18.1 C 79.443 18.227 79.443 18.387 79.443 22.298 L 79.443 24.712 C 78.322 24.998 76.854 25.125 75.704 25.125 C 69.439 25.125 66.659 20.064 66.659 14.618 C 66.659 8.643 69.951 5.194 75.19 5.194 C 80.658 5.194 81.071 9.092 81.393 10.37 L 82.257 10.176 C 82.116 8.602 81.948 6.814 81.744 5.449 C 80.913 4.939 78.484 4.141 75.224 4.141 C 70.173 4.141 63.302 6.694 63.302 15.226 C 63.302 23.366 69.055 26.183 75.478 26.183 C 78.898 26.183 81.347 25.261 82.477 24.907 C 82.477 24.907 82.415 22.458 82.415 21.498 Z" fill="rgb(149,149,149)"></path><path d="M 86.139 25.703 L 100.782 25.703 C 101.196 23.975 101.556 22.381 101.835 20.399 L 101.036 20.27 C 100.397 22.893 100.076 24.808 94.986 24.808 C 93.839 24.808 92.659 24.616 91.509 24.394 L 91.509 15.193 L 94.348 15.193 C 96.836 15.193 97.41 15.227 97.599 16.536 L 97.763 17.62 L 98.605 17.62 L 98.605 11.872 L 97.763 11.872 L 97.599 12.956 C 97.41 14.266 96.836 14.301 94.348 14.301 L 91.509 14.301 L 91.509 5.513 L 94.159 5.513 C 98.67 5.513 98.734 5.995 99.439 9.414 L 100.206 9.285 C 100.206 8.994 100.043 5.322 99.915 4.619 L 86.139 4.619 L 86.139 5.308 L 87.291 5.404 C 88.536 5.532 88.536 5.692 88.536 9.594 L 88.536 20.726 C 88.536 24.632 88.536 24.793 87.291 24.918 L 86.139 25.015 Z" fill="rgb(149,149,149)"></path><path d="M 104.339 25.015 L 105.489 24.918 C 106.735 24.793 106.735 24.633 106.735 20.729 L 106.735 9.594 C 106.735 5.692 106.735 5.532 105.489 5.404 L 104.339 5.308 L 104.339 4.619 L 112.682 4.619 C 115.715 4.619 119.996 5.057 119.996 9.914 C 119.996 12.891 117.345 14.648 115.585 15.481 C 116.066 16.374 117.121 18.425 117.986 19.96 C 119.326 22.359 120.735 24.247 121.534 24.698 C 121.853 24.89 122.428 25.015 123.131 25.015 L 123.131 25.703 L 120.671 25.703 C 118.561 25.703 117.092 24.28 116.132 22.521 L 114.854 20.054 C 114.023 18.488 113.29 17.271 112.876 16.921 C 112.36 16.504 111.563 16.504 110.894 16.504 L 109.709 16.504 L 109.709 20.729 C 109.709 24.633 109.709 24.793 110.921 24.918 L 112.075 25.015 L 112.075 25.703 L 104.339 25.703 Z M 109.709 15.608 L 111.53 15.608 C 114.214 15.608 116.644 14.171 116.644 10.562 C 116.644 6.824 114.185 5.675 111.689 5.675 C 111.019 5.675 110.349 5.801 109.709 5.929 Z" fill="rgb(149,149,149)"></path><path d="M 130.098 12.603 C 128.369 11.583 126.996 10.561 126.996 8.676 C 126.996 6.535 128.626 5.194 130.48 5.194 C 134.091 5.194 134.603 7.974 134.924 9.572 L 135.722 9.572 C 135.647 8.639 135.569 6.298 135.401 5.159 C 134.57 4.651 132.973 4.141 130.994 4.141 C 127.604 4.141 124.342 5.768 124.342 9.664 C 124.342 12.06 126.036 14.041 127.859 15.032 L 129.907 16.152 C 132.397 17.268 134.349 18.866 134.349 21.197 C 134.349 23.69 132.716 25.125 130.514 25.125 C 126.131 25.125 124.949 21.326 124.599 19.025 L 123.578 19.28 C 123.936 21.47 124.292 23.697 124.599 24.904 C 125.588 25.512 127.122 26.183 129.616 26.183 C 133.004 26.183 137 24.521 137 20.209 C 137 16.373 134.382 15.032 131.852 13.596 Z" fill="rgb(149,149,149)"></path><path d="M 14.319 13.53 C 14.681 15.555 17.506 20.755 18.588 22.688 C 21.035 27.199 27.307 36.325 32.003 36.034 L 32.543 36.035 L 32.538 36.776 L 31.715 36.802 C 25.081 37.061 19.154 29.678 15.706 23.756 C 14.303 21.348 12.944 18.552 11.733 16.041 C 11.43 15.394 11.051 14.981 10.626 14.724 C 9.973 14.376 9.118 14.383 8.414 14.383 C 8.005 14.378 6.788 14.383 6.156 14.383 L 6.152 19.705 C 6.152 20.685 6.077 23.107 6.344 24.06 C 6.552 24.811 7.009 24.908 7.762 24.988 L 9.062 25.094 L 9.062 25.698 L 0 25.698 L 0 25.094 L 1.301 24.988 C 2.073 24.908 2.538 24.814 2.751 24.06 C 3.024 23.116 2.949 20.678 2.949 19.705 L 2.949 6.012 C 2.949 5.043 3.024 2.602 2.751 1.659 C 2.538 0.905 2.073 0.812 1.301 0.732 L 0 0.624 L 0 0.021 L 6.177 0.021 C 11.617 0.023 18.956 -0.75 18.956 6.889 C 18.956 9.983 16.854 11.997 14.281 13.261 C 14.288 13.385 14.319 13.53 14.319 13.53 Z M 6.155 13.537 C 7.136 13.59 8.185 13.509 9.165 13.509 C 12.948 13.509 15.262 11.481 15.262 7.701 C 15.262 3.589 12.913 1.067 8.72 1.067 C 7.856 1.067 7.005 1.236 6.158 1.403 Z" fill="rgb(149,149,149)"></path></g></svg>