<svg xmlns="http://www.w3.org/2000/svg" xmlns:xlink="http://www.w3.org/1999/xlink" viewBox="0 0 190 48"><g><path d="M 0 48 L 0 0 L 190 0 L 190 48 Z" fill="transparent"></path><path d="M 190 0 L 0 0 L 0 48 L 190 48 Z" fill="rgb(149,149,149)"></path><path d="M 170.424 16.788 C 167.77 16.788 165.791 18.195 164.129 19.804 L 163.969 19.804 L 163.574 17.271 L 158.823 17.271 L 158.823 37.22 L 164.644 37.22 L 164.644 23.746 C 165.911 22.499 166.82 21.815 168.286 21.815 C 169.948 21.815 170.7 22.7 170.7 25.596 L 170.7 37.219 L 176.521 37.219 L 176.521 24.832 C 176.521 19.844 174.699 16.787 170.424 16.787" fill="rgb(255,255,255)"></path><path d="M 147.459 16.787 C 142.749 16.787 138.195 20.768 138.195 27.244 C 138.195 33.841 142.511 37.701 148.132 37.701 C 150.468 37.701 153.082 36.857 155.101 35.449 L 153.161 31.868 C 151.736 32.755 150.39 33.195 148.924 33.195 C 146.312 33.195 144.332 31.869 143.817 28.853 L 155.576 28.853 C 155.695 28.37 155.815 27.405 155.815 26.36 C 155.815 20.93 153.043 16.787 147.46 16.787 Z M 143.777 25.193 C 144.173 22.538 145.757 21.29 147.578 21.29 C 149.914 21.29 150.865 22.899 150.865 25.193 Z" fill="rgb(255,255,255)"></path><path d="M 131.37 25.274 C 129.35 24.511 127.529 24.026 127.529 22.74 C 127.529 21.735 128.242 21.171 129.746 21.171 C 131.131 21.171 132.477 21.815 133.902 22.861 L 136.516 19.322 C 134.814 18.035 132.597 16.787 129.588 16.787 C 125.034 16.787 122.064 19.322 122.064 23.021 C 122.064 26.32 124.876 27.968 127.252 28.894 C 129.27 29.698 131.25 30.302 131.25 31.629 C 131.25 32.675 130.498 33.318 128.756 33.318 C 127.093 33.318 125.471 32.594 123.688 31.227 L 121.075 34.926 C 123.054 36.576 126.025 37.702 128.598 37.702 C 133.864 37.702 136.675 34.889 136.675 31.268 C 136.675 27.606 133.864 26.199 131.37 25.274 Z" fill="rgb(255,255,255)"></path><path d="M 101.562 16.787 C 96.852 16.787 92.298 20.768 92.298 27.244 C 92.298 33.841 96.613 37.701 102.236 37.701 C 104.573 37.701 107.185 36.857 109.205 35.449 L 107.265 31.868 C 105.84 32.755 104.493 33.195 103.028 33.195 C 100.414 33.195 98.434 31.869 97.921 28.853 L 109.68 28.853 C 109.798 28.37 109.918 27.405 109.918 26.36 C 109.918 20.93 107.146 16.787 101.562 16.787 Z M 97.88 25.193 C 98.277 22.538 99.861 21.29 101.68 21.29 C 104.018 21.29 104.969 22.899 104.969 25.193 Z" fill="rgb(255,255,255)"></path><path d="M 83.436 16.788 C 80.783 16.788 78.805 18.195 77.142 19.804 L 76.983 19.804 L 76.587 17.271 L 71.836 17.271 L 71.836 37.22 L 77.657 37.22 L 77.657 23.746 C 78.924 22.499 79.834 21.815 81.299 21.815 C 82.963 21.815 83.714 22.7 83.714 25.596 L 83.714 37.219 L 89.534 37.219 L 89.534 24.832 C 89.534 19.844 87.713 16.787 83.436 16.787" fill="rgb(255,255,255)"></path><path d="M 61.621 20.769 L 61.462 20.769 L 61.065 17.271 L 56.315 17.271 L 56.315 37.22 L 62.136 37.22 L 62.136 25.636 C 63.165 22.943 64.986 21.976 66.451 21.976 C 67.107 21.976 67.672 22.039 68.438 22.25 L 69.428 17.155 C 68.874 16.915 68.177 16.787 67.204 16.787 C 65.184 16.787 63.047 18.073 61.621 20.769 Z" fill="rgb(255,255,255)"></path><path d="M 115.725 9.025 L 112.814 9.025 L 112.814 37.157 L 118.635 37.157 L 118.635 9.025 Z" fill="rgb(255,255,255)"></path><path d="M 43.481 16.787 C 37.517 16.787 33.523 21.026 33.523 27.207 C 33.523 33.306 37.717 37.786 43.481 37.786 C 49.525 37.786 53.439 33.546 53.439 27.207 C 53.439 21.228 49.245 16.787 43.481 16.787 Z M 43.481 32.971 C 40.698 32.971 39.178 30.84 39.178 27.205 C 39.178 23.652 40.738 21.562 43.481 21.562 C 46.224 21.562 47.784 23.571 47.784 27.207 C 47.784 30.8 46.264 32.971 43.481 32.971 Z" fill="rgb(255,255,255)"></path><path d="M 23.007 14.406 C 25.441 14.406 27.669 15.366 29.357 17.5 L 32.986 14.062 C 30.502 10.678 27.181 9.025 22.858 9.025 C 15.676 9.025 9.859 15.184 9.859 23.488 C 9.859 31.614 15.62 37.788 22.561 37.788 C 26.902 37.788 30.103 36.237 32.769 32.806 L 29.494 29.242 C 28.121 30.944 26.088 32.406 23.007 32.406 C 19.194 32.406 15.806 28.549 15.806 23.407 C 15.806 18.201 19.194 14.406 23.007 14.406 Z" fill="rgb(255,255,255)"></path></g></svg>