<svg xmlns="http://www.w3.org/2000/svg" xmlns:xlink="http://www.w3.org/1999/xlink" viewBox="0 0 253 48"><path d="M 199.575 33.8 L 203.075 33.8 L 201.326 29.615 Z M 203.33 34.369 L 199.32 34.369 L 198.848 35.489 C 198.537 36.229 198.381 36.685 198.381 36.851 C 198.381 36.958 198.412 37.034 198.469 37.081 C 198.525 37.126 198.672 37.164 198.91 37.192 L 199.575 37.268 L 199.575 37.707 C 199.132 37.674 198.632 37.657 198.075 37.657 C 197.409 37.657 196.824 37.674 196.32 37.707 L 196.32 37.268 L 196.528 37.261 C 196.853 37.252 197.061 37.219 197.156 37.161 C 197.251 37.103 197.353 36.96 197.459 36.732 C 197.786 36.066 198.123 35.344 198.466 34.571 L 200.374 30.241 C 200.883 29.094 201.231 28.258 201.416 27.739 L 201.888 27.739 L 205.399 35.921 C 205.636 36.476 205.792 36.811 205.873 36.924 C 205.951 37.039 206.041 37.119 206.142 37.167 C 206.245 37.216 206.472 37.25 206.83 37.269 L 206.83 37.707 C 206.228 37.674 205.654 37.657 205.108 37.657 C 204.598 37.657 203.92 37.674 203.075 37.707 L 203.075 37.269 L 203.762 37.226 C 204.006 37.209 204.153 37.183 204.198 37.15 C 204.269 37.1 204.301 37.034 204.301 36.955 C 204.301 36.872 204.233 36.654 204.096 36.303 Z M 192.432 28.448 C 192.382 29.143 192.356 29.876 192.356 30.645 L 192.356 34.606 C 192.356 36.08 192.394 36.891 192.467 37.043 C 192.541 37.192 192.806 37.268 193.259 37.268 L 193.779 37.268 L 193.779 37.707 C 192.96 37.674 192.266 37.657 191.698 37.657 C 191.123 37.657 190.434 37.674 189.629 37.707 L 189.629 37.268 L 190.212 37.268 C 190.517 37.268 190.716 37.228 190.809 37.147 C 190.901 37.064 190.958 36.908 190.982 36.671 C 191.029 36.127 191.05 35.43 191.05 34.571 L 191.05 30.602 C 191.05 29.819 191.036 29.103 191.003 28.448 L 190.295 28.448 C 189.153 28.448 188.522 28.474 188.407 28.528 C 188.29 28.58 188.214 28.79 188.178 29.15 L 188.079 30.082 L 187.644 30.082 L 187.658 29.254 C 187.658 28.92 187.63 28.441 187.574 27.817 C 190.072 27.847 191.54 27.864 191.981 27.864 L 195.819 27.817 C 195.732 28.599 195.68 29.354 195.669 30.082 L 195.237 30.082 L 195.168 29.171 C 195.14 28.856 195.1 28.669 195.05 28.612 C 194.998 28.554 194.886 28.516 194.709 28.505 C 194.199 28.467 193.621 28.448 192.974 28.448 Z M 179.805 33.8 L 183.306 33.8 L 181.557 29.615 Z M 183.561 34.369 L 179.55 34.369 L 179.078 35.489 C 178.768 36.229 178.612 36.685 178.612 36.851 C 178.612 36.958 178.642 37.034 178.699 37.081 C 178.756 37.126 178.903 37.164 179.139 37.192 L 179.805 37.268 L 179.805 37.707 C 179.363 37.674 178.862 37.657 178.306 37.657 C 177.64 37.657 177.055 37.674 176.551 37.707 L 176.551 37.268 L 176.759 37.261 C 177.083 37.252 177.292 37.219 177.386 37.161 C 177.481 37.103 177.583 36.96 177.69 36.732 C 178.017 36.066 178.353 35.344 178.697 34.571 L 180.604 30.242 C 181.114 29.094 181.462 28.258 181.646 27.739 L 182.118 27.739 L 185.63 35.921 C 185.866 36.476 186.023 36.811 186.103 36.924 C 186.182 37.039 186.271 37.119 186.373 37.167 C 186.475 37.216 186.703 37.25 187.06 37.269 L 187.06 37.707 C 186.458 37.674 185.885 37.657 185.338 37.657 C 184.828 37.657 184.151 37.674 183.306 37.707 L 183.306 37.269 L 183.993 37.226 C 184.236 37.209 184.383 37.184 184.429 37.15 C 184.499 37.1 184.532 37.034 184.532 36.955 C 184.532 36.872 184.464 36.654 184.326 36.303 Z M 170.679 37.024 C 171.132 37.048 171.575 37.06 172.004 37.06 C 172.876 37.06 173.556 37.036 174.046 36.991 C 174.387 36.953 174.743 36.886 175.107 36.789 L 175.525 35.154 L 175.975 35.154 C 175.858 36.03 175.769 36.849 175.705 37.608 C 175.288 37.678 174.719 37.712 173.996 37.712 L 170.693 37.657 C 170.248 37.657 169.556 37.684 168.618 37.733 L 168.618 37.366 C 168.988 37.205 169.205 37.029 169.274 36.843 C 169.341 36.659 169.373 35.926 169.373 34.642 L 169.373 30.818 C 169.373 29.428 169.341 28.655 169.274 28.493 C 169.205 28.334 169.019 28.253 168.708 28.253 L 167.95 28.253 L 167.95 27.817 C 169.052 27.847 169.784 27.864 170.144 27.864 C 170.625 27.864 171.279 27.847 172.101 27.817 L 172.101 28.253 L 171.241 28.253 C 170.997 28.253 170.84 28.325 170.776 28.464 C 170.71 28.606 170.679 29.195 170.679 30.227 L 170.679 34.654 L 170.701 36.616 L 170.679 37.024 Z M 160.206 25.698 C 160.163 26.579 160.142 27.518 160.142 28.513 L 160.142 33.751 C 160.142 35.592 160.197 36.622 160.307 36.842 C 160.416 37.064 160.776 37.174 161.389 37.174 L 162.02 37.174 L 162.02 37.752 C 160.939 37.709 160.088 37.687 159.463 37.687 C 158.915 37.687 157.94 37.709 156.543 37.752 L 156.543 37.174 L 157.368 37.174 C 157.753 37.174 157.999 37.127 158.109 37.032 C 158.219 36.935 158.287 36.745 158.318 36.453 C 158.349 36.162 158.384 35.273 158.418 33.789 L 158.418 28.889 L 158.393 26.992 C 158.381 26.203 158.297 25.721 158.14 25.542 C 157.984 25.364 157.605 25.276 156.999 25.276 L 156.543 25.276 L 156.543 24.7 C 157.305 24.728 158.275 24.744 159.447 24.744 C 160.135 24.744 160.901 24.725 161.745 24.691 C 162.302 24.666 162.721 24.653 163.009 24.653 C 164.487 24.653 165.563 24.922 166.232 25.461 C 166.898 25.999 167.233 26.726 167.233 27.643 C 167.233 28.31 167.039 28.948 166.654 29.566 C 166.27 30.179 165.725 30.674 165.019 31.047 C 164.316 31.419 163.562 31.607 162.761 31.607 C 162.396 31.607 161.936 31.547 161.389 31.431 L 161.204 30.733 C 161.742 30.874 162.189 30.946 162.552 30.946 C 163.393 30.946 164.062 30.689 164.557 30.179 C 165.053 29.669 165.3 28.971 165.3 28.084 C 165.3 27.227 165.034 26.56 164.506 26.078 C 163.978 25.598 163.193 25.357 162.148 25.357 C 161.554 25.357 160.907 25.474 160.206 25.698 Z M 147.109 37.023 C 147.561 37.047 148.004 37.059 148.433 37.059 C 149.305 37.059 149.985 37.035 150.476 36.99 C 150.817 36.952 151.172 36.886 151.537 36.789 L 151.954 35.154 L 152.404 35.154 C 152.288 36.029 152.198 36.848 152.134 37.607 C 151.717 37.677 151.148 37.711 150.426 37.711 L 147.123 37.656 C 146.678 37.656 145.986 37.683 145.048 37.733 L 145.048 37.365 C 145.417 37.204 145.635 37.028 145.704 36.842 C 145.77 36.658 145.804 35.925 145.804 34.641 L 145.804 30.817 C 145.804 29.427 145.77 28.654 145.704 28.492 C 145.635 28.333 145.448 28.252 145.137 28.252 L 144.38 28.252 L 144.38 27.816 C 145.481 27.846 146.213 27.863 146.573 27.863 C 147.055 27.863 147.708 27.846 148.531 27.816 L 148.531 28.252 L 147.67 28.252 C 147.427 28.252 147.27 28.324 147.206 28.464 C 147.14 28.605 147.109 29.194 147.109 30.226 L 147.109 34.653 L 147.13 36.615 L 147.109 37.023 Z M 138.494 32.986 L 138.494 34.689 L 138.501 35.669 C 138.501 36.281 138.508 36.726 138.522 37.011 C 139.198 37.061 139.923 37.087 140.695 37.087 C 141.214 37.087 141.648 37.064 142.001 37.016 C 142.225 36.99 142.468 36.928 142.721 36.836 C 142.837 36.428 142.956 35.92 143.077 35.308 L 143.541 35.308 C 143.416 36.321 143.354 36.999 143.354 37.336 L 143.368 37.649 C 142.835 37.702 142.311 37.725 141.799 37.725 L 140.709 37.706 C 139.506 37.673 138.622 37.656 138.058 37.656 C 137.516 37.656 136.795 37.673 135.897 37.706 L 135.897 37.267 L 136.113 37.267 C 136.516 37.267 136.769 37.227 136.874 37.149 C 136.978 37.071 137.046 36.885 137.082 36.594 C 137.118 36.302 137.134 35.657 137.134 34.66 L 137.134 30.846 C 137.134 30.219 137.12 29.706 137.089 29.308 C 137.059 28.909 137.025 28.673 136.992 28.596 C 136.956 28.521 136.907 28.461 136.843 28.419 C 136.776 28.378 136.577 28.34 136.246 28.31 L 135.71 28.252 L 135.71 27.82 L 136.461 27.82 L 137.196 27.842 C 137.608 27.856 137.921 27.863 138.134 27.863 L 140.8 27.828 L 142.063 27.82 C 142.493 27.818 142.927 27.835 143.368 27.877 C 143.192 28.423 143.093 29.135 143.077 30.01 L 142.602 30.01 C 142.602 29.5 142.579 29.078 142.526 28.739 C 141.982 28.535 141.311 28.433 140.515 28.433 C 139.88 28.433 139.217 28.461 138.522 28.515 C 138.527 28.952 138.522 29.389 138.508 29.823 L 138.494 30.893 L 138.494 32.304 C 138.951 32.333 139.357 32.348 139.709 32.348 C 140.811 32.348 141.434 32.31 141.579 32.231 C 141.726 32.155 141.799 31.918 141.799 31.519 L 141.799 31.069 L 142.271 31.069 C 142.237 31.768 142.221 32.326 142.221 32.743 C 142.221 33.183 142.237 33.702 142.271 34.299 L 141.799 34.299 L 141.799 33.896 C 141.799 33.453 141.712 33.18 141.539 33.08 C 141.366 32.98 140.752 32.93 139.702 32.93 C 139.314 32.93 138.911 32.949 138.494 32.986 Z M 127.38 36.976 C 128.005 37.069 128.555 37.113 129.032 37.113 C 130.328 37.113 131.334 36.781 132.052 36.114 C 132.917 35.303 133.35 34.122 133.35 32.567 C 133.35 31.215 132.99 30.186 132.27 29.476 C 131.55 28.767 130.498 28.413 129.11 28.413 C 128.624 28.413 128.046 28.461 127.38 28.558 C 127.325 29.004 127.297 29.507 127.297 30.074 L 127.297 34.62 C 127.297 35.457 127.325 36.242 127.38 36.976 Z M 125.88 37.011 C 125.956 36.293 125.992 35.038 125.992 33.244 L 125.992 31.228 C 125.992 30.401 125.965 29.692 125.909 29.095 C 125.875 28.746 125.832 28.544 125.781 28.49 C 125.726 28.433 125.537 28.383 125.208 28.336 L 124.653 28.252 L 124.653 27.816 C 125.416 27.837 125.93 27.849 126.193 27.849 L 128.06 27.835 L 129.581 27.809 C 130.192 27.799 130.818 27.858 131.462 27.989 C 132.104 28.117 132.687 28.378 133.211 28.77 C 133.734 29.161 134.132 29.652 134.405 30.243 C 134.678 30.836 134.815 31.517 134.815 32.291 C 134.815 33.856 134.289 35.151 133.234 36.176 C 132.182 37.201 130.806 37.711 129.109 37.711 L 128.254 37.692 C 127.418 37.659 126.887 37.642 126.665 37.642 C 126.29 37.642 125.814 37.671 125.236 37.725 L 125.236 37.393 Z M 116.768 32.687 C 117.221 33.341 117.782 34.1 118.453 34.966 L 119.787 36.698 C 120.024 36.994 120.18 37.163 120.258 37.206 C 120.336 37.246 120.419 37.267 120.503 37.267 L 120.682 37.267 L 120.682 37.706 C 120.298 37.673 119.962 37.656 119.675 37.656 C 119.413 37.656 119.135 37.673 118.844 37.706 L 116.384 34.382 C 115.927 33.771 115.437 33.173 114.913 32.589 L 114.984 32.354 C 115.251 32.376 115.451 32.388 115.581 32.388 C 116.353 32.388 116.958 32.188 117.396 31.789 C 117.832 31.391 118.052 30.859 118.052 30.193 C 118.052 29.595 117.865 29.128 117.495 28.791 C 117.126 28.457 116.591 28.288 115.891 28.288 C 115.406 28.288 114.918 28.378 114.427 28.558 C 114.373 29.296 114.345 30.084 114.345 30.921 L 114.345 34.278 C 114.345 35.915 114.385 36.821 114.463 36.999 C 114.541 37.177 114.794 37.267 115.226 37.267 L 115.769 37.267 L 115.769 37.706 C 114.998 37.673 114.364 37.656 113.858 37.656 C 113.46 37.656 112.74 37.673 111.7 37.706 L 111.7 37.267 L 112.221 37.267 C 112.619 37.267 112.854 37.179 112.928 37.007 C 113.003 36.833 113.039 35.92 113.039 34.264 L 113.039 30.922 C 113.039 29.486 112.996 28.682 112.911 28.511 C 112.826 28.338 112.546 28.252 112.075 28.252 L 111.7 28.252 L 111.7 27.808 C 112.561 27.844 113.217 27.863 113.672 27.863 C 113.978 27.863 114.416 27.851 114.991 27.828 C 115.657 27.806 116.136 27.794 116.427 27.794 C 117.228 27.794 117.834 27.877 118.249 28.048 C 118.664 28.217 118.979 28.461 119.192 28.782 C 119.408 29.101 119.517 29.484 119.517 29.927 C 119.517 30.582 119.281 31.159 118.811 31.659 C 118.341 32.16 117.659 32.501 116.768 32.687 Z M 103.758 33.799 L 107.258 33.799 L 105.509 29.614 Z M 107.514 34.368 L 103.503 34.368 L 103.031 35.488 C 102.721 36.229 102.564 36.684 102.564 36.85 C 102.564 36.957 102.595 37.033 102.652 37.08 C 102.709 37.125 102.856 37.163 103.092 37.192 L 103.758 37.267 L 103.758 37.706 C 103.315 37.673 102.815 37.656 102.259 37.656 C 101.593 37.656 101.008 37.673 100.504 37.706 L 100.504 37.267 L 100.711 37.261 C 101.036 37.251 101.245 37.218 101.339 37.161 C 101.434 37.102 101.536 36.959 101.643 36.732 C 101.97 36.065 102.306 35.344 102.65 34.57 L 104.557 30.241 C 105.066 29.093 105.415 28.257 105.599 27.738 L 106.071 27.738 L 109.583 35.92 C 109.819 36.475 109.976 36.81 110.056 36.924 C 110.134 37.038 110.224 37.118 110.326 37.166 C 110.428 37.215 110.656 37.249 111.013 37.268 L 111.013 37.706 C 110.411 37.673 109.838 37.656 109.291 37.656 C 108.781 37.656 108.104 37.673 107.258 37.706 L 107.258 37.268 L 107.945 37.225 C 108.189 37.208 108.336 37.183 108.381 37.149 C 108.452 37.099 108.485 37.033 108.485 36.954 C 108.485 36.871 108.416 36.653 108.279 36.302 Z M 96.213 26.678 L 93.494 32.348 C 92.472 34.477 91.636 36.333 90.983 37.924 L 90.617 37.924 C 90.388 37.379 89.741 35.982 88.672 33.732 L 85.395 26.934 L 85.395 34.026 C 85.395 35.676 85.461 36.615 85.592 36.837 C 85.724 37.06 86.13 37.173 86.815 37.173 L 87.152 37.173 L 87.152 37.752 C 86.305 37.708 85.614 37.685 85.083 37.685 C 84.698 37.685 83.932 37.708 82.785 37.752 L 82.785 37.173 L 83.378 37.173 C 83.782 37.173 84.051 37.113 84.185 36.997 C 84.32 36.881 84.401 36.671 84.432 36.364 C 84.51 35.51 84.551 34.586 84.551 33.594 L 84.551 28.403 C 84.551 27.151 84.523 26.32 84.47 25.917 C 84.445 25.711 84.354 25.55 84.198 25.441 C 84.044 25.332 83.732 25.275 83.269 25.275 L 82.785 25.275 L 82.785 24.699 C 83.847 24.74 84.513 24.761 84.788 24.761 C 85.138 24.761 85.633 24.74 86.274 24.699 C 87.012 26.343 87.865 28.155 88.828 30.137 L 91.239 35.1 L 93.465 30.504 C 94.247 28.894 95.138 26.96 96.138 24.699 C 96.901 24.74 97.439 24.761 97.752 24.761 C 98.111 24.761 98.762 24.74 99.703 24.699 L 99.703 25.275 L 99.106 25.275 C 98.571 25.275 98.243 25.369 98.121 25.554 C 98.002 25.742 97.943 26.412 97.943 27.57 L 97.943 34.273 C 97.943 35.767 98.005 36.621 98.13 36.841 C 98.255 37.063 98.605 37.173 99.18 37.173 L 99.703 37.173 L 99.703 37.752 C 98.852 37.708 98.043 37.685 97.267 37.685 C 96.411 37.685 95.516 37.708 94.581 37.752 L 94.581 37.173 L 95.188 37.173 C 95.669 37.173 95.96 37.066 96.06 36.856 C 96.163 36.643 96.213 35.739 96.213 34.135 Z M 66.886 27.142 L 67.06 27.275 C 66.841 28.198 66.594 29.325 66.315 30.663 L 65.491 34.601 C 65.36 35.273 65.279 35.748 65.246 36.027 C 65.239 36.115 65.234 36.205 65.234 36.299 C 65.234 36.523 65.298 36.634 65.43 36.634 C 65.606 36.634 65.974 36.411 66.539 35.965 L 66.615 35.984 L 66.684 36.146 L 66.663 36.237 C 66.232 36.613 65.805 36.935 65.387 37.205 C 64.967 37.471 64.67 37.605 64.494 37.605 C 64.396 37.605 64.315 37.553 64.253 37.448 C 64.191 37.343 64.158 37.185 64.158 36.976 C 64.158 36.804 64.194 36.544 64.26 36.199 C 64.327 35.851 64.453 35.297 64.634 34.539 L 64.599 34.532 C 64.096 35.379 63.498 36.103 62.803 36.704 C 62.108 37.305 61.565 37.605 61.175 37.605 C 61.034 37.605 60.915 37.557 60.817 37.46 C 60.72 37.362 60.641 37.181 60.582 36.921 C 60.52 36.661 60.489 36.384 60.489 36.096 C 60.489 35.7 60.556 35.195 60.684 34.58 C 60.815 33.967 60.98 33.435 61.179 32.985 C 61.379 32.536 61.58 32.198 61.777 31.969 C 61.975 31.74 62.239 31.514 62.568 31.292 C 62.899 31.068 63.184 30.908 63.422 30.811 C 63.663 30.71 63.908 30.663 64.158 30.663 C 64.429 30.663 64.82 30.72 65.332 30.837 L 65.693 28.722 C 65.732 28.544 65.749 28.395 65.749 28.274 C 65.749 28.171 65.713 28.1 65.641 28.057 C 65.57 28.016 65.441 27.995 65.253 27.995 L 64.667 27.988 L 64.613 27.931 L 64.634 27.757 L 64.689 27.695 C 65.558 27.554 66.291 27.37 66.886 27.142 Z M 65.198 31.64 C 64.76 31.412 64.31 31.299 63.846 31.299 C 63.558 31.299 63.322 31.33 63.144 31.393 C 62.965 31.457 62.829 31.533 62.739 31.626 C 62.649 31.719 62.529 31.921 62.384 32.232 C 62.237 32.542 62.094 32.921 61.956 33.369 C 61.815 33.819 61.708 34.261 61.629 34.696 C 61.553 35.131 61.515 35.553 61.515 35.957 C 61.515 36.208 61.541 36.382 61.592 36.48 C 61.644 36.578 61.722 36.628 61.83 36.628 C 62.006 36.628 62.258 36.525 62.582 36.32 C 63.075 36.003 63.517 35.581 63.908 35.05 C 64.299 34.518 64.591 33.953 64.787 33.352 C 64.874 33.078 65.013 32.506 65.198 31.64 Z M 71.979 35.922 L 72.056 36.096 L 72.041 36.187 C 70.898 37.157 69.927 37.641 69.132 37.641 C 68.872 37.641 68.608 37.57 68.336 37.427 C 68.067 37.286 67.868 37.081 67.734 36.816 C 67.601 36.551 67.534 36.21 67.534 35.796 C 67.534 35.214 67.632 34.594 67.825 33.936 C 68.017 33.276 68.21 32.789 68.403 32.475 C 68.596 32.16 68.886 31.865 69.272 31.588 C 69.658 31.311 70.025 31.087 70.37 30.918 C 70.718 30.749 71.053 30.663 71.379 30.663 C 71.732 30.663 72.019 30.756 72.244 30.942 C 72.467 31.128 72.579 31.388 72.579 31.717 C 72.579 32.096 72.472 32.444 72.258 32.761 C 72.044 33.081 71.653 33.383 71.086 33.667 C 70.517 33.951 69.839 34.184 69.049 34.365 L 68.72 34.442 C 68.627 34.887 68.582 35.262 68.582 35.56 C 68.582 35.977 68.675 36.311 68.861 36.559 C 69.046 36.804 69.308 36.928 69.641 36.928 C 70.27 36.928 71.022 36.582 71.901 35.893 Z M 68.77 34.098 C 69.258 34.01 69.722 33.872 70.16 33.684 C 70.601 33.495 70.939 33.242 71.172 32.93 C 71.408 32.615 71.524 32.296 71.524 31.969 C 71.524 31.717 71.462 31.531 71.336 31.409 C 71.21 31.29 71.06 31.228 70.884 31.228 C 70.689 31.228 70.458 31.285 70.196 31.397 C 69.934 31.507 69.701 31.712 69.498 32.01 C 69.296 32.308 69.053 33.004 68.77 34.098 Z" fill="rgb(149,149,149)"></path><path d="M 244.481 16.243 C 244.934 16.267 245.377 16.279 245.806 16.279 C 246.677 16.279 247.358 16.255 247.848 16.21 C 248.189 16.173 248.545 16.106 248.91 16.008 L 249.327 14.374 L 249.777 14.374 C 249.66 15.249 249.571 16.068 249.507 16.827 C 249.09 16.898 248.521 16.931 247.798 16.931 L 244.495 16.877 C 244.05 16.877 243.358 16.903 242.42 16.952 L 242.42 16.585 C 242.79 16.424 243.007 16.248 243.076 16.063 C 243.143 15.878 243.176 15.145 243.176 13.862 L 243.176 10.037 C 243.176 8.647 243.143 7.874 243.076 7.712 C 243.007 7.553 242.82 7.473 242.51 7.473 L 241.752 7.473 L 241.752 7.036 C 242.854 7.067 243.586 7.083 243.946 7.083 C 244.427 7.083 245.081 7.067 245.903 7.036 L 245.903 7.473 L 245.043 7.473 C 244.798 7.473 244.643 7.543 244.578 7.684 C 244.512 7.826 244.481 8.415 244.481 9.446 L 244.481 13.874 L 244.503 15.835 Z M 233.867 13.019 L 237.367 13.019 L 235.618 8.834 Z M 237.622 13.589 L 233.611 13.589 L 233.139 14.709 C 232.83 15.449 232.673 15.904 232.673 16.07 C 232.673 16.177 232.703 16.253 232.761 16.3 C 232.818 16.345 232.964 16.383 233.201 16.412 L 233.867 16.488 L 233.867 16.927 C 233.424 16.893 232.924 16.877 232.367 16.877 C 231.702 16.877 231.116 16.893 230.612 16.927 L 230.612 16.488 L 230.821 16.481 C 231.145 16.471 231.353 16.439 231.448 16.381 C 231.543 16.321 231.645 16.179 231.751 15.952 C 232.078 15.285 232.415 14.564 232.759 13.79 L 234.665 9.461 C 235.175 8.313 235.523 7.478 235.708 6.958 L 236.18 6.958 L 239.691 15.14 C 239.928 15.695 240.084 16.03 240.164 16.144 C 240.243 16.258 240.332 16.338 240.435 16.386 C 240.536 16.436 240.764 16.469 241.122 16.488 L 241.122 16.927 C 240.519 16.893 239.946 16.877 239.399 16.877 C 238.89 16.877 238.212 16.893 237.367 16.927 L 237.367 16.488 L 238.054 16.445 C 238.298 16.429 238.445 16.402 238.49 16.369 C 238.561 16.319 238.594 16.253 238.594 16.174 C 238.594 16.092 238.525 15.873 238.388 15.522 Z M 220.82 8.607 L 220.82 13.408 C 220.82 14.502 220.841 15.264 220.881 15.696 C 220.914 16.025 220.969 16.225 221.045 16.296 C 221.121 16.369 221.343 16.421 221.709 16.452 L 222.151 16.488 L 222.151 16.927 C 221.647 16.894 221.192 16.877 220.784 16.877 C 220.502 16.877 219.855 16.894 218.841 16.927 L 218.841 16.488 L 219.342 16.488 C 219.642 16.488 219.839 16.446 219.932 16.362 C 220.024 16.279 220.08 16.115 220.104 15.869 C 220.156 15.359 220.18 14.666 220.18 13.79 L 220.18 10.336 C 220.18 9.688 220.173 9.045 220.158 8.412 C 220.151 8.142 220.114 7.959 220.052 7.859 C 219.991 7.76 219.899 7.67 219.777 7.591 C 219.659 7.513 219.488 7.473 219.27 7.473 L 218.842 7.473 L 218.842 7.036 C 219.429 7.067 219.877 7.084 220.187 7.084 C 220.521 7.084 220.886 7.067 221.284 7.036 C 221.741 7.596 222.175 8.142 222.577 8.671 C 222.983 9.203 223.404 9.736 223.838 10.275 L 226.212 13.193 C 227.068 14.242 227.686 14.967 228.065 15.375 L 228.065 10.913 C 228.065 9.045 228.032 8.026 227.966 7.853 C 227.899 7.679 227.631 7.568 227.164 7.522 L 226.643 7.473 L 226.643 7.036 C 227.387 7.067 227.966 7.084 228.377 7.084 C 228.809 7.084 229.363 7.067 230.044 7.036 L 230.044 7.473 L 229.51 7.473 C 229.079 7.473 228.832 7.618 228.766 7.905 C 228.726 8.094 228.705 9.11 228.705 10.948 L 228.705 14.082 C 228.705 14.927 228.742 15.935 228.816 17.107 C 228.185 17.01 227.821 16.939 227.719 16.894 C 227.617 16.851 227.52 16.778 227.428 16.675 C 226.913 16.106 226.375 15.472 225.809 14.777 Z M 209.087 11.406 C 209.087 12.455 209.267 13.366 209.625 14.141 C 209.985 14.917 210.464 15.498 211.065 15.887 C 211.667 16.274 212.355 16.467 213.129 16.467 C 213.845 16.467 214.473 16.302 215.008 15.973 C 215.546 15.643 215.967 15.151 216.275 14.5 C 216.583 13.847 216.738 13.053 216.738 12.116 C 216.738 11.133 216.567 10.294 216.228 9.596 C 215.887 8.899 215.42 8.374 214.828 8.023 C 214.235 7.67 213.535 7.494 212.726 7.494 C 211.985 7.494 211.347 7.648 210.81 7.959 C 210.272 8.269 209.852 8.725 209.547 9.326 C 209.241 9.926 209.087 10.619 209.087 11.406 Z M 207.68 11.977 C 207.68 10.452 208.17 9.224 209.151 8.294 C 210.132 7.361 211.44 6.896 213.072 6.896 C 214.674 6.896 215.93 7.328 216.837 8.192 C 217.747 9.057 218.202 10.203 218.202 11.636 C 218.202 13.178 217.673 14.469 216.619 15.507 C 215.565 16.545 214.233 17.064 212.63 17.064 C 211.625 17.064 210.76 16.86 210.033 16.452 C 209.305 16.044 208.732 15.449 208.31 14.666 C 207.891 13.883 207.68 12.986 207.68 11.978 Z M 202.988 16.488 L 203.424 16.488 C 203.856 16.488 204.114 16.383 204.199 16.174 C 204.285 15.965 204.328 14.967 204.328 13.178 L 204.328 10.823 C 204.328 8.97 204.292 7.947 204.216 7.757 C 204.142 7.568 203.92 7.473 203.551 7.473 L 202.988 7.473 L 202.988 7.036 C 203.756 7.067 204.514 7.084 205.265 7.084 C 205.889 7.084 206.458 7.067 206.965 7.036 L 206.965 7.473 L 206.431 7.473 C 206.102 7.473 205.896 7.513 205.813 7.591 C 205.731 7.67 205.68 7.869 205.668 8.189 C 205.645 8.685 205.632 9.567 205.632 10.836 L 205.632 13.235 C 205.632 15.038 205.673 16.03 205.752 16.212 C 205.83 16.395 206.081 16.488 206.508 16.488 L 206.965 16.488 L 206.965 16.927 C 206.396 16.893 205.775 16.877 205.105 16.877 C 204.323 16.877 203.617 16.893 202.989 16.927 Z M 201.414 9.544 L 201.356 8.308 C 200.944 8.033 200.513 7.831 200.063 7.696 C 199.61 7.56 199.141 7.494 198.651 7.494 C 197.4 7.494 196.4 7.874 195.647 8.633 C 194.896 9.394 194.519 10.41 194.519 11.686 C 194.519 12.578 194.71 13.375 195.092 14.075 C 195.474 14.775 196.017 15.33 196.72 15.738 C 197.424 16.144 198.165 16.348 198.949 16.348 C 199.568 16.348 200.181 16.276 200.788 16.135 C 201.24 16.027 201.697 15.804 202.155 15.465 L 202.302 15.604 C 202.205 15.819 202.113 16.035 202.03 16.25 C 201.489 16.521 200.944 16.722 200.394 16.86 C 199.847 16.995 199.296 17.064 198.74 17.064 C 197.601 17.064 196.601 16.844 195.739 16.405 C 194.874 15.963 194.213 15.356 193.749 14.581 C 193.287 13.804 193.055 12.927 193.055 11.949 C 193.055 10.972 193.289 10.096 193.756 9.326 C 194.223 8.555 194.884 7.956 195.739 7.532 C 196.592 7.107 197.641 6.896 198.885 6.896 C 199.539 6.896 200.303 7.003 201.176 7.216 C 201.612 7.319 201.965 7.395 202.238 7.444 C 202.029 7.94 201.911 8.64 201.878 9.544 Z M 184.954 13.019 L 188.454 13.019 L 186.705 8.834 Z M 188.71 13.589 L 184.699 13.589 L 184.227 14.709 C 183.917 15.449 183.76 15.904 183.76 16.07 C 183.76 16.177 183.79 16.253 183.848 16.3 C 183.905 16.345 184.051 16.383 184.289 16.412 L 184.954 16.488 L 184.954 16.927 C 184.511 16.893 184.011 16.877 183.454 16.877 C 182.788 16.877 182.204 16.893 181.699 16.927 L 181.699 16.488 L 181.908 16.481 C 182.232 16.471 182.44 16.439 182.536 16.381 C 182.63 16.321 182.732 16.179 182.839 15.952 C 183.165 15.285 183.502 14.564 183.845 13.79 L 185.753 9.461 C 186.262 8.313 186.61 7.478 186.795 6.958 L 187.267 6.958 L 190.778 15.14 C 191.015 15.695 191.171 16.03 191.252 16.144 C 191.33 16.258 191.419 16.338 191.522 16.386 C 191.624 16.436 191.851 16.469 192.209 16.488 L 192.209 16.927 C 191.607 16.893 191.034 16.877 190.487 16.877 C 189.977 16.877 189.299 16.893 188.454 16.927 L 188.454 16.488 L 189.141 16.445 C 189.385 16.429 189.532 16.402 189.577 16.369 C 189.648 16.319 189.681 16.253 189.681 16.174 C 189.681 16.092 189.612 15.873 189.475 15.522 Z M 168.817 5.872 L 168.817 12.209 C 168.817 13.652 168.845 14.657 168.898 15.227 C 168.942 15.662 169.014 15.925 169.114 16.018 C 169.214 16.116 169.508 16.185 169.99 16.226 L 170.574 16.273 L 170.574 16.852 C 169.908 16.808 169.308 16.785 168.77 16.785 C 168.398 16.785 167.545 16.808 166.207 16.852 L 166.207 16.273 L 166.866 16.273 C 167.263 16.273 167.523 16.216 167.644 16.107 C 167.767 15.996 167.842 15.78 167.873 15.455 C 167.941 14.782 167.972 13.867 167.972 12.713 L 167.972 8.154 C 167.972 7.299 167.963 6.451 167.944 5.614 C 167.935 5.258 167.886 5.017 167.804 4.885 C 167.723 4.754 167.601 4.635 167.441 4.532 C 167.285 4.428 167.06 4.375 166.772 4.375 L 166.207 4.375 L 166.207 3.799 C 166.982 3.839 167.573 3.861 167.982 3.861 C 168.423 3.861 168.904 3.839 169.43 3.799 C 170.033 4.538 170.606 5.258 171.137 5.955 C 171.672 6.657 172.229 7.361 172.8 8.072 L 175.933 11.924 C 177.062 13.308 177.878 14.265 178.379 14.804 L 178.379 8.914 C 178.379 6.451 178.334 5.105 178.247 4.876 C 178.159 4.648 177.807 4.501 177.191 4.441 L 176.502 4.375 L 176.502 3.799 C 177.484 3.84 178.247 3.861 178.791 3.861 C 179.36 3.861 180.092 3.84 180.989 3.799 L 180.989 4.375 L 180.285 4.375 C 179.717 4.375 179.391 4.566 179.304 4.945 C 179.251 5.195 179.223 6.536 179.223 8.962 L 179.223 13.098 C 179.223 14.212 179.273 15.543 179.37 17.089 C 178.538 16.961 178.057 16.867 177.922 16.808 C 177.788 16.751 177.659 16.654 177.537 16.52 C 176.859 15.768 176.149 14.932 175.402 14.015 Z M 154.464 16.48 C 155.09 16.573 155.64 16.618 156.116 16.618 C 157.412 16.618 158.418 16.286 159.136 15.619 C 160.001 14.808 160.435 13.626 160.435 12.073 C 160.435 10.72 160.075 9.691 159.354 8.982 C 158.634 8.272 157.582 7.919 156.193 7.919 C 155.708 7.919 155.129 7.966 154.464 8.063 C 154.41 8.509 154.381 9.012 154.381 9.579 L 154.381 14.124 C 154.381 14.962 154.41 15.748 154.464 16.48 Z M 152.965 16.516 C 153.04 15.797 153.076 14.542 153.076 12.749 L 153.076 10.732 C 153.076 9.907 153.05 9.197 152.993 8.599 C 152.959 8.25 152.917 8.049 152.865 7.994 C 152.811 7.938 152.621 7.888 152.292 7.84 L 151.737 7.757 L 151.737 7.321 C 152.5 7.343 153.015 7.354 153.277 7.354 L 155.144 7.34 L 156.666 7.314 C 157.276 7.305 157.902 7.364 158.547 7.494 C 159.188 7.622 159.771 7.883 160.295 8.274 C 160.818 8.666 161.216 9.157 161.489 9.748 C 161.762 10.341 161.899 11.021 161.899 11.795 C 161.899 13.361 161.373 14.657 160.319 15.681 C 159.267 16.706 157.89 17.216 156.194 17.216 L 155.339 17.197 C 154.502 17.164 153.971 17.148 153.749 17.148 C 153.375 17.148 152.898 17.175 152.321 17.231 L 152.321 16.898 Z M 143.893 13.304 L 147.392 13.304 L 145.643 9.119 Z M 147.648 13.874 L 143.637 13.874 L 143.165 14.993 C 142.855 15.733 142.699 16.189 142.699 16.355 C 142.699 16.461 142.729 16.537 142.786 16.584 C 142.843 16.63 142.99 16.668 143.227 16.696 L 143.893 16.772 L 143.893 17.211 C 143.449 17.178 142.95 17.161 142.393 17.161 C 141.728 17.161 141.142 17.178 140.637 17.211 L 140.637 16.772 L 140.846 16.765 C 141.17 16.756 141.379 16.722 141.474 16.665 C 141.568 16.606 141.67 16.464 141.777 16.236 C 142.104 15.569 142.441 14.848 142.784 14.075 L 144.692 9.745 C 145.2 8.597 145.549 7.762 145.734 7.243 L 146.205 7.243 L 149.716 15.425 C 149.953 15.98 150.11 16.314 150.191 16.429 C 150.269 16.542 150.358 16.623 150.461 16.67 C 150.562 16.72 150.79 16.753 151.147 16.772 L 151.147 17.212 C 150.546 17.178 149.972 17.162 149.425 17.162 C 148.915 17.162 148.238 17.178 147.392 17.212 L 147.392 16.772 L 148.079 16.73 C 148.324 16.713 148.47 16.687 148.515 16.653 C 148.586 16.604 148.62 16.537 148.62 16.459 C 148.62 16.376 148.55 16.158 148.413 15.807 Z M 132.404 16.48 C 133.03 16.573 133.579 16.618 134.056 16.618 C 135.352 16.618 136.358 16.286 137.076 15.619 C 137.941 14.807 138.374 13.626 138.374 12.073 C 138.374 10.72 138.015 9.691 137.294 8.981 C 136.574 8.272 135.522 7.918 134.134 7.918 C 133.648 7.918 133.07 7.966 132.404 8.063 C 132.349 8.509 132.322 9.012 132.322 9.579 L 132.322 14.124 C 132.322 14.962 132.349 15.748 132.404 16.48 Z M 130.905 16.516 C 130.98 15.797 131.015 14.542 131.015 12.749 L 131.015 10.732 C 131.015 9.907 130.99 9.197 130.933 8.599 C 130.899 8.25 130.857 8.049 130.805 7.994 C 130.75 7.937 130.561 7.887 130.232 7.84 L 129.677 7.757 L 129.677 7.321 C 130.44 7.342 130.955 7.354 131.217 7.354 L 133.084 7.34 L 134.605 7.314 C 135.216 7.304 135.842 7.364 136.486 7.494 C 137.129 7.622 137.711 7.883 138.235 8.274 C 138.759 8.666 139.157 9.157 139.429 9.748 C 139.701 10.341 139.839 11.021 139.839 11.795 C 139.839 13.361 139.313 14.657 138.258 15.681 C 137.207 16.706 135.83 17.216 134.134 17.216 L 133.279 17.197 C 132.442 17.164 131.912 17.148 131.689 17.148 C 131.314 17.148 130.839 17.175 130.26 17.23 L 130.26 16.898 Z M 125 16.772 L 125.437 16.772 C 125.867 16.772 126.126 16.667 126.211 16.459 C 126.296 16.25 126.339 15.251 126.339 13.462 L 126.339 11.107 C 126.339 9.254 126.303 8.231 126.228 8.042 C 126.155 7.852 125.932 7.757 125.562 7.757 L 125 7.757 L 125 7.321 C 125.768 7.352 126.526 7.368 127.277 7.368 C 127.901 7.368 128.469 7.352 128.976 7.321 L 128.976 7.757 L 128.443 7.757 C 128.113 7.757 127.907 7.798 127.824 7.875 C 127.742 7.954 127.692 8.153 127.68 8.474 C 127.656 8.969 127.644 9.852 127.644 11.121 L 127.644 13.52 C 127.644 15.322 127.685 16.314 127.763 16.497 C 127.841 16.679 128.092 16.772 128.519 16.772 L 128.976 16.772 L 128.976 17.211 C 128.408 17.178 127.786 17.161 127.116 17.161 C 126.334 17.161 125.628 17.178 125 17.211 Z M 123.78 7.786 C 123.65 8.267 123.581 8.906 123.572 9.702 L 123.091 9.702 L 123.091 9.147 C 123.091 8.787 123.043 8.54 122.946 8.412 C 122.85 8.281 122.596 8.144 122.186 7.996 C 121.777 7.852 121.345 7.778 120.892 7.778 C 120.151 7.778 119.57 7.965 119.146 8.34 C 118.722 8.715 118.511 9.2 118.511 9.788 C 118.511 10.158 118.596 10.476 118.772 10.742 C 118.945 11.01 119.18 11.202 119.473 11.32 C 119.767 11.436 120.39 11.541 121.342 11.629 C 122.297 11.722 122.942 11.845 123.276 11.996 C 123.612 12.151 123.88 12.395 124.081 12.734 C 124.283 13.071 124.383 13.472 124.383 13.937 C 124.383 14.867 123.994 15.669 123.217 16.34 C 122.439 17.014 121.404 17.349 120.108 17.349 C 119.662 17.349 119.215 17.303 118.764 17.214 C 118.312 17.124 117.857 16.99 117.4 16.815 C 117.483 16.258 117.523 15.543 117.519 14.673 L 117.989 14.673 L 117.989 15.022 C 117.989 15.47 118.014 15.748 118.058 15.854 C 118.106 15.961 118.215 16.075 118.386 16.195 C 118.642 16.376 118.943 16.514 119.295 16.608 C 119.646 16.703 120.028 16.751 120.433 16.751 C 121.309 16.751 121.985 16.545 122.461 16.132 C 122.937 15.721 123.176 15.197 123.176 14.561 C 123.176 14.191 123.093 13.878 122.932 13.619 C 122.771 13.363 122.544 13.171 122.252 13.047 C 121.961 12.922 121.421 12.827 120.634 12.761 C 119.589 12.677 118.878 12.554 118.504 12.386 C 118.13 12.219 117.836 11.956 117.622 11.598 C 117.41 11.237 117.302 10.792 117.302 10.26 C 117.302 9.356 117.63 8.616 118.281 8.042 C 118.935 7.468 119.836 7.18 120.99 7.18 C 121.451 7.18 121.916 7.23 122.38 7.33 C 122.845 7.43 123.311 7.581 123.78 7.786 Z M 114.782 14.47 L 116.116 16.203 C 116.353 16.499 116.509 16.667 116.587 16.711 C 116.666 16.751 116.749 16.772 116.832 16.772 L 117.012 16.772 L 117.012 17.211 C 116.627 17.178 116.291 17.161 116.005 17.161 C 115.742 17.161 115.464 17.178 115.173 17.211 L 112.714 13.887 C 112.256 13.275 111.766 12.677 111.243 12.094 L 111.314 11.859 C 111.582 11.88 111.78 11.892 111.911 11.892 C 112.683 11.892 113.287 11.693 113.725 11.295 C 114.161 10.895 114.381 10.364 114.381 9.697 C 114.381 9.1 114.195 8.632 113.825 8.295 C 113.455 7.961 112.92 7.793 112.22 7.793 C 111.735 7.793 111.247 7.883 110.757 8.063 C 110.702 8.801 110.674 9.588 110.674 10.426 L 110.674 13.783 C 110.674 15.42 110.714 16.326 110.792 16.504 C 110.87 16.682 111.124 16.772 111.555 16.772 L 112.098 16.772 L 112.098 17.211 C 111.328 17.178 110.693 17.162 110.188 17.162 C 109.79 17.162 109.07 17.178 108.03 17.211 L 108.03 16.772 L 108.551 16.772 C 108.949 16.772 109.184 16.684 109.257 16.511 C 109.333 16.338 109.368 15.425 109.368 13.769 L 109.368 10.426 C 109.368 8.991 109.326 8.187 109.24 8.016 C 109.155 7.843 108.876 7.757 108.404 7.757 L 108.03 7.757 L 108.03 7.314 C 108.89 7.35 109.546 7.369 110.001 7.369 C 110.307 7.369 110.745 7.356 111.321 7.333 C 111.987 7.312 112.465 7.3 112.757 7.3 C 113.557 7.3 114.164 7.383 114.579 7.553 C 114.993 7.722 115.308 7.966 115.521 8.286 C 115.737 8.607 115.846 8.989 115.846 9.432 C 115.846 10.087 115.612 10.664 115.14 11.164 C 114.671 11.665 113.989 12.006 113.097 12.191 C 113.55 12.846 114.111 13.605 114.782 14.47 Z M 102.087 12.49 L 102.087 14.194 L 102.095 15.173 C 102.095 15.785 102.102 16.231 102.116 16.516 C 102.791 16.566 103.516 16.592 104.289 16.592 C 104.808 16.592 105.241 16.568 105.594 16.521 C 105.819 16.495 106.061 16.433 106.314 16.34 C 106.43 15.932 106.549 15.425 106.669 14.813 L 107.134 14.813 C 107.009 15.826 106.947 16.504 106.947 16.841 L 106.961 17.154 C 106.428 17.206 105.904 17.23 105.393 17.23 L 104.303 17.211 C 103.099 17.178 102.215 17.161 101.651 17.161 C 101.109 17.161 100.389 17.178 99.49 17.211 L 99.49 16.772 L 99.706 16.772 C 100.109 16.772 100.363 16.732 100.467 16.653 C 100.571 16.575 100.64 16.39 100.676 16.098 C 100.711 15.807 100.728 15.161 100.728 14.165 L 100.728 10.35 C 100.728 9.724 100.714 9.211 100.683 8.813 C 100.652 8.414 100.619 8.177 100.585 8.101 C 100.55 8.025 100.5 7.965 100.436 7.923 C 100.37 7.883 100.171 7.845 99.839 7.814 L 99.304 7.757 L 99.304 7.326 L 100.055 7.326 L 100.789 7.347 C 101.201 7.361 101.514 7.368 101.727 7.368 L 104.393 7.332 L 105.655 7.326 C 106.087 7.323 106.521 7.34 106.961 7.382 C 106.786 7.927 106.686 8.639 106.669 9.515 L 106.196 9.515 C 106.196 9.005 106.172 8.583 106.12 8.243 C 105.575 8.039 104.905 7.937 104.108 7.937 C 103.474 7.937 102.81 7.965 102.116 8.02 C 102.121 8.457 102.116 8.893 102.102 9.327 L 102.087 10.397 L 102.087 11.809 C 102.544 11.838 102.95 11.852 103.303 11.852 C 104.404 11.852 105.028 11.814 105.172 11.736 C 105.319 11.66 105.393 11.423 105.393 11.024 L 105.393 10.573 L 105.864 10.573 C 105.831 11.273 105.814 11.83 105.814 12.248 C 105.814 12.686 105.831 13.207 105.864 13.804 L 105.393 13.804 L 105.393 13.4 C 105.393 12.958 105.305 12.684 105.132 12.585 C 104.959 12.485 104.346 12.436 103.296 12.436 C 102.907 12.436 102.505 12.455 102.087 12.49 Z M 93.473 17.32 C 93.264 16.701 93.054 16.12 92.835 15.576 L 90.35 9.356 C 89.995 8.457 89.786 7.965 89.724 7.883 C 89.665 7.8 89.466 7.757 89.127 7.757 L 88.844 7.757 L 88.844 7.32 C 89.571 7.351 90.189 7.368 90.695 7.368 C 91.234 7.368 91.878 7.351 92.627 7.32 L 92.627 7.819 L 91.94 7.819 C 91.703 7.819 91.551 7.842 91.482 7.885 C 91.411 7.93 91.378 7.999 91.378 8.092 C 91.378 8.151 91.388 8.217 91.411 8.293 L 92.314 10.678 L 94.188 15.465 L 96.015 10.898 C 96.629 9.346 96.937 8.438 96.937 8.174 C 96.937 7.961 96.811 7.849 96.555 7.84 L 96.271 7.819 L 95.674 7.757 L 95.674 7.32 C 96.29 7.351 96.797 7.368 97.195 7.368 C 97.609 7.368 98.133 7.351 98.763 7.32 L 98.763 7.757 L 98.486 7.757 C 98.264 7.757 98.102 7.809 98.003 7.913 C 97.903 8.018 97.723 8.388 97.465 9.021 L 95.126 14.741 C 94.686 15.818 94.373 16.677 94.188 17.32 Z M 84.306 16.772 L 84.742 16.772 C 85.174 16.772 85.432 16.667 85.517 16.459 C 85.602 16.25 85.645 15.251 85.645 13.462 L 85.645 11.107 C 85.645 9.254 85.61 8.231 85.533 8.042 C 85.46 7.852 85.237 7.757 84.867 7.757 L 84.306 7.757 L 84.306 7.32 C 85.074 7.351 85.832 7.368 86.583 7.368 C 87.206 7.368 87.775 7.351 88.282 7.32 L 88.282 7.757 L 87.749 7.757 C 87.419 7.757 87.214 7.798 87.131 7.875 C 87.047 7.954 86.998 8.153 86.986 8.474 C 86.962 8.969 86.95 9.852 86.95 11.121 L 86.95 13.52 C 86.95 15.322 86.991 16.314 87.069 16.497 C 87.147 16.679 87.398 16.772 87.824 16.772 L 88.282 16.772 L 88.282 17.211 C 87.713 17.178 87.093 17.161 86.422 17.161 C 85.64 17.161 84.934 17.178 84.306 17.211 Z M 74.36 8.891 L 74.36 13.693 C 74.36 14.786 74.381 15.548 74.422 15.979 C 74.455 16.309 74.509 16.509 74.585 16.579 C 74.661 16.653 74.883 16.705 75.249 16.736 L 75.692 16.772 L 75.692 17.211 C 75.187 17.178 74.732 17.161 74.324 17.161 C 74.043 17.161 73.396 17.178 72.382 17.211 L 72.382 16.772 L 72.882 16.772 C 73.182 16.772 73.379 16.729 73.472 16.646 C 73.564 16.563 73.621 16.4 73.644 16.153 C 73.697 15.643 73.72 14.95 73.72 14.074 L 73.72 10.621 C 73.72 9.972 73.713 9.33 73.699 8.696 C 73.692 8.426 73.654 8.243 73.592 8.144 C 73.531 8.044 73.439 7.954 73.318 7.875 C 73.199 7.797 73.029 7.757 72.81 7.757 L 72.382 7.757 L 72.382 7.32 C 72.969 7.351 73.417 7.368 73.728 7.368 C 74.062 7.368 74.426 7.351 74.824 7.32 C 75.282 7.88 75.715 8.426 76.118 8.955 C 76.523 9.486 76.945 10.02 77.379 10.559 L 79.753 13.477 C 80.608 14.525 81.226 15.251 81.605 15.659 L 81.605 11.197 C 81.605 9.33 81.572 8.31 81.506 8.136 C 81.439 7.963 81.171 7.852 80.705 7.807 L 80.183 7.757 L 80.183 7.32 C 80.927 7.351 81.506 7.368 81.918 7.368 C 82.349 7.368 82.903 7.351 83.584 7.32 L 83.584 7.757 L 83.05 7.757 C 82.619 7.757 82.373 7.902 82.307 8.189 C 82.266 8.379 82.245 9.393 82.245 11.232 L 82.245 14.366 C 82.245 15.21 82.283 16.219 82.356 17.391 C 81.726 17.294 81.361 17.223 81.259 17.178 C 81.157 17.135 81.06 17.061 80.968 16.96 C 80.454 16.39 79.916 15.756 79.349 15.062 Z M 57.833 4.75 L 57.833 4.174 C 59.087 4.215 59.996 4.237 60.562 4.237 C 61.163 4.237 62.041 4.215 63.201 4.174 L 63.201 4.75 L 62.532 4.75 C 61.96 4.75 61.613 4.86 61.498 5.082 C 61.382 5.302 61.322 6.297 61.322 8.072 L 61.322 11.667 C 61.322 12.982 61.394 13.895 61.538 14.409 C 61.682 14.923 62.054 15.358 62.651 15.711 C 63.251 16.066 64.052 16.244 65.053 16.244 C 66.085 16.244 66.954 16.053 67.663 15.674 C 68.151 15.411 68.508 15.004 68.736 14.45 C 68.961 13.899 69.074 12.847 69.074 11.3 L 69.074 7.841 C 69.074 6.241 69.001 5.324 68.858 5.095 C 68.714 4.866 68.32 4.751 67.673 4.751 L 67.194 4.751 L 67.194 4.175 C 68.461 4.215 69.265 4.237 69.605 4.237 C 70.162 4.237 70.849 4.215 71.675 4.175 L 71.675 4.751 L 71.053 4.751 C 70.572 4.751 70.259 4.882 70.121 5.142 C 69.983 5.402 69.918 6.313 69.918 7.878 L 69.918 11.319 C 69.918 12.89 69.84 13.949 69.683 14.497 C 69.527 15.045 69.242 15.536 68.829 15.978 C 68.42 16.419 67.87 16.767 67.182 17.023 C 66.494 17.28 65.688 17.408 64.758 17.408 C 63.799 17.408 62.961 17.293 62.239 17.064 C 61.52 16.836 60.978 16.554 60.612 16.216 C 60.25 15.881 59.987 15.467 59.825 14.982 C 59.665 14.497 59.584 13.67 59.584 12.503 L 59.602 10.759 L 59.602 7.963 C 59.602 6.238 59.553 5.27 59.45 5.064 C 59.35 4.854 59.028 4.751 58.483 4.751 Z" fill="rgb(149,149,149)"></path><path d="M 192.128 45.976 C 192.385 45.976 192.606 46.065 192.787 46.247 C 192.967 46.429 193.059 46.649 193.059 46.912 C 193.059 47.17 192.967 47.391 192.787 47.573 C 192.606 47.758 192.385 47.85 192.128 47.85 C 191.87 47.85 191.65 47.758 191.467 47.573 C 191.282 47.391 191.191 47.17 191.191 46.912 C 191.191 46.654 191.282 46.433 191.463 46.25 C 191.644 46.065 191.866 45.976 192.128 45.976 Z M 204.595 45.976 C 204.853 45.976 205.073 46.065 205.254 46.247 C 205.434 46.429 205.526 46.649 205.526 46.912 C 205.526 47.17 205.434 47.391 205.254 47.573 C 205.073 47.758 204.853 47.85 204.595 47.85 C 204.338 47.85 204.118 47.758 203.934 47.573 C 203.75 47.391 203.658 47.17 203.658 46.912 C 203.658 46.654 203.75 46.433 203.93 46.25 C 204.112 46.065 204.334 45.976 204.595 45.976 Z M 185.895 45.976 C 186.153 45.976 186.373 46.065 186.554 46.247 C 186.734 46.429 186.826 46.649 186.826 46.912 C 186.826 47.17 186.734 47.391 186.554 47.573 C 186.373 47.758 186.153 47.85 185.895 47.85 C 185.637 47.85 185.418 47.758 185.234 47.573 C 185.05 47.391 184.958 47.17 184.958 46.912 C 184.958 46.654 185.05 46.433 185.23 46.25 C 185.412 46.065 185.633 45.976 185.895 45.976 Z M 198.363 45.976 C 198.62 45.976 198.84 46.065 199.022 46.247 C 199.201 46.429 199.294 46.649 199.294 46.912 C 199.294 47.17 199.201 47.391 199.022 47.573 C 198.84 47.758 198.62 47.85 198.363 47.85 C 198.105 47.85 197.885 47.758 197.701 47.573 C 197.517 47.391 197.426 47.17 197.426 46.912 C 197.426 46.654 197.517 46.433 197.697 46.25 C 197.879 46.065 198.101 45.976 198.363 45.976 Z M 179.663 45.976 C 179.92 45.976 180.14 46.065 180.322 46.247 C 180.501 46.429 180.593 46.649 180.593 46.912 C 180.593 47.17 180.501 47.391 180.322 47.573 C 180.14 47.758 179.92 47.85 179.663 47.85 C 179.405 47.85 179.185 47.758 179.002 47.573 C 178.817 47.391 178.726 47.17 178.726 46.912 C 178.726 46.654 178.817 46.433 178.998 46.25 C 179.179 46.065 179.401 45.976 179.663 45.976 Z M 173.43 45.976 C 173.687 45.976 173.908 46.065 174.089 46.247 C 174.269 46.429 174.361 46.649 174.361 46.912 C 174.361 47.17 174.269 47.391 174.089 47.573 C 173.908 47.758 173.687 47.85 173.43 47.85 C 173.172 47.85 172.952 47.758 172.769 47.573 C 172.585 47.391 172.493 47.17 172.493 46.912 C 172.493 46.654 172.585 46.433 172.765 46.25 C 172.947 46.065 173.168 45.976 173.43 45.976 Z M 167.198 45.976 C 167.456 45.976 167.675 46.065 167.856 46.247 C 168.037 46.429 168.128 46.649 168.128 46.912 C 168.128 47.17 168.037 47.391 167.856 47.573 C 167.675 47.758 167.456 47.85 167.198 47.85 C 166.94 47.85 166.72 47.758 166.536 47.573 C 166.352 47.391 166.261 47.17 166.261 46.912 C 166.261 46.654 166.352 46.433 166.533 46.25 C 166.714 46.065 166.935 45.976 167.198 45.976 Z M 160.965 45.976 C 161.223 45.976 161.443 46.065 161.625 46.247 C 161.804 46.429 161.896 46.649 161.896 46.912 C 161.896 47.17 161.804 47.391 161.625 47.573 C 161.443 47.758 161.223 47.85 160.965 47.85 C 160.707 47.85 160.487 47.758 160.304 47.573 C 160.12 47.391 160.028 47.17 160.028 46.912 C 160.028 46.654 160.12 46.433 160.3 46.25 C 160.482 46.065 160.704 45.976 160.965 45.976 Z M 154.732 45.976 C 154.99 45.976 155.21 46.065 155.391 46.247 C 155.572 46.429 155.663 46.649 155.663 46.912 C 155.663 47.17 155.572 47.391 155.391 47.573 C 155.21 47.758 154.99 47.85 154.732 47.85 C 154.475 47.85 154.255 47.758 154.071 47.573 C 153.887 47.391 153.795 47.17 153.795 46.912 C 153.795 46.654 153.887 46.433 154.067 46.25 C 154.249 46.065 154.47 45.976 154.732 45.976 Z M 148.5 45.976 C 148.757 45.976 148.977 46.065 149.159 46.247 C 149.338 46.429 149.431 46.649 149.431 46.912 C 149.431 47.17 149.338 47.391 149.159 47.573 C 148.977 47.758 148.757 47.85 148.5 47.85 C 148.242 47.85 148.022 47.758 147.838 47.573 C 147.655 47.391 147.563 47.17 147.563 46.912 C 147.563 46.654 147.655 46.433 147.835 46.25 C 148.016 46.065 148.238 45.976 148.5 45.976 Z M 142.267 45.976 C 142.525 45.976 142.745 46.065 142.926 46.247 C 143.106 46.429 143.198 46.649 143.198 46.912 C 143.198 47.17 143.106 47.391 142.926 47.573 C 142.745 47.758 142.525 47.85 142.267 47.85 C 142.009 47.85 141.79 47.758 141.606 47.573 C 141.422 47.391 141.33 47.17 141.33 46.912 C 141.33 46.654 141.422 46.433 141.602 46.25 C 141.783 46.065 142.005 45.976 142.267 45.976 Z M 136.034 45.976 C 136.292 45.976 136.512 46.065 136.694 46.247 C 136.873 46.429 136.966 46.649 136.966 46.912 C 136.966 47.17 136.873 47.391 136.694 47.573 C 136.512 47.758 136.292 47.85 136.034 47.85 C 135.777 47.85 135.557 47.758 135.373 47.573 C 135.189 47.391 135.098 47.17 135.098 46.912 C 135.098 46.654 135.189 46.433 135.37 46.25 C 135.551 46.065 135.773 45.976 136.034 45.976 Z M 129.802 45.976 C 130.059 45.976 130.279 46.065 130.461 46.247 C 130.641 46.429 130.733 46.649 130.733 46.912 C 130.733 47.17 130.641 47.391 130.461 47.573 C 130.279 47.758 130.059 47.85 129.802 47.85 C 129.544 47.85 129.325 47.758 129.141 47.573 C 128.957 47.391 128.865 47.17 128.865 46.912 C 128.865 46.654 128.957 46.433 129.137 46.25 C 129.318 46.065 129.54 45.976 129.802 45.976 Z M 123.569 45.976 C 123.827 45.976 124.047 46.065 124.229 46.247 C 124.408 46.429 124.5 46.649 124.5 46.912 C 124.5 47.17 124.408 47.391 124.229 47.573 C 124.047 47.758 123.827 47.85 123.569 47.85 C 123.312 47.85 123.092 47.758 122.908 47.573 C 122.724 47.391 122.632 47.17 122.632 46.912 C 122.632 46.654 122.724 46.433 122.904 46.25 C 123.086 46.065 123.308 45.976 123.569 45.976 Z M 117.337 45.976 C 117.594 45.976 117.814 46.065 117.996 46.247 C 118.176 46.429 118.268 46.649 118.268 46.912 C 118.268 47.17 118.176 47.391 117.996 47.573 C 117.814 47.758 117.594 47.85 117.337 47.85 C 117.079 47.85 116.859 47.758 116.676 47.573 C 116.491 47.391 116.4 47.17 116.4 46.912 C 116.4 46.654 116.491 46.433 116.672 46.25 C 116.853 46.065 117.075 45.976 117.337 45.976 Z M 111.104 45.976 C 111.362 45.976 111.581 46.065 111.763 46.247 C 111.943 46.429 112.035 46.649 112.035 46.912 C 112.035 47.17 111.943 47.391 111.763 47.573 C 111.581 47.758 111.362 47.85 111.104 47.85 C 110.846 47.85 110.627 47.758 110.443 47.573 C 110.259 47.391 110.167 47.17 110.167 46.912 C 110.167 46.654 110.259 46.433 110.439 46.25 C 110.621 46.065 110.843 45.976 111.104 45.976 Z M 104.871 45.976 C 105.129 45.976 105.349 46.065 105.531 46.247 C 105.711 46.429 105.802 46.649 105.802 46.912 C 105.802 47.17 105.711 47.391 105.531 47.573 C 105.349 47.758 105.129 47.85 104.871 47.85 C 104.614 47.85 104.394 47.758 104.211 47.573 C 104.027 47.391 103.934 47.17 103.934 46.912 C 103.934 46.654 104.027 46.433 104.206 46.25 C 104.388 46.065 104.61 45.976 104.871 45.976 Z M 98.639 45.976 C 98.897 45.976 99.117 46.065 99.298 46.247 C 99.478 46.429 99.57 46.649 99.57 46.912 C 99.57 47.17 99.478 47.391 99.298 47.573 C 99.117 47.758 98.897 47.85 98.639 47.85 C 98.381 47.85 98.162 47.758 97.978 47.573 C 97.793 47.391 97.702 47.17 97.702 46.912 C 97.702 46.654 97.793 46.433 97.974 46.25 C 98.156 46.065 98.377 45.976 98.639 45.976 Z M 92.407 45.976 C 92.664 45.976 92.884 46.065 93.066 46.247 C 93.246 46.429 93.337 46.649 93.337 46.912 C 93.337 47.17 93.246 47.391 93.066 47.573 C 92.884 47.758 92.664 47.85 92.407 47.85 C 92.149 47.85 91.929 47.758 91.746 47.573 C 91.562 47.391 91.469 47.17 91.469 46.912 C 91.469 46.654 91.562 46.433 91.741 46.25 C 91.923 46.065 92.145 45.976 92.407 45.976 Z M 86.174 45.976 C 86.431 45.976 86.652 46.065 86.833 46.247 C 87.013 46.429 87.105 46.649 87.105 46.912 C 87.105 47.17 87.013 47.391 86.833 47.573 C 86.652 47.758 86.431 47.85 86.174 47.85 C 85.916 47.85 85.696 47.758 85.513 47.573 C 85.329 47.391 85.237 47.17 85.237 46.912 C 85.237 46.654 85.329 46.433 85.509 46.25 C 85.69 46.065 85.912 45.976 86.174 45.976 Z M 79.941 45.976 C 80.199 45.976 80.419 46.065 80.601 46.247 C 80.781 46.429 80.872 46.649 80.872 46.912 C 80.872 47.17 80.781 47.391 80.601 47.573 C 80.419 47.758 80.199 47.85 79.941 47.85 C 79.683 47.85 79.464 47.758 79.28 47.573 C 79.097 47.391 79.004 47.17 79.004 46.912 C 79.004 46.654 79.097 46.433 79.276 46.25 C 79.458 46.065 79.68 45.976 79.941 45.976 Z M 73.709 45.976 C 73.966 45.976 74.186 46.065 74.368 46.247 C 74.548 46.429 74.64 46.649 74.64 46.912 C 74.64 47.17 74.548 47.391 74.368 47.573 C 74.186 47.758 73.966 47.85 73.709 47.85 C 73.451 47.85 73.231 47.758 73.048 47.573 C 72.864 47.391 72.772 47.17 72.772 46.912 C 72.772 46.654 72.864 46.433 73.044 46.25 C 73.225 46.065 73.447 45.976 73.709 45.976 Z M 67.476 45.976 C 67.734 45.976 67.954 46.065 68.135 46.247 C 68.315 46.429 68.407 46.649 68.407 46.912 C 68.407 47.17 68.315 47.391 68.135 47.573 C 67.954 47.758 67.734 47.85 67.476 47.85 C 67.218 47.85 66.999 47.758 66.815 47.573 C 66.631 47.391 66.539 47.17 66.539 46.912 C 66.539 46.654 66.631 46.433 66.811 46.25 C 66.993 46.065 67.214 45.976 67.476 45.976 Z M 61.244 45.976 C 61.501 45.976 61.721 46.065 61.903 46.247 C 62.082 46.429 62.174 46.649 62.174 46.912 C 62.174 47.17 62.082 47.391 61.903 47.573 C 61.721 47.758 61.501 47.85 61.244 47.85 C 60.986 47.85 60.766 47.758 60.583 47.573 C 60.398 47.391 60.307 47.17 60.307 46.912 C 60.307 46.654 60.398 46.433 60.578 46.25 C 60.76 46.065 60.982 45.976 61.244 45.976 Z" fill="rgb(149,149,149)"></path><path d="M 1.598 22 C 0.911 32.502 6.726 41.657 17.164 45.961 C 23.787 48.693 34.306 47.388 39.859 42.719 C 42.141 40.802 44.402 37.703 45.533 35.113 C 45.937 34.195 46.603 32.992 47.148 31.524 L 35.155 31.524 C 30.329 31.524 22.132 32.075 20.961 24.978 C 19.588 16.598 30.007 13.498 35.014 20.39 C 36.265 22.144 35.68 28.302 36.205 22.817 C 36.568 19.065 35.175 15.232 30.006 13.111 C 28.532 12.519 25.787 12.071 24.515 11.867 C 27.927 9.583 35.942 11.806 36.609 13.111 C 33.742 7.687 26.534 6.708 25.928 6.749 C 28.552 5.729 34.327 7.238 36.386 7.952 C 39.677 9.094 42.403 10.929 45.068 13.906 C 46.239 15.191 47.511 17.148 48.077 18.494 C 47.531 16.679 47.168 15.231 45.694 12.846 C 41.979 6.871 36.83 3.935 30.208 1.712 C 26.089 0.325 20.294 0.794 16.6 2.385 C 10.765 4.934 6.686 8.196 3.738 14.151 C 2.668 16.312 1.598 19.391 1.598 22.001" fill="rgb(149,149,149)"></path></svg>