<svg xmlns="http://www.w3.org/2000/svg" xmlns:xlink="http://www.w3.org/1999/xlink" viewBox="0 0 168 49"><g transform="translate(0 0.68)"><path d="M 22.104 1.711 L 22.102 1.711 C 22.065 1.27 22.215 0.833 22.515 0.508 C 22.815 0.183 23.238 -0.001 23.68 0 C 24.123 -0.001 24.545 0.184 24.845 0.509 C 25.145 0.834 25.295 1.271 25.258 1.712 Z M 23.804 8.045 L 23.804 6.345 L 16.636 6.345 L 16.64 6.345 C 16.74 7.309 17.552 8.042 18.521 8.044 Z M 18.446 1.714 L 16.734 0.011 L 18.918 0.011 L 18.917 0.011 C 19.907 0.011 20.72 0.757 20.822 1.714 Z M 15.338 8.056 L 13.308 8.056 L 13.305 8.063 C 13.473 7.074 14.33 6.351 15.333 6.354 L 15.338 8.057 Z" fill="rgb(149,149,149)"></path><path d="M 23.295 10.202 L 23.311 10.21 C 23.14 9.25 22.3 8.522 21.286 8.522 L 17.356 8.522 L 13.305 8.515 C 13.483 9.494 14.335 10.204 15.33 10.202 Z M 17.467 12.713 L 15.763 14.424 L 29.59 14.424 C 30.582 14.424 31.398 13.674 31.496 12.713 Z M 31.496 12.713 L 31.499 12.713 L 31.496 12.71 C 31.496 12.711 31.496 12.712 31.496 12.713 Z" fill="rgb(149,149,149)"></path><path d="M 28.987 1.703 L 30.701 0 L 28.515 0 L 28.516 0 C 27.527 0 26.713 0.746 26.61 1.703 L 28.986 1.703 Z" fill="rgb(149,149,149)"></path><path d="M 26.632 3.839 L 28.345 2.136 L 28.345 2.129 L 18.627 2.144 L 20.334 3.847 L 26.624 3.847 L 26.633 3.839 Z" fill="rgb(149,149,149)"></path><path d="M 23.417 10.218 L 23.417 8.515 L 31.434 8.517 L 31.439 8.517 C 31.331 9.488 30.51 10.222 29.533 10.221 Z" fill="rgb(149,149,149)"></path><path d="M 23.923 8.092 L 23.923 8.092 L 23.922 8.092 Z M 23.923 8.092 L 28.698 8.09 C 29.688 8.09 30.501 7.343 30.603 6.387 L 30.599 6.389 L 25.642 6.389 Z M 19.595 12.32 L 30.079 12.32 C 31.053 12.318 31.87 11.584 31.976 10.617 L 17.7 10.617 C 17.805 11.584 18.621 12.318 19.595 12.32 Z M 15.683 16.528 L 28.472 16.526 C 29.446 16.529 30.266 15.798 30.376 14.831 L 28.737 14.834 L 14.97 14.834 L 12.248 17.531 L 13.452 18.739 L 15.684 16.53 L 15.684 16.528 Z M 12.246 17.529 L 12.241 17.534 L 12.245 17.534 L 12.248 17.531 Z" fill="rgb(149,149,149)"></path><path d="M 16.507 18.73 L 27.396 18.734 C 28.386 18.734 29.2 17.989 29.302 17.031 L 15.779 17.032 L 8.515 24.255 C 9.279 24.868 10.381 24.813 11.081 24.127 Z" fill="rgb(149,149,149)"></path><path d="M 17.577 20.857 L 26.326 20.863 C 27.316 20.863 28.13 20.118 28.232 19.16 L 16.856 19.162 L 11.709 24.271 C 12.472 24.885 13.575 24.83 14.274 24.143 Z" fill="rgb(149,149,149)"></path><path d="M 17.397 21.288 L 26.812 21.288 L 28.021 22.991 L 18.115 22.991 L 16.935 24.168 C 16.236 24.855 15.133 24.91 14.37 24.295 L 17.393 21.294 Z M 31.028 27.219 L 22.19 27.216 C 21.2 27.216 20.386 26.46 20.284 25.502 L 29.81 25.496 Z" fill="rgb(149,149,149)"></path><path d="M 28.63 23.424 L 18.627 23.417 C 18.728 24.375 19.543 25.131 20.533 25.131 L 29.839 25.134 Z" fill="rgb(149,149,149)"></path><path d="M 23.23 46.302 L 20.224 46.302 L 20.227 46.303 C 20.323 47.257 21.091 48 22.025 48 L 23.395 48 L 23.395 46.305 L 23.236 46.303 L 23.229 46.303 Z" fill="rgb(149,149,149)"></path><path d="M 24.93 43.755 L 19.16 43.755 L 19.163 43.748 C 19.271 42.776 20.094 42.042 21.071 42.045 L 28.794 42.045 C 29.784 42.045 30.599 42.79 30.703 43.748 L 30.705 43.755 Z" fill="rgb(149,149,149)"></path><path d="M 21.821 37.787 C 22.721 37.876 23.436 38.582 23.536 39.48 L 23.539 39.488 L 21.823 39.488 L 21.823 37.787 Z" fill="rgb(149,149,149)"></path><path d="M 30.795 40.196 L 30.793 40.202 C 30.688 41.16 29.873 41.905 28.883 41.905 L 19.239 41.905 L 19.243 41.899 C 19.345 40.941 20.16 40.196 21.15 40.196 Z M 23.897 44.414 L 28.058 44.414 L 28.055 44.42 C 27.946 45.392 27.124 46.126 26.146 46.123 L 15.966 46.123 L 15.969 46.116 C 16.078 45.145 16.901 44.411 17.878 44.413 L 23.897 44.413 Z M 25.543 5.964 L 18 5.96 L 17.995 5.967 C 18.099 4.993 18.923 4.254 19.903 4.258 L 25.544 4.261 L 30.338 4.264 L 30.343 4.258 C 30.239 5.232 29.416 5.97 28.436 5.967 L 28.425 5.967 L 25.513 5.965 L 25.543 5.965 Z M 25.698 33.865 L 25.641 33.865 L 25.639 33.865 Z M 25.641 33.865 L 26.945 33.879 L 28.999 33.876 C 29.933 33.934 30.69 34.657 30.79 35.588 L 30.794 35.598 L 26.949 35.598 L 26.93 35.596 L 25.684 35.596 L 25.639 35.58 L 24.808 35.58 C 23.819 35.58 23.004 34.824 22.903 33.866 Z M 29.058 33.467 L 24.306 33.473 C 23.316 33.473 22.502 32.715 22.401 31.757 L 30.793 31.757 Z" fill="rgb(149,149,149)"></path><path d="M 26.321 31.515 L 31.262 31.514 L 32.997 29.804 L 24.604 29.804 L 22.885 31.515 Z" fill="rgb(149,149,149)"></path><path d="M 25.099 27.679 L 22.885 27.679 C 22.987 28.637 23.8 29.395 24.79 29.395 L 25.1 29.395 L 32.975 29.397 L 32.973 29.386 C 32.872 28.455 32.115 27.732 31.18 27.675 L 25.106 27.678 L 25.099 27.678 Z" fill="rgb(149,149,149)"></path><path d="M 26.651 35.658 L 31.391 35.658 C 32.351 35.676 33.149 36.403 33.258 37.357 L 26.635 37.354 L 25.287 37.354 L 25.277 37.357 C 24.318 37.339 23.522 36.611 23.417 35.658 Z M 29.991 37.77 L 26.143 37.771 C 25.166 37.769 24.343 38.503 24.235 39.474 L 29.992 39.472 L 31.349 39.472 C 32.327 39.474 33.15 38.74 33.258 37.768 L 30.013 37.77 L 29.992 37.77 Z" fill="rgb(149,149,149)"></path><path d="M 31.4 25.889 C 32.164 26.499 33.263 26.44 33.956 25.751 L 33.954 25.751 L 34.702 25.009 L 35.797 23.92 C 36.487 23.235 36.548 22.139 35.938 21.382 L 34.714 22.6 L 33.497 23.81 Z M 41.687 3.142 C 41.351 2.591 40.742 2.221 40.047 2.221 L 40.047 4.773 Z M 40.15 17.175 C 39.457 17.862 39.398 18.962 40.013 19.719 L 40.01 19.722 L 44.246 15.51 C 44.938 14.823 44.997 13.723 44.383 12.966 L 40.15 17.177 Z M 44.384 12.965 L 44.382 12.966 C 44.382 12.966 44.382 12.966 44.383 12.966 Z M 43.779 13.016 C 44.472 12.33 44.531 11.229 43.915 10.472 L 40.164 14.204 C 39.471 14.891 39.412 15.991 40.027 16.748 L 43.779 13.017 Z M 43.916 10.472 L 43.915 10.472 C 43.915 10.472 43.915 10.472 43.915 10.472 Z M 40.493 13.273 L 40.492 13.277 L 44.334 9.455 C 45.024 8.77 45.085 7.675 44.475 6.918 L 44.467 6.914 L 42.64 8.731 L 37.948 13.398 L 37.934 13.411 C 38.698 14.021 39.798 13.962 40.493 13.273 Z M 42.576 5.229 L 43.97 3.843 C 44.662 3.155 44.721 2.056 44.106 1.299 L 44.103 1.301 L 41.363 4.025 L 40 5.381 C 39.308 6.068 39.249 7.167 39.864 7.925 L 39.863 7.927 L 42.575 5.231 Z M 35.718 3.078 C 36.41 2.391 36.469 1.291 35.854 0.534 L 35.856 0.532 L 31.985 4.383 L 31.978 4.389 L 31.978 6.796 Z M 37.117 7.674 L 35.91 6.476 L 33.196 9.175 C 32.506 9.86 32.445 10.956 33.054 11.713 Z M 38.615 9.154 L 37.409 7.957 L 32.29 13.042 C 31.601 13.728 31.54 14.823 32.15 15.58 Z" fill="rgb(149,149,149)"></path><path d="M 44.404 3.782 C 45.019 4.539 44.959 5.639 44.267 6.325 L 30.228 20.287 C 29.614 19.53 29.673 18.431 30.365 17.743 Z M 33.411 2.199 L 31.972 3.632 L 31.972 1.608 C 32.522 1.542 33.066 1.766 33.411 2.2 Z" fill="rgb(149,149,149)"></path><path d="M 35.983 15.333 C 36.577 16.068 36.542 17.142 35.875 17.836 L 35.726 17.983 L 34.412 19.293 L 32.608 21.085 L 31.825 21.865 L 31.827 21.865 C 31.133 22.553 30.035 22.611 29.272 22.002 L 31.441 19.85 L 33.133 18.165 L 34.644 16.665 Z M 31.986 22.299 L 33.285 21.006 L 34.795 19.504 L 36.019 18.287 C 36.629 19.044 36.568 20.14 35.877 20.824 L 34.562 22.134 L 33.191 23.496 L 33.004 23.681 L 33.006 23.681 C 32.312 24.368 31.214 24.427 30.451 23.817 Z M 42.717 23.016 L 38.183 27.525 L 37.357 28.345 L 36.573 29.126 C 35.88 29.813 34.782 29.872 34.019 29.263 L 36.188 27.11 L 36.977 26.325 L 41.511 21.816 L 42.418 20.915 L 43.928 19.414 L 45.152 18.195 C 45.761 18.952 45.7 20.048 45.011 20.733 L 43.695 22.042 L 42.716 23.016 Z M 36.913 25.827 L 35.646 27.086 L 35.523 27.209 C 34.828 27.898 33.727 27.958 32.962 27.347 L 32.954 27.344 L 34.43 25.876 L 34.436 25.871 L 35.964 24.353 L 37.14 23.183 L 37.137 23.185 C 37.831 22.495 38.933 22.436 39.698 23.047 L 39.704 23.05 L 37.181 25.559 Z M 34.121 5.249 L 35.091 4.284 L 35.085 4.29 L 36.187 3.193 C 36.796 3.942 36.751 5.043 36.051 5.737 L 35.332 6.453 L 34.554 7.226 L 34.322 7.456 L 32.553 9.215 C 31.938 8.458 31.997 7.357 32.69 6.671 L 33.343 6.022 L 33.348 6.017 Z" fill="rgb(149,149,149)"></path><path d="M 30.868 32.031 L 33.109 29.804 L 34.324 31.011 L 32.085 33.24 Z" fill="rgb(149,149,149)"></path><path d="M 37.078 31.372 L 35.803 32.634 L 35.019 33.414 L 35.019 33.413 C 34.326 34.1 33.228 34.159 32.465 33.551 L 34.648 31.372 Z M 42.587 23.479 L 44.79 21.288 L 44.79 21.289 C 45.404 22.047 45.344 23.147 44.651 23.833 L 43.798 24.683 L 40.042 28.418 L 37.146 31.298 C 36.532 30.541 36.59 29.441 37.282 28.754 L 38.834 27.215 L 42.578 23.492 L 42.588 23.479 Z M 34.716 34.302 L 37.723 31.313 L 39.551 29.496 L 39.558 29.499 C 40.169 30.256 40.108 31.352 39.418 32.037 L 37.137 34.304 Z" fill="rgb(149,149,149)"></path><path d="M 37.255 34.626 L 38.892 32.997 L 38.894 35.399 L 37.258 37.019 L 37.255 34.624 Z" fill="rgb(149,149,149)"></path><path d="M 40.125 22.81 L 40.125 22.809 L 40.123 22.81 Z M 40.125 22.809 L 40.133 22.806 L 45.101 17.867 C 45.793 17.18 45.851 16.08 45.237 15.323 L 45.233 15.326 L 40.262 20.264 C 39.57 20.952 39.512 22.051 40.127 22.808 Z M 41.096 29.378 C 41.493 29.391 41.857 29.16 42.014 28.796 C 42.172 28.432 42.09 28.009 41.809 27.729 L 41.801 27.721 L 40.134 29.38 L 41.114 29.38 Z M 5.563 3.252 C 4.799 2.637 3.696 2.694 3 3.385 L 4.211 4.59 Z M 9.826 2.016 L 9.825 2.017 C 9.825 2.017 9.825 2.017 9.825 2.017 Z M 9.825 2.017 C 9.062 1.408 7.964 1.467 7.271 2.155 L 7.256 2.174 L 5.719 3.701 L 4.029 5.383 L 2.284 7.118 C 1.594 7.802 1.532 8.899 2.143 9.656 L 4.431 7.38 L 6.309 5.513 L 8.054 3.778 Z M 10.009 4.844 C 10.7 4.159 10.76 3.063 10.149 2.306 L 8.925 3.526 L 7.415 5.027 L 5.722 6.711 L 3.554 8.864 C 4.318 9.474 5.416 9.415 6.11 8.727 L 6.108 8.727 L 6.892 7.947 L 8.695 6.152 L 10.01 4.843 Z M 13.204 2.23 L 13.202 2.232 L 9.201 6.21 L 5.952 9.44 C 5.262 10.125 5.2 11.221 5.811 11.979 L 5.814 11.977 L 9.931 7.881 L 13.063 4.767 C 13.754 4.083 13.815 2.987 13.204 2.23 Z M 5.34 13.062 C 6.103 13.673 7.203 13.615 7.897 12.926 L 9.071 11.759 L 10.787 10.054 L 11.745 9.103 C 12.435 8.418 12.496 7.321 11.885 6.564 L 11.879 6.558 L 10.167 8.261 L 8.663 9.757 L 6.712 11.696 L 5.339 13.062 Z M 8.232 13.158 C 8.996 13.767 10.094 13.707 10.787 13.02 L 10.782 13.025 L 13.07 10.749 L 11.859 9.545 Z M 16.072 13.733 L 14.865 12.533 L 13.82 13.573 L 10.027 17.343 L 10.029 17.342 C 10.775 17.949 11.846 17.935 12.506 17.278 L 16.072 13.734 Z M 14.585 12.241 L 13.379 11.041 L 12.333 12.08 L 8.54 15.851 L 8.543 15.85 C 9.288 16.457 10.36 16.442 11.019 15.786 Z M 4.145 16.649 C 3.381 16.038 2.28 16.097 1.585 16.787 L 1.585 16.79 L 2.796 17.994 Z M 3.549 20.227 L 4.43 19.35 L 6.752 17.041 C 7.446 16.354 7.506 15.253 6.891 14.494 L 5.414 15.964 L 2.571 18.791 L 2.338 19.022 L 0.548 20.802 C -0.131 21.49 -0.186 22.581 0.424 23.334 L 1.901 21.865 L 3.55 20.227 Z M 0.551 20.799 L 0.562 20.788 C 0.559 20.791 0.555 20.795 0.551 20.799 Z M 0.543 20.807 L 0.548 20.802 C 0.549 20.801 0.55 20.8 0.551 20.799 Z M 7.911 18.895 C 8.611 18.199 8.656 17.099 8.049 16.349 L 8.046 16.342 L 4.65 19.721 L 0.789 23.559 C 0.096 24.246 0.036 25.347 0.651 26.106 L 0.654 26.113 L 4.051 22.734 L 7.913 18.893 Z M 5.072 22.226 C 4.379 22.914 4.319 24.014 4.934 24.773 L 4.939 24.777 L 10.385 19.363 L 7.947 19.368 Z M 6.54 26.148 L 6.561 26.136 L 9.698 23.017 L 13.374 19.363 L 10.936 19.367 L 9.031 21.262 L 6.359 23.919 L 3.98 26.286 L 3.979 26.287 C 4.744 26.897 5.845 26.838 6.539 26.148 Z M 18.998 25.53 L 16.575 25.53 L 15.809 26.292 C 15.116 26.979 15.057 28.08 15.673 28.837 L 15.675 28.835 L 18.998 25.531 Z M 13.003 32.057 L 6.407 38.611 C 7.171 39.224 8.273 39.169 8.972 38.483 L 15.435 32.057 Z M 9.286 29.198 C 8.522 28.586 7.42 28.645 6.725 29.335 L 6.725 29.338 L 7.936 30.542 Z M 12.666 28.832 C 13.358 28.144 13.417 27.044 12.802 26.287 L 12.8 26.279 L 9.402 29.659 L 5.543 33.496 C 4.85 34.184 4.79 35.284 5.404 36.043 L 5.406 36.051 L 8.804 32.671 L 12.667 28.832 Z" fill="rgb(149,149,149)"></path><path d="M 12.477 31.78 C 13.147 31.083 13.183 30.01 12.583 29.272 L 11.404 30.445 L 8.013 33.818 C 7.32 34.505 7.261 35.605 7.874 36.364 L 7.878 36.37 L 11.574 32.694 L 12.463 31.81 Z" fill="rgb(149,149,149)"></path><path d="M 22.394 33.664 L 17.914 38.118 C 17.254 38.775 16.182 38.789 15.436 38.182 L 15.434 38.183 L 19.227 34.413 L 21.187 32.465 L 22.393 33.664 Z M 20.665 35.965 L 21.752 34.883 L 22.958 36.083 L 21.865 37.168 L 21.012 38.017 C 20.353 38.672 19.281 38.686 18.536 38.08 L 18.533 38.082 L 20.657 35.969 Z" fill="rgb(149,149,149)"></path><path d="M 19.181 25.547 L 20.393 26.75 L 15.859 31.259 L 15.859 31.26 C 15.244 30.503 15.303 29.404 15.994 28.716 L 19.182 25.546 Z" fill="rgb(149,149,149)"></path><path d="M 22.064 28.341 L 20.859 27.143 L 11.193 36.754 L 11.176 36.76 C 11.939 37.372 13.04 37.314 13.735 36.626 Z M 23.569 29.842 L 22.363 28.642 L 11.497 39.451 L 11.48 39.457 C 12.243 40.069 13.344 40.011 14.039 39.322 Z" fill="rgb(149,149,149)"></path><path d="M 64.721 41.552 L 64.696 41.552 L 63.265 34.594 L 61.204 34.594 L 63.472 43.847 L 65.741 43.847 L 67.546 36.798 L 67.571 36.798 L 69.248 43.847 L 71.463 43.847 L 73.835 34.594 L 71.928 34.594 L 70.433 41.552 L 70.406 41.552 L 68.782 34.594 L 66.528 34.594 L 64.722 41.552 Z M 82.974 34.594 L 82.974 39.618 C 82.974 41.181 82.896 42.603 80.937 42.603 C 78.979 42.603 78.901 41.181 78.901 39.618 L 78.901 34.594 L 76.904 34.594 L 76.904 40.386 C 76.904 42.846 78.682 44.037 80.938 44.037 C 83.194 44.037 84.973 42.846 84.973 40.386 L 84.973 34.594 Z" fill="rgb(149,149,149)"></path><path d="M 88.879 43.847 L 88.879 34.594 L 91.753 34.594 C 93.815 34.607 95.555 35.095 95.555 37.439 C 95.555 39.118 94.409 40.22 92.333 40.284 L 90.877 40.284 L 90.877 43.847 Z M 90.877 38.746 C 91.985 38.695 93.429 39.08 93.429 37.439 C 93.429 35.799 91.984 36.185 90.877 36.132 Z M 98.709 43.847 L 98.709 34.594 L 101.583 34.594 C 103.646 34.607 105.385 35.095 105.385 37.439 C 105.385 39.118 104.24 40.22 102.164 40.284 L 100.706 40.284 L 100.706 43.847 Z M 100.706 38.746 C 101.816 38.695 103.26 39.08 103.26 37.439 C 103.26 35.799 101.815 36.185 100.706 36.132 Z" fill="rgb(149,149,149)"></path><path d="M 108.571 43.847 L 114.95 43.847 L 114.95 42.309 L 110.568 42.309 L 110.568 39.835 L 114.537 39.835 L 114.537 38.297 L 110.568 38.297 L 110.568 36.131 L 114.807 36.131 L 114.807 34.594 L 108.571 34.594 Z" fill="rgb(149,149,149)"></path><path d="M 120.681 36.132 L 122.356 36.132 C 123.233 36.144 123.748 36.49 123.748 37.311 C 123.748 38.131 123.233 38.566 122.356 38.579 L 120.681 38.579 Z M 120.681 40.117 L 122.795 40.117 C 123.452 40.142 123.58 40.848 123.632 41.36 C 123.723 42.194 123.813 43.027 123.98 43.847 L 126.184 43.847 C 125.81 43.334 125.732 42.244 125.643 41.654 C 125.476 40.373 125.476 39.438 123.941 39.272 L 123.941 39.246 C 125.087 39.001 125.875 38.208 125.875 37.003 C 125.875 35.119 124.238 34.606 122.64 34.594 L 118.683 34.594 L 118.683 43.847 L 120.681 43.847 Z" fill="rgb(149,149,149)"></path><path d="M 128.263 36.131 L 131.034 36.131 L 131.034 43.846 L 133.031 43.846 L 133.031 36.131 L 135.803 36.131 L 135.803 34.594 L 128.263 34.594 Z" fill="rgb(149,149,149)"></path><path d="M 137.842 43.847 L 141.207 34.594 L 143.577 34.594 L 146.813 43.847 L 144.803 43.847 L 144.132 41.885 L 140.446 41.885 L 139.75 43.847 Z M 143.628 40.347 L 142.352 36.401 L 142.327 36.401 L 140.961 40.347 Z" fill="rgb(149,149,149)"></path><path d="M 155.584 44.104 L 155.584 42.566 L 151.55 42.566 L 151.55 34.853 L 149.552 34.853 L 149.552 44.105 L 155.584 44.105 Z M 67.808 19.693 L 67.808 24.717 C 67.808 26.281 67.73 27.703 65.772 27.703 C 63.813 27.703 63.735 26.281 63.735 24.716 L 63.735 19.692 L 61.736 19.692 L 61.736 25.484 C 61.736 27.944 63.515 29.136 65.77 29.136 C 68.027 29.136 69.805 27.944 69.805 25.484 L 69.805 19.693 Z M 81.928 28.946 L 81.928 19.693 L 80.059 19.693 L 80.059 26.946 L 80.034 26.971 L 76.489 19.693 L 73.525 19.693 L 73.525 28.945 L 75.394 28.945 L 75.394 21.282 L 75.418 21.256 L 79.093 28.945 L 81.928 28.945 Z M 87.604 19.693 L 85.606 19.693 L 85.606 28.945 L 87.604 28.945 Z M 94.068 28.946 L 96.246 28.946 L 99.675 19.693 L 97.702 19.693 L 95.267 26.984 L 95.24 26.984 L 92.818 19.693 L 90.641 19.693 L 94.068 28.945 Z M 102.549 28.946 L 108.929 28.946 L 108.929 27.408 L 104.547 27.408 L 104.547 24.934 L 108.517 24.934 L 108.517 23.397 L 104.547 23.397 L 104.547 21.231 L 108.787 21.231 L 108.787 19.693 L 102.549 19.693 L 102.549 28.945 Z" fill="rgb(149,149,149)"></path><path d="M 114.826 21.23 L 116.502 21.23 C 117.379 21.243 117.893 21.589 117.893 22.409 C 117.893 23.229 117.379 23.665 116.502 23.678 L 114.826 23.678 Z M 114.826 25.215 L 116.94 25.215 C 117.597 25.24 117.726 25.945 117.778 26.458 C 117.868 27.291 117.958 28.123 118.125 28.944 L 120.329 28.944 C 119.955 28.431 119.877 27.342 119.788 26.751 C 119.621 25.47 119.621 24.536 118.087 24.369 L 118.087 24.344 C 119.233 24.1 120.02 23.305 120.02 22.101 C 120.02 20.217 118.384 19.706 116.785 19.692 L 112.828 19.692 L 112.828 28.944 L 114.826 28.944 Z" fill="rgb(149,149,149)"></path><path d="M 130.797 21.991 C 130.797 20.132 129.393 19.16 127.588 19.16 C 125.679 19.16 123.719 20.094 123.719 22.208 C 123.719 23.848 125.498 24.439 126.8 24.758 C 127.599 24.964 128.927 25.04 128.927 26.13 C 128.927 27.117 127.87 27.36 127.07 27.36 C 126.026 27.36 125.434 26.668 125.511 25.643 L 123.475 25.643 C 123.411 27.974 124.918 28.795 127.045 28.795 C 129.043 28.795 131.053 28 131.053 25.706 C 131.053 23.847 128.966 23.451 127.548 23.093 C 126.749 22.901 125.847 22.785 125.847 21.787 C 125.847 20.979 126.594 20.594 127.329 20.594 C 128.295 20.594 128.799 21.055 128.875 21.991 Z M 136.204 19.35 L 134.206 19.35 L 134.206 28.602 L 136.204 28.602 Z M 139.264 20.888 L 142.035 20.888 L 142.035 28.602 L 144.033 28.602 L 144.033 20.888 L 146.803 20.888 L 146.803 19.35 L 139.264 19.35 Z" fill="rgb(149,149,149)"></path><path d="M 153.422 18.024 L 153.422 16.499 L 154.737 16.499 L 154.737 18.024 Z M 151.205 18.024 L 151.205 16.499 L 152.52 16.499 L 152.52 18.024 Z M 148.487 28.57 L 151.85 19.318 L 154.223 19.318 L 157.456 28.57 L 155.447 28.57 L 154.775 26.609 L 151.089 26.609 L 150.393 28.57 Z M 154.272 25.072 L 152.996 21.126 L 152.97 21.126 L 151.604 25.072 Z" fill="rgb(149,149,149)"></path><path d="M 159.663 21.23 L 162.435 21.23 L 162.435 28.944 L 164.433 28.944 L 164.433 21.23 L 167.202 21.23 L 167.202 19.692 L 159.663 19.692 Z" fill="rgb(149,149,149)"></path><path d="M 63.734 9.521 L 65.294 9.521 C 66.235 9.521 66.879 9.687 66.879 10.752 C 66.879 11.816 66.235 11.981 65.293 11.981 L 63.734 11.981 Z M 63.733 7.984 L 63.734 7.984 L 63.734 7.984 Z M 63.734 5.807 L 65.294 5.807 C 66.131 5.807 66.595 6.153 66.595 6.896 C 66.595 7.637 66.131 7.983 65.294 7.983 L 63.734 7.984 Z M 65.254 13.519 C 66.686 13.623 69.005 12.956 69.005 11.124 C 69.005 9.765 68.128 8.958 66.956 8.715 L 66.956 8.689 C 67.882 8.381 68.592 7.676 68.592 6.665 C 68.592 4.857 66.891 4.165 65.229 4.267 L 61.736 4.267 L 61.736 13.519 Z" fill="rgb(149,149,149)"></path><path d="M 72.381 13.509 L 78.762 13.509 L 78.762 11.97 L 74.378 11.97 L 74.378 9.498 L 78.349 9.498 L 78.349 7.962 L 74.378 7.962 L 74.378 5.796 L 78.62 5.796 L 78.62 4.258 L 72.381 4.258 Z" fill="rgb(149,149,149)"></path><path d="M 83.959 5.797 L 85.635 5.797 C 86.511 5.81 87.027 6.156 87.027 6.976 C 87.027 7.796 86.511 8.232 85.635 8.245 L 83.959 8.245 Z M 83.959 9.782 L 86.073 9.782 C 86.73 9.808 86.859 10.512 86.91 11.025 C 87.001 11.859 87.091 12.691 87.258 13.511 L 89.461 13.511 C 89.089 12.999 89.01 11.909 88.921 11.319 C 88.753 10.037 88.753 9.102 87.22 8.935 L 87.22 8.909 C 88.366 8.667 89.154 7.871 89.154 6.668 C 89.154 4.784 87.516 4.272 85.918 4.258 L 81.96 4.258 L 81.96 13.51 L 83.959 13.51 Z" fill="rgb(149,149,149)"></path><path d="M 99.205 9.774 L 99.205 11.721 C 98.676 11.825 98.147 11.928 97.349 11.928 C 95.583 11.928 94.731 10.634 94.731 8.544 C 94.731 6.455 95.583 5.161 97.349 5.161 C 98.444 5.161 99.218 5.558 99.218 6.738 L 101.343 6.738 C 101.331 4.534 99.668 3.725 96.974 3.725 C 95.13 3.725 92.604 4.868 92.604 8.544 C 92.604 12.222 95.129 13.362 96.974 13.362 C 98.198 13.362 98.662 13.311 99.113 13.272 C 99.822 13.214 100.522 13.077 101.2 12.862 L 101.2 8.235 L 97.386 8.235 L 97.386 9.774 L 99.204 9.774 Z M 106.787 3.918 L 104.789 3.918 L 104.789 13.169 L 106.787 13.169 Z M 117.411 6.558 C 117.411 4.7 116.006 3.727 114.202 3.727 C 112.294 3.727 110.335 4.662 110.335 6.775 C 110.335 8.416 112.112 9.006 113.414 9.325 C 114.213 9.53 115.541 9.607 115.541 10.697 C 115.541 11.684 114.484 11.928 113.684 11.928 C 112.641 11.928 112.047 11.236 112.125 10.21 L 110.089 10.21 C 110.024 12.542 111.531 13.363 113.66 13.363 C 115.657 13.363 117.667 12.569 117.667 10.275 C 117.667 8.417 115.58 8.02 114.162 7.661 C 113.363 7.469 112.461 7.354 112.461 6.354 C 112.461 5.547 113.207 5.162 113.943 5.162 C 114.909 5.162 115.413 5.623 115.49 6.559 L 117.411 6.559 Z M 128.662 6.918 C 128.571 4.597 126.896 3.727 124.756 3.727 C 122.063 3.727 120.852 5.84 120.852 8.544 C 120.852 11.248 122.064 13.362 124.756 13.362 C 126.896 13.362 128.571 12.491 128.662 10.171 L 126.535 10.171 C 126.549 11.144 125.956 11.927 124.756 11.927 C 123.34 11.927 122.979 9.838 122.979 8.543 C 122.979 7.249 123.34 5.16 124.756 5.16 C 125.956 5.16 126.549 5.942 126.535 6.917 L 128.662 6.917 Z M 133.966 13.169 L 133.966 9.107 L 137.51 9.107 L 137.51 13.169 L 139.507 13.169 L 139.507 3.918 L 137.484 3.918 L 137.484 7.569 L 133.966 7.569 L 133.966 3.918 L 131.968 3.918 L 131.968 13.169 Z M 142.979 13.169 L 149.359 13.169 L 149.359 11.631 L 144.977 11.631 L 144.977 9.158 L 148.946 9.158 L 148.946 7.622 L 144.977 7.622 L 144.977 5.456 L 149.218 5.456 L 149.218 3.918 L 142.979 3.918 Z" fill="rgb(149,149,149)"></path></g></svg>