<svg xmlns="http://www.w3.org/2000/svg" width="200" height="200" fill="none" viewBox="0 0 200 200">
<!-- SVG created with Arrow, by QuiverAI (https://quiver.ai) -->
  <path d="m5.31 180.9v11.51h189.4v-11.51h-189.4z" fill="url(#paint0_linear_1625_11625)"/>
  <path d="m12.19 67.58v107h34.73v-114.3h-28c-4.35 0-6.73 3.85-6.73 7.26zm13.49 20.29h13.89v13.07h-13.89v-13.07zm0 26.01h13.89v14.59h-13.89v-14.59zm0 27.19h13.89v13.71h-13.89v-13.71z" fill="url(#paint1_linear_1625_11625)"/>
  <path d="m146.8 14.35c0-5.09-3.37-6.77-6.75-6.77h-80.12c-4.12 0-7.06 2.71-7.06 6.77v160.3h94.02l-0.09-160.3zm-53.33 140.2h-13.41v-13.71h13.41v13.71zm0-26.4h-13.41v-14.23h13.41v14.23zm0-27.44h-13.41v-13.07h13.41v13.07zm0-26.49h-13.41v-13.86h13.41v13.86zm0-26.67h-13.41v-13.53h13.41v13.53zm25.93 107h-13.49v-13.71h13.49v13.71zm0-26.4h-13.49v-14.23h13.49v14.23zm0-27.44h-13.49v-13.07h13.49v13.07zm0-26.49h-13.49v-13.86h13.49v13.86zm0-26.67h-13.49v-13.53h13.49v13.53z" fill="url(#paint2_linear_1625_11625)"/>
  <path d="m180.1 60.32h-27.29v114.3h34.19v-107c0-4.15-3.16-7.3-6.9-7.3zm-6.59 94.19h-13.58v-13.71h13.58v13.71zm0-26.4h-13.58v-14.23h13.58v14.23zm0-27.44h-13.58v-13.07h13.58v13.07z" fill="url(#paint3_linear_1625_11625)"/>
  <defs>
    <linearGradient id="paint0_linear_1625_11625" x1="15.13" x2="16.35" y1="180.9" y2="200.1" gradientUnits="userSpaceOnUse">
      <stop stop-color="#1E88C2" offset="0"/>
      <stop stop-color="#0F77B0" offset="1"/>
    </linearGradient>
    <linearGradient id="paint1_linear_1625_11625" x1="18.97" x2="62.83" y1="60.32" y2="70.84" gradientUnits="userSpaceOnUse">
      <stop stop-color="#1E88C2" offset="0"/>
      <stop stop-color="#0F77B0" offset="1"/>
    </linearGradient>
    <linearGradient id="paint2_linear_1625_11625" x1="65.53" x2="169.5" y1="7.576" y2="31.7" gradientUnits="userSpaceOnUse">
      <stop stop-color="#1E88C2" offset="0"/>
      <stop stop-color="#0F77B0" offset="1"/>
    </linearGradient>
    <linearGradient id="paint3_linear_1625_11625" x1="158.4" x2="202.6" y1="60.32" y2="71.09" gradientUnits="userSpaceOnUse">
      <stop stop-color="#1E88C2" offset="0"/>
      <stop stop-color="#0F77B0" offset="1"/>
    </linearGradient>
  </defs>
</svg>