<svg xmlns="http://www.w3.org/2000/svg" width="250" height="250" fill="none" viewBox="0 0 250 250">
<!-- SVG created with Arrow, by QuiverAI (https://quiver.ai) -->
  <path d="m125 35.68c-22.9 0-38.53 19.13-38.53 38.78 0 20.51 16.5 39.55 38.45 39.46 22.15 0 38.49-18.91 38.49-39.26 0-19.65-15.35-38.98-38.41-38.98z" fill="url(#paint0_linear_138_2656)"/>
  <path d="m198.8 70.06c-14.94 0-26.05 13.03-26.05 26.79 0 13.83 11.11 25.87 25.88 25.87 14.37 0 26.47-12 26.47-25.87 0-13.76-10.9-26.79-26.3-26.79z" fill="url(#paint1_linear_138_2656)"/>
  <path d="m50.85 70.06c-14.94 0-27 12.34-27 26.67 0 13.64 10.91 25.95 26.1 25.95 14.9 0 26.81-12.39 26.81-25.87 0-13.88-10.95-26.75-25.91-26.75z" fill="url(#paint2_linear_138_2656)"/>
  <path d="m51.11 127c-24.7 0-44.37 16.74-44.44 41.69v13.92c0 0.9 0.39 1.09 1.17 1.36 13.25 4.6 27.9 6.41 41.7 6.41v-9.45c0-18.52 6.63-33.73 20.4-48.52 0.54-0.59 0.25-1.49-0.55-1.8-6.3-2.35-11.44-3.61-18.28-3.61z" fill="url(#paint3_linear_138_2656)"/>
  <path d="m198.8 127c-7.02 0-12.9 1.53-19.95 3.88 12.93 11.97 20.79 27.89 20.79 48v11.58c13.56-0.43 27.26-2.2 42.36-6.99 1.16-0.42 1.32-0.66 1.32-1.71v-12.99c0-23.54-18.41-41.77-44.52-41.77z" fill="url(#paint4_linear_138_2656)"/>
  <path d="m124.5 119.9h-0.08c-38.01 0-65.79 28.03-65.79 61.19v20.03c0 1.61 0.47 1.8 1.78 2.35 17.17 6.01 39.71 9.15 63.5 9.15h0.16c22.94 0 44.73-2.82 65.42-9.15 1.39-0.47 1.47-1.09 1.47-2.58v-19.8c0-33.28-26.11-61.19-66.46-61.19z" fill="url(#paint5_linear_138_2656)"/>
  <defs>
    <linearGradient id="paint0_linear_138_2656" x1="117.6" x2="142.2" y1="35.68" y2="116.5" gradientUnits="userSpaceOnUse">
      <stop stop-color="#1A7AB6" offset="0"/>
      <stop stop-color="#1D79B9" offset="1"/>
    </linearGradient>
    <linearGradient id="paint1_linear_138_2656" x1="190" x2="214.8" y1="70.06" y2="127.2" gradientUnits="userSpaceOnUse">
      <stop stop-color="#1A7AB6" offset="0"/>
      <stop stop-color="#1D79B9" offset="1"/>
    </linearGradient>
    <linearGradient id="paint2_linear_138_2656" x1="42.89" x2="67.71" y1="70.06" y2="126" gradientUnits="userSpaceOnUse">
      <stop stop-color="#1A7AB6" offset="0"/>
      <stop stop-color="#1D79B9" offset="1"/>
    </linearGradient>
    <linearGradient id="paint3_linear_138_2656" x1="31.57" x2="57.6" y1="127" y2="198.7" gradientUnits="userSpaceOnUse">
      <stop stop-color="#1A7AB6" offset="0"/>
      <stop stop-color="#1D79B9" offset="1"/>
    </linearGradient>
    <linearGradient id="paint4_linear_138_2656" x1="196.3" x2="222.6" y1="127" y2="196.4" gradientUnits="userSpaceOnUse">
      <stop stop-color="#1A7AB6" offset="0"/>
      <stop stop-color="#1D79B9" offset="1"/>
    </linearGradient>
    <linearGradient id="paint5_linear_138_2656" x1="116.9" x2="141.3" y1="119.9" y2="218" gradientUnits="userSpaceOnUse">
      <stop stop-color="#1A7AB6" offset="0"/>
      <stop stop-color="#1D79B9" offset="1"/>
    </linearGradient>
  </defs>
</svg>